<?xml version="1.0" standalone="no"?>
<!DOCTYPE svg PUBLIC "-//W3C//DTD SVG 1.1//EN" "http://www.w3.org/Graphics/SVG/1.1/DTD/svg11.dtd" >
<svg>
<metadata>
Created by FontForge 20120731 at Fri Aug 21 02:58:40 2020
 By www
Copyright (c) 2011 by Colophon Foundry. All rights reserved.
</metadata>
<defs>
<font id="CentralAvenue-Bold" horiz-adv-x="0" >
  <font-face 
    font-family="Central Avenue"
    font-weight="700"
    font-stretch="normal"
    units-per-em="1000"
    panose-1="2 11 8 6 7 3 1 4 1 3"
    ascent="750"
    descent="-250"
    x-height="700"
    cap-height="700"
    bbox="-349 -249.667 912 933"
    underline-thickness="50"
    underline-position="-50"
    unicode-range="U+000D-FB02"
  />
<missing-glyph horiz-adv-x="578" 
d="M60 6v688q0 6 6 6h450q6 0 6 -6v-688q0 -6 -6 -6h-450q-6 0 -6 6zM454 58v584h-326v-584h326z" />
    <glyph glyph-name="f_i" unicode="fi" horiz-adv-x="373" 
d="M34 356v338q0 6 6 6h293q6 0 6 -6v-338q0 -6 -6 -6h-70q-6 0 -6 6v286h-141v-71h91q6 0 6 -6v-46q0 -6 -6 -6h-91v-157q0 -6 -6 -6h-70q-6 0 -6 6zM-6 243v46q0 6 6 6h373q6 0 6 -6v-46q0 -6 -6 -6h-373q-6 0 -6 6z" />
    <glyph glyph-name="f_l" unicode="fl" horiz-adv-x="476" 
d="M34 356v338q0 6 6 6h290q6 0 6 -6v-286h104q6 0 6 -6v-46q0 -6 -6 -6h-180q-6 0 -6 6v286h-138v-71h91q6 0 6 -6v-46q0 -6 -6 -6h-91v-157q0 -6 -6 -6h-70q-6 0 -6 6zM-6 243v46q0 6 6 6h476q6 0 6 -6v-46q0 -6 -6 -6h-476q-6 0 -6 6z" />
    <glyph glyph-name=".notdef" horiz-adv-x="578" 
d="M60 6v688q0 6 6 6h450q6 0 6 -6v-688q0 -6 -6 -6h-450q-6 0 -6 6zM454 58v584h-326v-584h326z" />
    <glyph glyph-name=".null" 
 />
    <glyph glyph-name="nonmarkingreturn" unicode="&#xd;" 
 />
    <glyph glyph-name="space" unicode=" " horiz-adv-x="226" 
 />
    <glyph glyph-name="exclam" unicode="!" horiz-adv-x="252" 
d="M183 187h-114q-6 0 -6 6l-19 501q0 6 6 6h152q6 0 6 -6l-19 -501q0 -6 -6 -6zM183 0h-114q-6 0 -6 6v114q0 6 6 6h114q6 0 6 -6v-114q0 -6 -6 -6z" />
    <glyph glyph-name="quotedbl" unicode="&#x22;" horiz-adv-x="286" 
d="M127 711l-11 -168q0 -6 -6 -6h-54q-6 0 -6 6l-11 168q0 6 5 6h78q5 0 5 -6zM247 711l-11 -168q0 -6 -6 -6h-54q-6 0 -6 6l-11 168q0 6 5 6h78q5 0 5 -6z" />
    <glyph glyph-name="numbersign" unicode="#" horiz-adv-x="718" 
d="M684 447h-157l-32 -190h157q6 0 6 -6v-68q0 -6 -6 -6h-171l-30 -171q-1 -6 -6 -6h-70q-5 0 -5 6l31 171h-154l-30 -171q-1 -6 -6 -6h-70q-5 0 -5 6l29 171h-129q-6 0 -6 6v68q0 6 6 6h144l33 190h-147q-6 0 -6 6v68q0 6 6 6h160l27 167q2 6 7 6h69q5 0 5 -6l-28 -167h155
l27 167q2 6 7 6h69q5 0 5 -6l-28 -167h143q6 0 6 -6v-68q0 -6 -6 -6zM293 447l-33 -190h155l32 190h-154z" />
    <glyph glyph-name="dollar" unicode="$" horiz-adv-x="504" 
d="M311 522q-2 41 -19 61t-42 20t-41 -15t-16 -42q0 -25 23.5 -46.5t74.5 -54.5q57 -36 94.5 -67.5t65 -78.5t27.5 -109q0 -90 -51 -141.5t-132 -62.5v-70q0 -6 -6 -6h-68q-6 0 -6 6v69q-86 7 -133.5 48.5t-55.5 110.5q0 6 4 7l147 34q5 0 5 -5q2 -46 18.5 -64.5t47.5 -18.5
q66 0 66 83q0 41 -28.5 70t-87.5 68q-51 33 -81.5 59t-52 64t-21.5 89q0 83 47.5 129.5t124.5 55.5v69q0 6 6 6h68q6 0 6 -6v-70q69 -9 112.5 -48t52.5 -109q0 -6 -5 -7l-138 -32q-6 0 -6 4z" />
    <glyph glyph-name="percent" unicode="%" horiz-adv-x="672" 
d="M66 692.5q30 24.5 80 24.5t80 -24.5t30 -70.5v-165q0 -46 -30 -70.5t-80 -24.5t-80 24.5t-30 70.5v165q0 46 30 70.5zM72 24l1 4l462 686q3 3 5 3t6 -2l52 -35q2 -2 2 -4l-1 -4l-462 -686q-3 -3 -5 -3t-6 2l-52 35q-2 2 -2 4zM125 426q7 -9 21 -9t21 9t7 31v165
q0 22 -7 31t-21 9t-21 -9t-7 -31v-165q0 -22 7 -31zM446 313.5q30 24.5 80 24.5t80 -24.5t30 -70.5v-165q0 -46 -30 -70.5t-80 -24.5t-80 24.5t-30 70.5v165q0 46 30 70.5zM505 47q7 -9 21 -9t21 9t7 31v165q0 22 -7 31t-21 9t-21 -9t-7 -31v-165q0 -22 7 -31z" />
    <glyph glyph-name="ampersand" unicode="&#x26;" horiz-adv-x="653" 
d="M650 3q0 -3 -4 -3h-184q-7 0 -12 6l-22 27q-29 -21 -73 -35.5t-92 -14.5q-100 0 -165 47.5t-65 138.5q0 53 29.5 98.5t87.5 88.5q-62 94 -62 166q1 110 61.5 152.5t142.5 42.5q88 0 142 -47.5t54 -148.5q0 -52 -31.5 -101t-99.5 -97l71 -79q12 38 12 83q0 6 6 6h126
q6 0 6 -6q0 -55 -14.5 -102.5t-40.5 -81.5l126 -137zM327.5 477.5q17.5 24.5 17.5 60.5q0 35 -15 50t-38 15q-22 0 -36.5 -18.5t-14.5 -62.5q0 -18 10.5 -44t24.5 -45q34 20 51.5 44.5zM307.5 100.5q18.5 8.5 35.5 25.5l-106 116q-20 -15 -32 -35t-12 -43q0 -33 21 -52.5
t50 -19.5q25 0 43.5 8.5z" />
    <glyph glyph-name="quotesingle" unicode="'" horiz-adv-x="166" 
d="M127 711l-11 -168q0 -6 -6 -6h-54q-6 0 -6 6l-11 168q0 6 5 6h78q5 0 5 -6z" />
    <glyph glyph-name="parenleft" unicode="(" horiz-adv-x="252" 
d="M219 -151q-2 0 -4 2q-82 106 -126.5 233.5t-44.5 265.5t44.5 265.5t126.5 233.5q2 2 4 2q3 0 5 -2l20 -17q3 -3 3 -5l-2 -5q-58 -114 -86 -245t-28 -227t28 -227t86 -245l2 -5q0 -2 -3 -5l-20 -17q-2 -2 -5 -2z" />
    <glyph glyph-name="parenright" unicode=")" horiz-adv-x="252" 
d="M5 -127l2 5q58 114 86 245t28 227t-28 227t-86 245l-2 5q0 2 3 5l20 17q2 2 5 2q2 0 4 -2q82 -106 126.5 -233.5t44.5 -265.5t-44.5 -265.5t-126.5 -233.5q-2 -2 -4 -2q-3 0 -5 2l-20 17q-3 3 -3 5z" />
    <glyph glyph-name="asterisk" unicode="*" horiz-adv-x="384" 
d="M343 591q0 -4 -4 -5l-87 -40l87 -40q4 -1 4 -5l-1 -3l-34 -59q-1 -3 -4 -3q-2 0 -5 2l-77 56l10 -96q0 -6 -6 -6h-68q-6 0 -6 6l10 96l-77 -56q-3 -2 -5 -2t-4 3l-34 59l-1 3q0 4 4 5l87 40l-87 40q-4 1 -4 5l1 3l34 59q2 3 4 3t5 -2l77 -56l-10 96q0 6 6 6h68q6 0 6 -6
l-10 -96l77 56q3 2 5 2q3 0 4 -3l34 -59z" />
    <glyph glyph-name="plus" unicode="+" horiz-adv-x="428" 
d="M254 500v-130h130q6 0 6 -6v-68q0 -6 -6 -6h-130v-130q0 -6 -6 -6h-68q-6 0 -6 6v130h-130q-6 0 -6 6v68q0 6 6 6h130v130q0 6 6 6h68q6 0 6 -6z" />
    <glyph glyph-name="comma" unicode="," horiz-adv-x="213" 
d="M143.5 -43.5q-18.5 -24.5 -49.5 -31.5q-5 0 -7 2l-30 36q-3 4 -3 6t5 4q13 5 18.5 10.5t7.5 16.5h-43q-6 0 -6 6v114q0 6 6 6h114q6 0 6 -6v-107q0 -32 -18.5 -56.5z" />
    <glyph glyph-name="hyphen" unicode="-" horiz-adv-x="347" 
d="M44 390h259q6 0 6 -6v-68q0 -6 -6 -6h-259q-6 0 -6 6v68q0 6 6 6z" />
    <glyph glyph-name="period" unicode="." horiz-adv-x="213" 
d="M156 0h-114q-6 0 -6 6v114q0 6 6 6h114q6 0 6 -6v-114q0 -6 -6 -6z" />
    <glyph glyph-name="slash" unicode="/" horiz-adv-x="283" 
d="M103 -72h-70q-5 0 -5 6l162 833q1 5 6 5h70q5 0 5 -6l-162 -833q-1 -5 -6 -5z" />
    <glyph glyph-name="zero" unicode="0" horiz-adv-x="536" 
d="M108.5 25q-64.5 42 -64.5 152v346q0 110 64.5 152t159.5 42t159.5 -42t64.5 -152v-346q0 -110 -64.5 -152t-159.5 -42t-159.5 42zM313 115q15 18 15 63v344q0 45 -15 63t-45 18t-45 -18t-15 -63v-344q0 -45 15 -63t45 -18t45 18z" />
    <glyph glyph-name="one" unicode="1" horiz-adv-x="264" 
d="M50 6v612q0 5 4 9l70 69q4 4 9 4h75q6 0 6 -6v-688q0 -6 -6 -6h-152q-6 0 -6 6z" />
    <glyph glyph-name="two" unicode="2" horiz-adv-x="529" 
d="M34 6q1 71 26 130.5t59.5 104t88.5 101.5q57 60 83.5 99t26.5 80q0 82 -60 82q-30 0 -48.5 -24t-18.5 -59q0 -5 -5 -5l-146 34q-5 2 -5 5q0 55 33 92t84 54t106 17q97 0 160.5 -46.5t63.5 -149.5q0 -49 -19.5 -92.5t-48 -78.5t-76.5 -86q-41 -43 -66 -72.5t-44 -61.5h248
q6 0 6 -6v-118q0 -6 -6 -6h-436q-6 0 -6 6z" />
    <glyph glyph-name="three" unicode="3" horiz-adv-x="521" 
d="M107.5 19.5q-64.5 36.5 -74.5 124.5q0 6 5 7l146 33q6 0 6 -5q0 -82 66 -82q61 0 61 82v32q0 45 -16 63.5t-45 18.5h-62q-6 0 -6 5v103q0 2 2 4t4 2h58q33 0 49 18t16 64v32q0 45 -16 63.5t-45 18.5q-31 0 -48 -18.5t-18 -64.5q0 -5 -6 -5l-146 34q-5 2 -5 7
q11 90 73.5 125.5t149.5 35.5q225 0 225 -196v-32q0 -53 -23 -89t-65 -50q41 -18 64.5 -53t23.5 -86v-32q0 -111 -64.5 -153.5t-160.5 -42.5q-84 0 -148.5 36.5z" />
    <glyph glyph-name="four" unicode="4" horiz-adv-x="561" 
d="M311 6v128h-273q-6 0 -6 6v78q0 7 3 11l276 466q3 5 9 5h138q6 0 6 -6v-446h66q6 0 6 -6v-102q0 -6 -6 -6h-66v-128q0 -6 -6 -6h-141q-6 0 -6 6zM311 248v222l-132 -222h132z" />
    <glyph glyph-name="five" unicode="5" horiz-adv-x="535" 
d="M49 144q0 6 5 7l147 33q5 0 5 -4q1 -83 66 -83q30 0 45.5 18.5t15.5 63.5v87q0 45 -15.5 63.5t-45.5 18.5q-23 0 -37 -11t-20 -37q-1 -4 -5 -4l-157 36q-5 1 -5 7l25 355q0 6 7 6h375q6 0 6 -6v-102q0 -6 -6 -6h-228l-8 -156q41 24 99 24q83 0 131 -41.5t48 -129.5v-104
q0 -105 -61 -150.5t-164 -45.5q-203 0 -223 161z" />
    <glyph glyph-name="six" unicode="6" horiz-adv-x="534" 
d="M107 28q-63 45 -63 151v342q0 111 64.5 153.5t160.5 42.5q88 0 149.5 -37.5t73.5 -123.5q0 -5 -5 -7l-146 -34q-6 0 -6 5q-2 47 -18.5 65t-47.5 18q-29 0 -45 -18.5t-16 -63.5v-118q45 29 107 29q83 0 131 -41.5t48 -129.5v-82q0 -196 -225 -196q-99 0 -162 45z
M314.5 115.5q15.5 18.5 15.5 63.5v65q0 45 -15.5 63.5t-45.5 18.5t-45.5 -18.5t-15.5 -63.5v-65q0 -45 15.5 -63.5t45.5 -18.5t45.5 18.5z" />
    <glyph glyph-name="seven" unicode="7" horiz-adv-x="504" 
d="M85 3l1 4l227 579h-284q-6 0 -6 6v102q0 6 6 6h435q6 0 6 -6v-103q0 -5 -3 -13l-213 -573q-2 -5 -8 -5h-156q-5 0 -5 3z" />
    <glyph glyph-name="eight" unicode="8" horiz-adv-x="532" 
d="M105.5 25.5q-64.5 42.5 -64.5 153.5v47q0 66 24.5 104t69.5 56q-84 34 -84 148q0 102 63 142.5t152 40.5t152 -40.5t63 -142.5q0 -114 -84 -148q45 -18 69.5 -56t24.5 -104v-47q0 -111 -64.5 -153.5t-160.5 -42.5t-160.5 42.5zM311.5 458q15.5 18 15.5 63t-15.5 63.5
t-45.5 18.5t-45.5 -18.5t-15.5 -63.5t15.5 -63t45.5 -18t45.5 18zM311.5 115.5q15.5 18.5 15.5 63.5v65q0 45 -15.5 63.5t-45.5 18.5t-45.5 -18.5t-15.5 -63.5v-65q0 -45 15.5 -63.5t45.5 -18.5t45.5 18.5z" />
    <glyph glyph-name="nine" unicode="9" horiz-adv-x="534" 
d="M115.5 20.5q-61.5 37.5 -73.5 123.5q0 5 5 7l146 34q6 0 6 -5q2 -47 18.5 -65t47.5 -18q29 0 45 18.5t16 63.5v118q-45 -29 -107 -29q-83 0 -131 41.5t-48 129.5v82q0 196 225 196q99 0 162 -45t63 -151v-342q0 -111 -64.5 -153.5t-160.5 -42.5q-88 0 -149.5 37.5z
M310.5 392.5q15.5 18.5 15.5 63.5v65q0 45 -15.5 63.5t-45.5 18.5t-45.5 -18.5t-15.5 -63.5v-65q0 -45 15.5 -63.5t45.5 -18.5t45.5 18.5z" />
    <glyph glyph-name="colon" unicode=":" horiz-adv-x="213" 
d="M156 310h-114q-6 0 -6 6v114q0 6 6 6h114q6 0 6 -6v-114q0 -6 -6 -6zM156 0h-114q-6 0 -6 6v114q0 6 6 6h114q6 0 6 -6v-114q0 -6 -6 -6z" />
    <glyph glyph-name="semicolon" unicode=";" horiz-adv-x="213" 
d="M156 310h-114q-6 0 -6 6v114q0 6 6 6h114q6 0 6 -6v-114q0 -6 -6 -6zM143.5 -43.5q-18.5 -24.5 -49.5 -31.5q-5 0 -7 2l-30 36q-3 4 -3 6t5 4q13 5 18.5 10.5t7.5 16.5h-43q-6 0 -6 6v114q0 6 6 6h114q6 0 6 -6v-107q0 -32 -18.5 -56.5z" />
    <glyph glyph-name="less" unicode="&#x3c;" horiz-adv-x="504" 
d="M458 506l-221 -146l221 -146q5 -2 5 -9v-129q0 -4 -3 -4l-4 1l-422 283q-2 2 -2 4t2 4l422 283l4 1q3 0 3 -4v-129q0 -6 -5 -9z" />
    <glyph glyph-name="equal" unicode="=" horiz-adv-x="388" 
d="M350 454v-68q0 -6 -6 -6h-300q-6 0 -6 6v68q0 6 6 6h300q6 0 6 -6zM350 294v-68q0 -6 -6 -6h-300q-6 0 -6 6v68q0 6 6 6h300q6 0 6 -6z" />
    <glyph glyph-name="greater" unicode="&#x3e;" horiz-adv-x="504" 
d="M44 648l4 -1l422 -283q2 -2 2 -4t-2 -4l-422 -283l-4 -1q-3 0 -3 4v129q0 7 5 9l221 146l-221 146q-5 3 -5 9v129q0 4 3 4z" />
    <glyph glyph-name="question" unicode="?" horiz-adv-x="521" 
d="M105 678.5q63 38.5 150 38.5q97 0 161 -48t64 -148q0 -43 -14.5 -76t-35.5 -56t-55 -53q-41 -37 -61 -63t-20 -63v-17q0 -6 -6 -6h-114q-6 0 -6 6v23q0 50 12 84.5t28.5 55.5t43.5 45q33 30 48.5 54.5t15.5 65.5q0 82 -61 82q-31 0 -48 -19t-18 -64q0 -5 -6 -5l-146 33
q-5 1 -5 8q10 84 73 122.5zM288 0h-114q-6 0 -6 6v114q0 6 6 6h114q6 0 6 -6v-114q0 -6 -6 -6z" />
    <glyph glyph-name="at" unicode="@" horiz-adv-x="827" 
d="M597 678q82 -39 131 -111.5t49 -168.5v-16q0 -67 -24.5 -117.5t-68.5 -78t-101 -27.5q-42 0 -71 22t-29 67q-30 -49 -67.5 -69t-81.5 -20q-52 0 -80.5 27t-28.5 79q0 38 14 81l16 51q23 74 65.5 103t101.5 29q35 0 62.5 -18t37.5 -49l16 58q2 5 7 5h69q5 0 5 -5l-62 -220
q-8 -27 -8 -43q0 -25 12.5 -36t37.5 -11q36 0 64 23t44 62.5t16 88.5v14q0 80 -42 142t-112 95.5t-152 33.5q-84 0 -156 -41t-114.5 -113.5t-42.5 -164.5q0 -88 40 -161t111.5 -115.5t161.5 -42.5q121 0 210 76l4 2q2 0 4 -2l25 -28l2 -4q0 -1 -3 -4q-91 -88 -242 -88
q-104 0 -188 48t-131.5 132t-47.5 187q0 104 48 188t131.5 131.5t187.5 47.5q98 0 180 -39zM483.5 465.5q-15.5 16.5 -43.5 16.5q-39 0 -60 -30t-42 -96l-3 -10q-2 -6 -8.5 -28.5t-9.5 -38.5t-3 -29q0 -22 11 -34t30 -12q44 0 76 24.5t45 69.5l33 118q-10 33 -25.5 49.5z
" />
    <glyph glyph-name="A" unicode="A" horiz-adv-x="511" 
d="M8 6l184 690q1 4 5 4h117q5 0 6 -4l183 -690q0 -6 -6 -6h-155q-5 0 -6 4l-23 85h-160l-23 -85q-1 -4 -6 -4h-109q-7 0 -7 6zM283 203l-50 197l-50 -197h100z" />
    <glyph glyph-name="B" unicode="B" horiz-adv-x="511" 
d="M50 6v688q0 6 6 6h214q83 0 131 -42.5t48 -126.5q0 -100 -73 -143q101 -35 101 -161v-52q0 -93 -52.5 -134t-158.5 -41h-210q-6 0 -6 6zM241 440q27 0 40.5 16t13.5 57t-13.5 57t-40.5 16h-27v-146h27zM254 114q29 0 44 18t15 63v50q0 45 -15 63t-44 18h-40v-212h40z" />
    <glyph glyph-name="C" unicode="C" horiz-adv-x="513" 
d="M101 27.5q-63 44.5 -63 151.5v342q0 107 63 151.5t161 44.5q87 0 149.5 -36t73.5 -125q0 -6 -5 -7l-146 -34q-6 0 -6 5q0 83 -66 83q-29 0 -44.5 -18.5t-15.5 -63.5v-342q0 -45 15.5 -63.5t44.5 -18.5q66 0 66 83q0 5 6 5l146 -34q5 -1 5 -7q-11 -89 -73.5 -125
t-149.5 -36q-98 0 -161 44.5z" />
    <glyph glyph-name="D" unicode="D" horiz-adv-x="521" 
d="M50 6v688q0 6 6 6h197q224 0 224 -194v-312q0 -194 -224 -194h-197q-6 0 -6 6zM253 114q30 0 45 17.5t15 62.5v312q0 45 -15 62.5t-45 17.5h-39v-472h39z" />
    <glyph glyph-name="E" unicode="E" horiz-adv-x="470" 
d="M50 6v688q0 6 6 6h372q6 0 6 -6v-102q0 -6 -6 -6h-214v-146h186q6 0 6 -6v-102q0 -6 -6 -6h-186v-212h214q6 0 6 -6v-102q0 -6 -6 -6h-372q-6 0 -6 6z" />
    <glyph glyph-name="F" unicode="F" horiz-adv-x="467" 
d="M50 6v688q0 6 6 6h372q6 0 6 -6v-102q0 -6 -6 -6h-214v-146h186q6 0 6 -6v-102q0 -6 -6 -6h-186v-320q0 -6 -6 -6h-152q-6 0 -6 6z" />
    <glyph glyph-name="G" unicode="G" horiz-adv-x="518" 
d="M101 27.5q-63 44.5 -63 151.5v342q0 108 63 152t162 44q87 0 149.5 -36t73.5 -125q0 -6 -5 -7l-146 -34q-6 0 -6 5q0 83 -66 83q-30 0 -45.5 -18.5t-15.5 -63.5v-342q0 -45 15.5 -63.5t44.5 -18.5q33 0 56 16v182h-61q-6 0 -6 5v103q0 6 6 6h219q6 0 6 -6v-330
q0 -4 -2 -8q-34 -41 -94 -61.5t-124 -20.5q-98 0 -161 44.5z" />
    <glyph glyph-name="H" unicode="H" horiz-adv-x="559" 
d="M50 6v688q0 6 6 6h152q6 0 6 -6v-255h131v255q0 6 6 6h152q6 0 6 -6v-688q0 -6 -6 -6h-152q-6 0 -6 6v319h-131v-319q0 -6 -6 -6h-152q-6 0 -6 6z" />
    <glyph glyph-name="I" unicode="I" horiz-adv-x="264" 
d="M50 6v688q0 6 6 6h152q6 0 6 -6v-688q0 -6 -6 -6h-152q-6 0 -6 6z" />
    <glyph glyph-name="J" unicode="J" horiz-adv-x="490" 
d="M78.5 19q-62.5 36 -73.5 125q0 6 5 7l146 34q6 0 6 -5q0 -83 66 -83q29 0 44.5 18.5t15.5 63.5v515q0 6 6 6h152q6 0 6 -6v-515q0 -107 -63 -151.5t-161 -44.5q-87 0 -149.5 36z" />
    <glyph glyph-name="K" unicode="K" horiz-adv-x="506" 
d="M50 6v688q0 6 6 6h152q6 0 6 -6v-249l145 250q3 5 8 5h125q7 0 7 -5l-2 -5l-152 -260l151 -423l1 -4q0 -3 -5 -3h-158q-4 0 -6 5l-81 256l-33 -55v-200q0 -6 -6 -6h-152q-6 0 -6 6z" />
    <glyph glyph-name="L" unicode="L" horiz-adv-x="458" 
d="M50 6v688q0 6 6 6h152q6 0 6 -6v-580h214q6 0 6 -6v-102q0 -6 -6 -6h-372q-6 0 -6 6z" />
    <glyph glyph-name="M" unicode="M" horiz-adv-x="638" 
d="M50 6v688q0 6 6 6h151q6 0 7 -6l102 -399l102 398q1 7 9 7h155q6 0 6 -6v-688q0 -6 -6 -6h-152q-6 0 -6 6v292l-66 -292q-1 -6 -8 -6h-112q-6 0 -8 6l-66 292v-292q0 -6 -6 -6h-102q-6 0 -6 6z" />
    <glyph glyph-name="N" unicode="N" horiz-adv-x="502" 
d="M50 6v688q0 6 6 6h115q6 0 8 -5l151 -312v311q0 6 6 6h110q6 0 6 -6v-688q0 -6 -6 -6h-116q-5 0 -8 5l-150 312v-311q0 -6 -6 -6h-110q-6 0 -6 6z" />
    <glyph glyph-name="O" unicode="O" horiz-adv-x="524" 
d="M103 26q-65 43 -65 151v346q0 108 65 151t159 43t159 -43t65 -151v-346q0 -108 -65 -151t-159 -43t-159 43zM307 114.5q15 17.5 15 62.5v346q0 45 -15 62.5t-45 17.5t-45 -17.5t-15 -62.5v-346q0 -45 15.5 -62.5t44.5 -17.5q30 0 45 17.5z" />
    <glyph glyph-name="P" unicode="P" horiz-adv-x="487" 
d="M50 6v688q0 6 6 6h221q79 0 133 -45.5t54 -149.5t-54 -149.5t-133 -45.5h-63v-304q0 -6 -6 -6h-152q-6 0 -6 6zM240 424q29 0 44.5 18t15.5 63t-15.5 63t-44.5 18h-26v-162h26z" />
    <glyph glyph-name="Q" unicode="Q" horiz-adv-x="534" 
d="M349 -83l-37 69q-25 -3 -50 -3q-93 0 -158.5 43.5t-65.5 150.5v346q0 108 65 151t159 43t159 -43t65 -151v-346q0 -101 -66 -152l67 -103l2 -5q0 -4 -6 -4h-128q-3 0 -6 4zM307 114.5q15 17.5 15 62.5v346q0 45 -15 62.5t-45 17.5t-45 -17.5t-15 -62.5v-346
q0 -45 15.5 -62.5t44.5 -17.5q30 0 45 17.5z" />
    <glyph glyph-name="R" unicode="R" horiz-adv-x="507" 
d="M50 6v688q0 6 6 6h221q79 0 133 -45.5t54 -149.5q0 -122 -86 -171l116 -324l1 -6q0 -4 -6 -4h-156q-4 0 -5 4l-94 306h-20v-304q0 -6 -6 -6h-152q-6 0 -6 6zM240 424q29 0 44.5 18t15.5 63t-15.5 63t-44.5 18h-26v-162h26z" />
    <glyph glyph-name="S" unicode="S" horiz-adv-x="503" 
d="M90.5 25.5q-56.5 42.5 -65.5 118.5q0 6 4 7l147 34q5 0 5 -5q2 -46 18.5 -64.5t47.5 -18.5q66 0 66 83q0 41 -28.5 70t-87.5 68q-51 33 -81.5 59t-52 64t-21.5 89q0 93 58.5 140t148.5 47q87 0 143 -39.5t67 -120.5q0 -6 -5 -7l-138 -32q-6 0 -6 4q-2 41 -19 61t-42 20
t-41 -15t-16 -42q0 -25 23.5 -46.5t74.5 -54.5q57 -36 94.5 -67.5t65 -78.5t27.5 -109q0 -69 -31 -115.5t-82.5 -69t-114.5 -22.5q-102 0 -158.5 42.5z" />
    <glyph glyph-name="T" unicode="T" horiz-adv-x="508" 
d="M172 6v580h-149q-6 0 -6 6v102q0 6 6 6h462q6 0 6 -6v-102q0 -6 -6 -6h-149v-580q0 -6 -6 -6h-152q-6 0 -6 6z" />
    <glyph glyph-name="U" unicode="U" horiz-adv-x="491" 
d="M46 160v534q0 6 6 6h152q6 0 6 -6v-516q0 -45 15 -63t44 -18t44.5 18t15.5 63v516q0 6 6 6h114q6 0 6 -6v-534q0 -97 -57 -137t-147 -40q-205 0 -205 177z" />
    <glyph glyph-name="V" unicode="V" horiz-adv-x="508" 
d="M190 4l-184 690q0 6 6 6h156q4 0 5 -4l104 -401l103 401q1 4 5 4h111q6 0 6 -7l-184 -689q-1 -4 -6 -4h-117q-4 0 -5 4z" />
    <glyph glyph-name="W" unicode="W" horiz-adv-x="676" 
d="M158 4l-151 688q0 4 1 6t6 2h153q6 0 7 -6l66 -316l61 317q1 5 5 5h108q5 0 6 -5l66 -317l60 316q1 6 6 6h110q5 0 6 -2t1 -6l-151 -688q-1 -4 -5 -4h-104q-4 0 -5 4l-66 310l-66 -310q-1 -4 -5 -4h-104q-4 0 -5 4z" />
    <glyph glyph-name="X" unicode="X" horiz-adv-x="513" 
d="M10 4l1 4l160 351l-142 333l-1 3q0 5 7 5h163q5 0 6 -4l80 -204l86 204q1 4 6 4h119q6 0 6 -4l-1 -4l-152 -334l149 -350l1 -3q0 -5 -6 -5h-164q-6 0 -7 4l-86 221l-92 -221q-1 -4 -6 -4h-121q-6 0 -6 4z" />
    <glyph glyph-name="Y" unicode="Y" horiz-adv-x="517" 
d="M175 6v287l-167 399l-1 4q0 4 6 4h155q6 0 7 -4l102 -264l105 264q1 4 6 4h111q7 0 7 -4l-1 -4l-166 -399v-287q0 -6 -6 -6h-152q-6 0 -6 6z" />
    <glyph glyph-name="Z" unicode="Z" horiz-adv-x="466" 
d="M30 6v92q0 8 4 16l215 472h-213q-6 0 -6 6v102q0 6 6 6h390q6 0 6 -6v-94q0 -7 -4 -16l-216 -470h214q6 0 6 -6v-102q0 -6 -6 -6h-390q-6 0 -6 6z" />
    <glyph glyph-name="bracketleft" unicode="[" horiz-adv-x="260" 
d="M219 750h-87v-800h87q6 0 6 -6v-68q0 -6 -6 -6h-163q-6 0 -6 6v948q0 6 6 6h163q6 0 6 -6v-68q0 -6 -6 -6z" />
    <glyph glyph-name="backslash" unicode="\" horiz-adv-x="283" 
d="M17 772h70q5 0 6 -5l162 -833q0 -6 -5 -6h-70q-5 0 -6 5l-162 833q0 6 5 6z" />
    <glyph glyph-name="bracketright" unicode="]" horiz-adv-x="260" 
d="M41 830h163q6 0 6 -6v-948q0 -6 -6 -6h-163q-6 0 -6 6v68q0 6 6 6h87v800h-87q-6 0 -6 6v68q0 6 6 6z" />
    <glyph glyph-name="asciicircum" unicode="^" horiz-adv-x="536" 
d="M37 291l1 3l226 403q2 3 4 3q3 0 4 -3l226 -403l1 -3q0 -3 -4 -3h-119q-6 0 -9 5l-99 211l-99 -211q-2 -5 -9 -5h-119q-4 0 -4 3z" />
    <glyph glyph-name="underscore" unicode="_" horiz-adv-x="447" 
d="M44 0h359q6 0 6 -6v-68q0 -6 -6 -6h-359q-6 0 -6 6v68q0 6 6 6z" />
    <glyph glyph-name="grave" unicode="`" horiz-adv-x="228" 
d="M139 695l50 -150l1 -4q0 -4 -4 -4h-61q-6 0 -9 5l-80 150l-1 4q0 4 5 4h92q5 0 7 -5z" />
    <glyph glyph-name="a" unicode="a" horiz-adv-x="260" 
d="M6 356l92 339q2 5 7 5h49q7 0 8 -5l92 -339q0 -6 -6 -6h-71q-5 0 -7 5l-11 38h-80l-11 -38q-2 -5 -8 -5h-46q-8 0 -8 6zM144 451l-25 99l-25 -99h50zM-6 243v46q0 6 6 6h260q6 0 6 -6v-46q0 -6 -6 -6h-260q-6 0 -6 6z" />
    <glyph glyph-name="b" unicode="b" horiz-adv-x="268" 
d="M34 356v338q0 6 6 6h103q42 0 66 -21.5t24 -63.5q0 -49 -37 -72q51 -18 51 -80v-27q0 -46 -26 -66t-79 -20h-102q-6 0 -6 6zM129 570q13 0 20 8t7 28t-7 28t-20 8h-13v-72h13zM135 408q15 0 22.5 8.5t7.5 30.5v25q0 22 -7.5 31t-22.5 9h-19v-104h19zM-6 243v46q0 6 6 6
h268q6 0 6 -6v-46q0 -6 -6 -6h-268q-6 0 -6 6z" />
    <glyph glyph-name="c" unicode="c" horiz-adv-x="261" 
d="M58.5 367q-30.5 22 -30.5 74v168q0 52 30.5 74t78.5 22q100 0 110 -76q0 -6 -4 -7l-68 -16q-5 0 -5 5q0 17 -9 26.5t-24 9.5q-14 0 -20.5 -8t-6.5 -30v-168q0 -22 6.5 -30t20.5 -8q15 0 24 9.5t9 26.5q0 5 5 5l68 -16q4 -1 4 -7q-10 -76 -110 -76q-48 0 -78.5 22zM-6 243
v46q0 6 6 6h261q6 0 6 -6v-46q0 -6 -6 -6h-261q-6 0 -6 6z" />
    <glyph glyph-name="d" unicode="d" horiz-adv-x="272" 
d="M34 356v338q0 6 6 6h96q111 0 111 -97v-156q0 -97 -111 -97h-96q-6 0 -6 6zM135 408q14 0 22 9t8 31v154q0 22 -8 31t-22 9h-19v-234h19zM-6 243v46q0 6 6 6h272q6 0 6 -6v-46q0 -6 -6 -6h-272q-6 0 -6 6z" />
    <glyph glyph-name="e" unicode="e" horiz-adv-x="249" 
d="M34 356v338q0 6 6 6h180q6 0 6 -6v-46q0 -6 -6 -6h-104v-71h91q6 0 6 -6v-46q0 -6 -6 -6h-91v-105h104q6 0 6 -6v-46q0 -6 -6 -6h-180q-6 0 -6 6zM-6 243v46q0 6 6 6h249q6 0 6 -6v-46q0 -6 -6 -6h-249q-6 0 -6 6z" />
    <glyph glyph-name="f" unicode="f" horiz-adv-x="246" 
d="M34 356v338q0 6 6 6h180q6 0 6 -6v-46q0 -6 -6 -6h-104v-71h91q6 0 6 -6v-46q0 -6 -6 -6h-91v-157q0 -6 -6 -6h-70q-6 0 -6 6zM-6 243v46q0 6 6 6h246q6 0 6 -6v-46q0 -6 -6 -6h-246q-6 0 -6 6z" />
    <glyph glyph-name="g" unicode="g" horiz-adv-x="274" 
d="M28 442v166q0 97 110 97q100 0 110 -76q0 -6 -4 -7l-68 -16q-5 0 -5 5q0 36 -33 36q-14 0 -21 -8t-7 -31v-166q0 -23 7 -31t21 -8q10 0 15 1.5t11 5.5v85h-26q-6 0 -6 6v46q0 6 6 6h102q6 0 6 -6v-154q0 -4 -3 -9q-17 -20 -45 -29.5t-60 -9.5q-110 0 -110 97zM-6 243v46
q0 6 6 6h274q6 0 6 -6v-46q0 -6 -6 -6h-274q-6 0 -6 6z" />
    <glyph glyph-name="h" unicode="h" horiz-adv-x="297" 
d="M34 356v338q0 6 6 6h70q6 0 6 -6v-125h65v125q0 6 6 6h70q6 0 6 -6v-338q0 -6 -6 -6h-70q-6 0 -6 6v155h-65v-155q0 -6 -6 -6h-70q-6 0 -6 6zM-6 243v46q0 6 6 6h297q6 0 6 -6v-46q0 -6 -6 -6h-297q-6 0 -6 6z" />
    <glyph glyph-name="i" unicode="i" horiz-adv-x="150" 
d="M34 356v338q0 6 6 6h70q6 0 6 -6v-338q0 -6 -6 -6h-70q-6 0 -6 6zM-6 243v46q0 6 6 6h150q6 0 6 -6v-46q0 -6 -6 -6h-150q-6 0 -6 6z" />
    <glyph glyph-name="j" unicode="j" horiz-adv-x="252" 
d="M37.5 362.5q-31.5 17.5 -36.5 58.5q0 7 4 8l69 16q5 0 5 -5q0 -37 33 -37q14 0 21 8t7 31v252q0 6 6 6h70q6 0 6 -6v-252q0 -53 -31 -75t-79 -22q-43 0 -74.5 17.5zM-6 243v46q0 6 6 6h252q6 0 6 -6v-46q0 -6 -6 -6h-252q-6 0 -6 6z" />
    <glyph glyph-name="k" unicode="k" horiz-adv-x="261" 
d="M34 356v338q0 6 6 6h70q6 0 6 -6v-122l72 123q3 5 7 5h60q4 0 4 -3l-1 -4l-76 -128l75 -210q0 -5 -5 -5h-71q-6 0 -8 6l-40 124l-17 -27v-97q0 -6 -6 -6h-70q-6 0 -6 6zM-6 243v46q0 6 6 6h261q6 0 6 -6v-46q0 -6 -6 -6h-261q-6 0 -6 6z" />
    <glyph glyph-name="l" unicode="l" horiz-adv-x="243" 
d="M34 356v338q0 6 6 6h70q6 0 6 -6v-286h104q6 0 6 -6v-46q0 -6 -6 -6h-180q-6 0 -6 6zM-6 243v46q0 6 6 6h243q6 0 6 -6v-46q0 -6 -6 -6h-243q-6 0 -6 6z" />
    <glyph glyph-name="m" unicode="m" horiz-adv-x="337" 
d="M34 356v338q0 6 6 6h68q7 0 8 -6l51 -197l50 196q1 7 10 7h70q6 0 6 -6v-338q0 -6 -6 -6h-70q-6 0 -6 6v143l-32 -143q-1 -6 -9 -6h-48q-8 0 -9 6l-32 143v-143q0 -6 -6 -6h-45q-6 0 -6 6zM-6 243v46q0 6 6 6h337q6 0 6 -6v-46q0 -6 -6 -6h-337q-6 0 -6 6z" />
    <glyph glyph-name="n" unicode="n" horiz-adv-x="263" 
d="M34 356v338q0 6 6 6h50q5 0 7 -5l74 -154v153q0 6 6 6h46q6 0 6 -6v-338q0 -6 -6 -6h-50q-4 0 -7 5l-74 154v-153q0 -6 -6 -6h-46q-6 0 -6 6zM-6 243v46q0 6 6 6h263q6 0 6 -6v-46q0 -6 -6 -6h-263q-6 0 -6 6z" />
    <glyph glyph-name="o" unicode="o" horiz-adv-x="274" 
d="M57.5 366q-32.5 21 -32.5 76v166q0 55 32.5 76t79.5 21t79.5 -21t32.5 -76v-166q0 -55 -32.5 -76t-79.5 -21t-79.5 21zM159.5 411.5q7.5 8.5 7.5 30.5v166q0 22 -7.5 30.5t-22.5 8.5t-22.5 -8.5t-7.5 -30.5v-166q0 -22 7.5 -30.5t22.5 -8.5t22.5 8.5zM-6 243v46q0 6 6 6
h274q6 0 6 -6v-46q0 -6 -6 -6h-274q-6 0 -6 6z" />
    <glyph glyph-name="p" unicode="p" horiz-adv-x="259" 
d="M34 356v338q0 6 6 6h108q39 0 66 -23t27 -75t-27 -74.5t-66 -22.5h-32v-149q0 -6 -6 -6h-70q-6 0 -6 6zM129 563q15 0 22.5 8.5t7.5 30.5q0 23 -7.5 31.5t-22.5 8.5h-13v-79h13zM-6 243v46q0 6 6 6h259q6 0 6 -6v-46q0 -6 -6 -6h-259q-6 0 -6 6z" />
    <glyph glyph-name="q" unicode="q" horiz-adv-x="274" 
d="M180 327l-12 20q-20 -2 -31 -2q-47 0 -79.5 21t-32.5 76v166q0 55 32.5 76t79.5 21t79.5 -21t32.5 -76v-166q0 -49 -29 -73l27 -39q1 -1 1 -3t-3 -2h-62q-1 0 -3 2zM159.5 411.5q7.5 8.5 7.5 30.5v166q0 22 -7.5 30.5t-22.5 8.5t-22.5 -8.5t-7.5 -30.5v-166
q0 -22 7.5 -30.5t22.5 -8.5t22.5 8.5zM-6 243v46q0 6 6 6h274q6 0 6 -6v-46q0 -6 -6 -6h-274q-6 0 -6 6z" />
    <glyph glyph-name="r" unicode="r" horiz-adv-x="264" 
d="M34 356v338q0 6 6 6h108q39 0 66 -23t27 -75q0 -60 -43 -85l58 -159l1 -5q0 -3 -4 -3h-75q-4 0 -6 5l-46 150h-10v-149q0 -6 -6 -6h-70q-6 0 -6 6zM129 563q15 0 22.5 8.5t7.5 30.5q0 23 -7.5 31.5t-22.5 8.5h-13v-79h13zM-6 243v46q0 6 6 6h264q6 0 6 -6v-46q0 -6 -6 -6
h-264q-6 0 -6 6z" />
    <glyph glyph-name="s" unicode="s" horiz-adv-x="259" 
d="M50.5 365q-27.5 20 -32.5 56q0 5 5 7l67 16q4 0 4 -6q1 -19 9.5 -27t23.5 -8q16 0 23.5 8.5t7.5 29.5q0 20 -13.5 34t-42.5 34q-37 25 -56 46.5t-19 57.5q0 46 28.5 69t72.5 23q42 0 69 -19t33 -57q0 -6 -6 -8l-60 -14q-6 0 -6 6q-1 16 -9.5 25t-20.5 9t-20 -7t-8 -20
q0 -12 11.5 -22t36.5 -27q43 -27 67.5 -54t24.5 -71q0 -50 -32.5 -75.5t-79.5 -25.5q-50 0 -77.5 20zM-6 243v46q0 6 6 6h259q6 0 6 -6v-46q0 -6 -6 -6h-259q-6 0 -6 6z" />
    <glyph glyph-name="t" unicode="t" horiz-adv-x="254" 
d="M86 356v286h-71q-6 0 -6 6v46q0 6 6 6h224q6 0 6 -6v-46q0 -6 -6 -6h-71v-286q0 -6 -6 -6h-70q-6 0 -6 6zM-6 243v46q0 6 6 6h254q6 0 6 -6v-46q0 -6 -6 -6h-254q-6 0 -6 6z" />
    <glyph glyph-name="u" unicode="u" horiz-adv-x="260" 
d="M28 433v261q0 6 6 6h70q6 0 6 -6v-252q0 -23 7 -31t21 -8q15 0 22.5 8.5t7.5 30.5v252q0 6 6 6h52q6 0 6 -6v-261q0 -48 -29 -68t-74 -20q-101 0 -101 88zM-6 243v46q0 6 6 6h260q6 0 6 -6v-46q0 -6 -6 -6h-260q-6 0 -6 6z" />
    <glyph glyph-name="v" unicode="v" horiz-adv-x="256" 
d="M95 355l-91 339q0 6 6 6h70q6 0 8 -5l52 -197l50 197q2 5 6 5h51q5 0 5 -6l-91 -339q-2 -5 -6 -5h-54q-5 0 -6 5zM-6 243v46q0 6 6 6h256q6 0 6 -6v-46q0 -6 -6 -6h-256q-6 0 -6 6z" />
    <glyph glyph-name="w" unicode="w" horiz-adv-x="341" 
d="M80 355l-75 339q0 6 5 6h71q7 0 8 -6l33 -155l30 155q2 6 6 6h47q5 0 6 -6l33 -155l29 155q2 6 7 6h49q7 0 7 -6l-76 -339q-2 -5 -7 -5h-44q-5 0 -6 5l-32 152l-33 -152q-1 -5 -8 -5h-43q-6 0 -7 5zM-6 243v46q0 6 6 6h341q6 0 6 -6v-46q0 -6 -6 -6h-341q-6 0 -6 6z" />
    <glyph glyph-name="x" unicode="x" horiz-adv-x="256" 
d="M6 353l1 4l78 173l-70 163l-1 4q0 3 4 3h77q6 0 8 -5l39 -99l42 99q2 5 6 5h56q4 0 4 -3l-1 -4l-75 -164l73 -171l2 -5q0 -3 -3 -3h-79q-5 0 -7 5l-43 107l-45 -107q-1 -3 -3 -4t-5 -1h-54q-4 0 -4 3zM-6 243v46q0 6 6 6h256q6 0 6 -6v-46q0 -6 -6 -6h-256q-6 0 -6 6z
" />
    <glyph glyph-name="y" unicode="y" horiz-adv-x="256" 
d="M86 356v140l-82 197l-1 4q0 3 4 3h73q5 0 7 -5l50 -129l51 129q3 5 7 5h51q5 0 5 -5l-83 -199v-140q0 -6 -6 -6h-70q-6 0 -6 6zM-6 243v46q0 6 6 6h256q6 0 6 -6v-46q0 -6 -6 -6h-256q-6 0 -6 6z" />
    <glyph glyph-name="z" unicode="z" horiz-adv-x="238" 
d="M17 356v43q0 5 3 11l107 232h-104q-6 0 -6 6v46q0 6 6 6h189q6 0 6 -6v-42q0 -5 -3 -13l-107 -231h104q6 0 6 -6v-46q0 -6 -6 -6h-189q-6 0 -6 6zM-6 243v46q0 6 6 6h238q6 0 6 -6v-46q0 -6 -6 -6h-238q-6 0 -6 6z" />
    <glyph glyph-name="braceleft" unicode="{" horiz-adv-x="293" 
d="M175.5 548.5q10.5 -21.5 30.5 -50.5q21 -33 32 -56t11 -50q0 -38 -16.5 -68t-46.5 -47q30 -17 46.5 -47t16.5 -68q0 -27 -11 -50t-32 -56q-20 -29 -30.5 -50.5t-10.5 -45.5q0 -96 68 -108q10 -2 10 -10v-33q0 -6 -6 -6q-84 0 -132 38.5t-48 108.5q0 53 15 85t48 72
q16 21 25.5 40t9.5 40q0 30 -28 49t-90 19q-6 0 -6 6v32q0 6 6 6q62 0 90 19t28 49q0 21 -9.5 40t-25.5 40q-33 40 -48 72t-15 85q0 70 48 108.5t132 38.5q6 0 6 -6v-33q0 -8 -10 -10q-68 -12 -68 -108q0 -24 10.5 -45.5z" />
    <glyph glyph-name="bar" unicode="|" horiz-adv-x="180" 
d="M125 -90h-70q-6 0 -6 6v868q0 6 6 6h70q6 0 6 -6v-868q0 -6 -6 -6z" />
    <glyph glyph-name="braceright" unicode="}" horiz-adv-x="293" 
d="M60 702q-10 2 -10 10v33q0 6 6 6q84 0 132 -38.5t48 -108.5q0 -53 -15 -85t-48 -72q-16 -21 -25.5 -40t-9.5 -40q0 -30 28 -49t90 -19q6 0 6 -6v-32q0 -6 -6 -6q-62 0 -90 -19t-28 -49q0 -21 9.5 -40t25.5 -40q33 -40 48 -72t15 -85q0 -70 -48 -108.5t-132 -38.5
q-6 0 -6 6v33q0 8 10 10q68 12 68 108q0 24 -10.5 45.5t-30.5 50.5q-21 33 -32 56t-11 50q0 38 16.5 68t46.5 47q-30 17 -46.5 47t-16.5 68q0 27 11 50t32 56q20 29 30.5 50.5t10.5 45.5q0 96 -68 108z" />
    <glyph glyph-name="asciitilde" unicode="~" horiz-adv-x="434" 
d="M392 410q6 -18 6 -33q0 -36 -28.5 -54.5t-66.5 -18.5q-20 0 -38.5 6.5t-48.5 19.5q-24 12 -40 17.5t-31 5.5q-23 0 -38 -11.5t-15 -31.5q0 -6 -6 -6h-34q-6 0 -8 6q-4 12 -4 25q0 35 31.5 57.5t66.5 22.5q22 0 40.5 -5.5t41.5 -16.5q22 -10 37.5 -15t34.5 -5
q23 0 37.5 8.5t14.5 28.5q0 6 6 6h34q6 0 8 -6z" />
    <glyph glyph-name="uni00A0" unicode="&#xa0;" horiz-adv-x="226" 
 />
    <glyph glyph-name="exclamdown" unicode="&#xa1;" horiz-adv-x="252" 
d="M189 380q0 -6 -6 -6h-114q-6 0 -6 6v114q0 6 6 6h114q6 0 6 -6v-114zM208 -194q0 -6 -6 -6h-152q-6 0 -6 6l19 501q0 6 6 6h114q6 0 6 -6z" />
    <glyph glyph-name="cent" unicode="&#xa2;" horiz-adv-x="261" 
d="M141 310h-8q-6 0 -6 6v29q-99 4 -99 96v168q0 90 99 96v29q0 6 6 6h8q6 0 6 -6v-29q39 -2 66.5 -19.5t33.5 -56.5q0 -6 -4 -7l-68 -16q-5 0 -5 5q0 14 -6 23.5t-17 12.5v-244q11 2 17 12t6 24q0 5 5 5l68 -16q4 -1 4 -7q-10 -72 -100 -76v-29q0 -6 -6 -6zM127 403v244
q-17 -5 -17 -38v-168q0 -33 17 -38zM267 289v-46q0 -6 -6 -6h-261q-6 0 -6 6v46q0 6 6 6h261q6 0 6 -6z" />
    <glyph glyph-name="sterling" unicode="&#xa3;" horiz-adv-x="596" 
d="M568 144q-19 -161 -222 -161q-19 0 -38.5 3.5t-38.5 8.5q-6 1 -29.5 6t-46.5 5q-21 0 -53 -4q-34 -4 -58 -4q-9 0 -19 1t-21 1q-6 0 -6 6v112q0 6 6 6q63 2 102.5 39.5t39.5 118.5q0 12 -1 18h-141q-6 0 -6 6v102q0 6 6 6h89q-29 56 -29 107q0 106 61 151t163 45
q91 0 150.5 -39.5t72.5 -121.5q0 -5 -5 -7l-146 -33q-6 0 -6 5q0 43 -17.5 62.5t-48.5 19.5q-29 0 -44.5 -18.5t-15.5 -63.5q0 -22 7.5 -47.5t21.5 -59.5h176q6 0 6 -6v-102q0 -6 -6 -6h-144q0 -142 -93 -198q27 7 47 7q16 0 36 -4q18 -4 29 -4q31 0 47.5 17t18.5 62
q0 4 4 4l6 -1l142 -32q4 -1 4 -7z" />
    <glyph glyph-name="currency" unicode="&#xa4;" horiz-adv-x="520" 
d="M260 487q45 0 86 -19l51 51q2 2 5 2q2 0 4 -2l80 -80q2 -2 2 -5q0 -2 -2 -4l-50 -50q20 -40 20 -87t-20 -87l50 -50q2 -2 2 -4q0 -3 -2 -5l-80 -80q-2 -2 -4 -2q-3 0 -5 2l-51 51q-41 -19 -86 -19t-86 19l-51 -51q-2 -2 -5 -2q-2 0 -4 2l-80 80q-2 2 -2 5q0 2 2 4l50 50
q-20 40 -20 87t20 87l-50 50q-2 2 -2 4q0 3 2 5l80 80q2 2 4 2q3 0 5 -2l51 -51q41 19 86 19zM195 225q25 -26 65 -26t65 26t25 68t-25 68t-65 26t-65 -26t-25 -68t25 -68z" />
    <glyph glyph-name="yen" unicode="&#xa5;" horiz-adv-x="561" 
d="M558 452v-68q0 -6 -6 -6h-154l-36 -85h104q6 0 6 -6v-68q0 -6 -6 -6h-104v-207q0 -6 -6 -6h-152q-6 0 -6 6v207h-103q-6 0 -6 6v68q0 6 6 6h103l-35 85h-154q-6 0 -6 6v68q0 6 6 6h120l-98 234l-1 4q0 4 6 4h155q6 0 7 -4l102 -264l105 264q1 4 6 4h111q7 0 7 -4l-1 -4
l-97 -234h121q6 0 6 -6z" />
    <glyph glyph-name="brokenbar" unicode="&#xa6;" horiz-adv-x="180" 
d="M125 410h-70q-6 0 -6 6v368q0 6 6 6h70q6 0 6 -6v-368q0 -6 -6 -6zM125 -90h-70q-6 0 -6 6v368q0 6 6 6h70q6 0 6 -6v-368q0 -6 -6 -6z" />
    <glyph glyph-name="section" unicode="&#xa7;" horiz-adv-x="503" 
d="M477 -3q0 -69 -31 -116t-83 -69.5t-114 -22.5q-98 0 -156.5 43.5t-67.5 118.5q0 6 4 7l147 34q5 0 5 -5q2 -46 18.5 -65t47.5 -19q66 0 66 84q0 41 -29 64t-87 48q-51 23 -81.5 41.5t-52 52t-21.5 84.5q0 82 48 130q-28 26 -42 54t-14 69q0 93 58.5 140t148.5 47
q86 0 141.5 -39t68.5 -121q0 -6 -5 -7l-138 -32q-6 0 -6 4q-2 41 -19 61t-42 20t-41 -15t-16 -42q0 -25 24 -42t74 -38q57 -25 94.5 -48t65 -64.5t27.5 -103.5q0 -74 -38 -125q46 -51 46 -128zM218 249.5q26 -17.5 84 -41.5q3 14 3 32q0 36 -23 58.5t-67 42.5
q-23 -16 -23 -48q0 -26 26 -43.5z" />
    <glyph glyph-name="dieresis" unicode="&#xa8;" horiz-adv-x="326" 
d="M125 594h-94q-6 0 -6 6v94q0 6 6 6h94q6 0 6 -6v-94q0 -6 -6 -6zM295 594h-94q-6 0 -6 6v94q0 6 6 6h94q6 0 6 -6v-94q0 -6 -6 -6z" />
    <glyph glyph-name="copyright" unicode="&#xa9;" horiz-adv-x="810" 
d="M590.5 668q83.5 -49 131.5 -133t48 -185t-48 -185t-131.5 -133t-185.5 -49t-185.5 49t-131.5 133t-48 185t48 185t131.5 133t185.5 49t185.5 -49zM562 73q71 42 112.5 115t41.5 162t-41.5 162t-112.5 115t-157 42t-157 -42t-112.5 -115t-41.5 -162t41.5 -162t112.5 -115
t157 -42t157 42zM533 234q-6 -46 -39.5 -67.5t-85.5 -21.5q-56 0 -91 25.5t-35 83.5v192q0 58 35 83.5t91 25.5q52 0 85.5 -21.5t39.5 -67.5q0 -3 -3 -5l-81 -19q-4 0 -4 4q0 24 -10 35.5t-27 11.5t-25.5 -11t-8.5 -37v-190q0 -26 8.5 -37t25.5 -11t27 11.5t10 35.5q0 4 4 4
l81 -19q3 -1 3 -5z" />
    <glyph glyph-name="ordfeminine" unicode="&#xaa;" horiz-adv-x="260" 
d="M6 356l92 339q2 5 7 5h49q7 0 8 -5l92 -339q0 -6 -6 -6h-71q-5 0 -7 5l-11 38h-80l-11 -38q-2 -5 -8 -5h-46q-8 0 -8 6zM144 451l-25 99l-25 -99h50zM-6 243v46q0 6 6 6h260q6 0 6 -6v-46q0 -6 -6 -6h-260q-6 0 -6 6z" />
    <glyph glyph-name="guillemotleft" unicode="&#xab;" horiz-adv-x="534" 
d="M291 227q5 -3 5 -8v-82q0 -3 -2 -3t-5 2l-255 177q-3 2 -3 4t3 4l255 177q3 2 5 2t2 -3v-82q0 -5 -5 -8l-135 -90zM503 227q5 -3 5 -8v-82q0 -3 -2 -3t-5 2l-255 177q-3 2 -3 4t3 4l255 177q3 2 5 2t2 -3v-82q0 -5 -5 -8l-135 -90z" />
    <glyph glyph-name="logicalnot" unicode="&#xac;" horiz-adv-x="512" 
d="M46 286q-6 0 -6 6v102q0 6 6 6h422q6 0 6 -6v-201q0 -6 -6 -6h-152q-6 0 -6 6v93h-264z" />
    <glyph glyph-name="uni00AD" unicode="&#xad;" horiz-adv-x="347" 
d="M44 390h259q6 0 6 -6v-68q0 -6 -6 -6h-259q-6 0 -6 6v68q0 6 6 6z" />
    <glyph glyph-name="registered" unicode="&#xae;" horiz-adv-x="810" 
d="M590.5 668q83.5 -49 131.5 -133t48 -185t-48 -185t-131.5 -133t-185.5 -49t-185.5 49t-131.5 133t-48 185t48 185t131.5 133t185.5 49t185.5 -49zM562 73q71 42 112.5 115t41.5 162t-41.5 162t-112.5 115t-157 42t-157 -42t-112.5 -115t-41.5 -162t41.5 -162t112.5 -115
t157 -42t157 42zM542 157q0 -3 -5 -3h-84q-4 0 -6 5l-53 170h-10v-169q0 -6 -6 -6h-80q-6 0 -6 6v380q0 6 6 6h121q49 0 77 -27.5t28 -81.5q0 -67 -49 -94l66 -181zM423.5 401.5q8.5 10.5 8.5 35.5q0 26 -8.5 36.5t-24.5 10.5h-15v-93h15q16 0 24.5 10.5z" />
    <glyph glyph-name="macron" unicode="&#xaf;" horiz-adv-x="286" 
d="M250 624h-214q-6 0 -6 6v64q0 6 6 6h214q6 0 6 -6v-64q0 -6 -6 -6z" />
    <glyph glyph-name="degree" unicode="&#xb0;" horiz-adv-x="312" 
d="M64.5 500q-35.5 37 -35.5 90t35.5 90t91.5 37t91.5 -37t35.5 -90t-35.5 -90t-91.5 -37t-91.5 37zM106 540.5q19 -19.5 50 -19.5t50 19.5t19 49.5t-19 49.5t-50 19.5t-50 -19.5t-19 -49.5t19 -49.5z" />
    <glyph glyph-name="plusminus" unicode="&#xb1;" horiz-adv-x="428" 
d="M254 500v-130h130q6 0 6 -6v-68q0 -6 -6 -6h-130v-130q0 -6 -6 -6h-68q-6 0 -6 6v130h-130q-6 0 -6 6v68q0 6 6 6h130v130q0 6 6 6h68q6 0 6 -6zM390 74v-68q0 -6 -6 -6h-340q-6 0 -6 6v68q0 6 6 6h340q6 0 6 -6z" />
    <glyph glyph-name="uni00B2" unicode="&#xb2;" horiz-adv-x="274" 
d="M27 351.5q-2 1.5 -2 4.5q1 49 23.5 85t63.5 78q28 30 41.5 49.5t13.5 39.5q0 39 -31 39q-15 0 -24 -10.5t-9 -26.5q0 -5 -5 -5l-67 16q-5 2 -5 6q3 40 35 59t75 19q48 0 79.5 -23.5t31.5 -73.5q0 -34 -17.5 -60t-53.5 -66q-38 -38 -55 -67h120q6 0 6 -7v-52q0 -6 -6 -6
h-210q-2 0 -4 1.5zM-6 243v46q0 6 6 6h274q6 0 6 -6v-46q0 -6 -6 -6h-274q-6 0 -6 6z" />
    <glyph glyph-name="uni00B3" unicode="&#xb3;" horiz-adv-x="279" 
d="M69.5 362.5q-31.5 17.5 -36.5 59.5q0 6 4 6l67 15q6 0 6 -5q0 -35 33 -35q30 0 30 38v16q0 39 -30 39h-28q-6 0 -6 6v46q0 6 6 6h25q17 0 25 8.5t8 30.5v16q0 22 -8 30t-22 8q-15 0 -23.5 -8t-9.5 -28q0 -6 -6 -6l-68 17q-3 2 -3 6q5 43 36 60t74 17q110 0 110 -96v-16
q0 -26 -11.5 -43.5t-31.5 -24.5q43 -21 43 -68v-16q0 -54 -32 -75t-78 -21q-42 0 -73.5 17.5zM-6 243v46q0 6 6 6h279q6 0 6 -6v-46q0 -6 -6 -6h-279q-6 0 -6 6z" />
    <glyph glyph-name="acute" unicode="&#xb4;" horiz-adv-x="228" 
d="M193 696l-1 -4l-80 -150q-2 -5 -9 -5h-61q-4 0 -4 4l1 4l50 150q2 5 7 5h92q5 0 5 -4z" />
    <glyph glyph-name="uni00B5" unicode="&#xb5;" horiz-adv-x="538" 
d="M340 500h152q6 0 6 -6v-317q0 -108 -65 -151t-159 -43q-41 0 -76 7v-194q0 -6 -6 -6h-136q-6 0 -6 6v698q0 6 6 6h152q6 0 6 -6v-317q0 -45 15 -62.5t45 -17.5t45 17.5t15 62.5v317q0 6 6 6z" />
    <glyph glyph-name="paragraph" unicode="&#xb6;" horiz-adv-x="699" 
d="M673 694v-102q0 -6 -6 -6h-53v-715q0 -6 -6 -6h-152q-6 0 -6 6v715h-82v-715q0 -6 -6 -6h-152q-6 0 -6 6v479q-48 0 -88 23.5t-63 63.5t-23 88t23 88t63 63.5t88 23.5h463q6 0 6 -6z" />
    <glyph glyph-name="periodcentered" unicode="&#xb7;" horiz-adv-x="213" 
d="M156 300h-114q-6 0 -6 6v114q0 6 6 6h114q6 0 6 -6v-114q0 -6 -6 -6z" />
    <glyph glyph-name="cedilla" unicode="&#xb8;" horiz-adv-x="257" 
d="M200.5 -73q38.5 -22 38.5 -72q0 -39 -31.5 -64t-80.5 -25q-29 0 -58 6t-49 14q-5 2 -5 7v36q0 5 5 5q5 -1 28 -5.5t49 -4.5q27 0 45 11t18 32q0 43 -51 43q-24 0 -36 -6q-4 -2 -5 -2q-3 0 -5 2l-26 21q-2 2 -2 4q0 3 2 5l79 101q2 2 3 2l4 -1l26 -20q3 -2 3 -4t-2 -4
l-46 -59q58 0 96.5 -22z" />
    <glyph glyph-name="uni00B9" unicode="&#xb9;" horiz-adv-x="158" 
d="M38 356v299q0 6 4 10l32 31q4 4 8 4h32q6 0 6 -6v-338q0 -6 -6 -6h-70q-6 0 -6 6zM-6 243v46q0 6 6 6h158q6 0 6 -6v-46q0 -6 -6 -6h-158q-6 0 -6 6z" />
    <glyph glyph-name="ordmasculine" unicode="&#xba;" horiz-adv-x="274" 
d="M57.5 366q-32.5 21 -32.5 76v166q0 55 32.5 76t79.5 21t79.5 -21t32.5 -76v-166q0 -55 -32.5 -76t-79.5 -21t-79.5 21zM159.5 411.5q7.5 8.5 7.5 30.5v166q0 22 -7.5 30.5t-22.5 8.5t-22.5 -8.5t-7.5 -30.5v-166q0 -22 7.5 -30.5t22.5 -8.5t22.5 8.5zM-6 243v46q0 6 6 6
h274q6 0 6 -6v-46q0 -6 -6 -6h-274q-6 0 -6 6z" />
    <glyph glyph-name="guillemotright" unicode="&#xbb;" horiz-adv-x="534" 
d="M26 415v82q0 3 2 3t5 -2l255 -177q3 -2 3 -4t-3 -4l-255 -177q-3 -2 -5 -2t-2 3v82q0 5 5 8l135 90l-135 90q-5 3 -5 8zM238 415v82q0 3 2 3t5 -2l255 -177q3 -2 3 -4t-3 -4l-255 -177q-3 -2 -5 -2t-2 3v82q0 5 5 8l135 90l-135 90q-5 3 -5 8z" />
    <glyph glyph-name="onequarter" unicode="&#xbc;" horiz-adv-x="660" 
d="M84 -15l-52 35q-2 2 -2 4l1 4l462 686q3 3 5 3t6 -2l52 -35q2 -2 2 -4l-1 -4l-462 -686q-3 -3 -5 -3t-6 2zM57 356v299q0 6 4 10l32 31q4 4 8 4h32q6 0 6 -6v-338q0 -6 -6 -6h-70q-6 0 -6 6zM450 6v60h-133q-6 0 -6 6v35q0 4 3 10l134 227q4 6 8 6h65q6 0 6 -6v-220h30
q6 0 6 -6v-46q0 -6 -6 -6h-30v-60q0 -6 -6 -6h-65q-6 0 -6 6zM450 124v111l-65 -111h65z" />
    <glyph glyph-name="onehalf" unicode="&#xbd;" horiz-adv-x="686" 
d="M70 -15l-52 35q-2 2 -2 4l1 4l462 686q3 3 5 3t6 -2l52 -35q2 -2 2 -4l-1 -4l-462 -686q-3 -3 -5 -3t-6 2zM43 356v299q0 6 4 10l32 31q4 4 8 4h32q6 0 6 -6v-338q0 -6 -6 -6h-70q-6 0 -6 6zM375 1.5q-2 1.5 -2 4.5q1 49 23.5 85t63.5 78q28 30 41.5 49.5t13.5 39.5
q0 39 -31 39q-15 0 -24 -10.5t-9 -26.5q0 -5 -5 -5l-67 16q-5 2 -5 6q3 40 35 59t75 19q48 0 79.5 -23.5t31.5 -73.5q0 -34 -17.5 -60t-53.5 -66q-38 -38 -55 -67h120q6 0 6 -7v-52q0 -6 -6 -6h-210q-2 0 -4 1.5z" />
    <glyph glyph-name="threequarters" unicode="&#xbe;" horiz-adv-x="660" 
d="M153 -15l-52 35q-2 2 -2 4l1 4l462 686q3 3 5 3t6 -2l52 -35q2 -2 2 -4l-1 -4l-462 -686q-3 -3 -5 -3t-6 2zM69.5 362.5q-31.5 17.5 -36.5 59.5q0 6 4 6l67 15q6 0 6 -5q0 -35 33 -35q30 0 30 38v16q0 39 -30 39h-28q-6 0 -6 6v46q0 6 6 6h25q17 0 25 8.5t8 30.5v16
q0 22 -8 30t-22 8q-15 0 -23.5 -8t-9.5 -28q0 -6 -6 -6l-68 17q-3 2 -3 6q5 43 36 60t74 17q110 0 110 -96v-16q0 -26 -11.5 -43.5t-31.5 -24.5q43 -21 43 -68v-16q0 -54 -32 -75t-78 -21q-42 0 -73.5 17.5zM519 6v60h-133q-6 0 -6 6v35q0 4 3 10l134 227q4 6 8 6h65
q6 0 6 -6v-220h30q6 0 6 -6v-46q0 -6 -6 -6h-30v-60q0 -6 -6 -6h-65q-6 0 -6 6zM519 124v111l-65 -111h65z" />
    <glyph glyph-name="questiondown" unicode="&#xbf;" horiz-adv-x="521" 
d="M233 517h114q6 0 6 -6v-114q0 -6 -6 -6h-114q-6 0 -6 6v114q0 6 6 6zM416 -161.5q-63 -38.5 -150 -38.5q-97 0 -161 48t-64 148q0 43 14.5 76t35.5 56t55 53q41 37 61 63t20 63v17q0 6 6 6h114q6 0 6 -6v-23q0 -50 -12 -84.5t-28.5 -55.5t-43.5 -45q-33 -30 -48.5 -54.5
t-15.5 -65.5q0 -82 61 -82q31 0 48 19t18 64q0 5 6 5l146 -33q5 -1 5 -8q-10 -84 -73 -122.5z" />
    <glyph glyph-name="Agrave" unicode="&#xc0;" horiz-adv-x="511" 
d="M8 6l184 690q1 4 5 4h117q5 0 6 -4l183 -690q0 -6 -6 -6h-155q-5 0 -6 4l-23 85h-160l-23 -85q-1 -4 -6 -4h-109q-7 0 -7 6zM283 203l-50 197l-50 -197h100zM233 742l-80 150l-1 4q0 4 5 4h92q5 0 7 -5l50 -150l1 -4q0 -4 -4 -4h-61q-7 0 -9 5z" />
    <glyph glyph-name="Aacute" unicode="&#xc1;" horiz-adv-x="511" 
d="M8 6l184 690q1 4 5 4h117q5 0 6 -4l183 -690q0 -6 -6 -6h-155q-5 0 -6 4l-23 85h-160l-23 -85q-1 -4 -6 -4h-109q-7 0 -7 6zM283 203l-50 197l-50 -197h100zM360 896l-1 -4l-80 -150q-3 -5 -9 -5h-61q-4 0 -4 4l1 4l50 150q2 5 7 5h92q5 0 5 -4z" />
    <glyph glyph-name="Acircumflex" unicode="&#xc2;" horiz-adv-x="511" 
d="M8 6l184 690q1 4 5 4h117q5 0 6 -4l183 -690q0 -6 -6 -6h-155q-5 0 -6 4l-23 85h-160l-23 -85q-1 -4 -6 -4h-109q-7 0 -7 6zM283 203l-50 197l-50 -197h100zM136 803q44 0 62 23t18 49q0 5 5 5h70q5 0 5 -5q0 -26 18 -49t62 -23q5 0 5 -5v-23q0 -5 -5 -7q-19 -7 -39 -7
q-21 0 -39.5 8.5t-37.5 27.5q-2 2 -4 2t-4 -2q-19 -19 -37.5 -27.5t-39.5 -8.5q-20 0 -39 7q-5 2 -5 7v23q0 5 5 5z" />
    <glyph glyph-name="Atilde" unicode="&#xc3;" horiz-adv-x="511" 
d="M8 6l184 690q1 4 5 4h117q5 0 6 -4l183 -690q0 -6 -6 -6h-155q-5 0 -6 4l-23 85h-160l-23 -85q-1 -4 -6 -4h-109q-7 0 -7 6zM283 203l-50 197l-50 -197h100zM281.5 764q-15.5 8 -32.5 22q-13 11 -22 16t-20 5q-13 0 -21 -11t-8 -32q0 -6 -6 -6h-34q-6 0 -8 6q-8 26 -8 43
q0 30 17 47.5t44 17.5q18 0 30 -5.5t32 -17.5q16 -11 28 -16.5t28 -5.5q34 0 34 37q0 6 6 6h34q3 0 4.5 -1.5t2.5 -4.5q8 -21 8 -42q0 -31 -19 -48.5t-51 -17.5q-23 0 -38.5 8z" />
    <glyph glyph-name="Adieresis" unicode="&#xc4;" horiz-adv-x="511" 
d="M8 6l184 690q1 4 5 4h117q5 0 6 -4l183 -690q0 -6 -6 -6h-155q-5 0 -6 4l-23 85h-160l-23 -85q-1 -4 -6 -4h-109q-7 0 -7 6zM283 203l-50 197l-50 -197h100zM218 794h-94q-6 0 -6 6v94q0 6 6 6h94q6 0 6 -6v-94q0 -6 -6 -6zM388 794h-94q-6 0 -6 6v94q0 6 6 6h94
q6 0 6 -6v-94q0 -6 -6 -6z" />
    <glyph glyph-name="Aring" unicode="&#xc5;" horiz-adv-x="511" 
d="M8 6l184 690q1 4 5 4h117q5 0 6 -4l183 -690q0 -6 -6 -6h-155q-5 0 -6 4l-23 85h-160l-23 -85q-1 -4 -6 -4h-109q-7 0 -7 6zM283 203l-50 197l-50 -197h100zM185.5 763.5q-28.5 28.5 -28.5 70.5t28.5 70.5t70.5 28.5t70.5 -28.5t28.5 -70.5t-28.5 -70.5t-70.5 -28.5
t-70.5 28.5zM305 785q19 19 19 49t-19 49t-49 19t-49 -19t-19 -49t19 -49t49 -19t49 19z" />
    <glyph glyph-name="AE" unicode="&#xc6;" horiz-adv-x="705" 
d="M8 6l204 689q2 5 8 5h443q6 0 6 -6v-102q0 -6 -6 -6h-214v-146h186q6 0 6 -6v-102q0 -6 -6 -6h-186v-212h214q6 0 6 -6v-102q0 -6 -6 -6h-372q-6 0 -6 6v83h-108l-22 -82q-2 -7 -11 -7h-129q-7 0 -7 6zM285 203v282l-78 -282h78z" />
    <glyph glyph-name="Ccedilla" unicode="&#xc7;" horiz-adv-x="513" 
d="M485 144q-11 -88 -72 -124t-147 -37l-27 -34q58 0 96.5 -22t38.5 -72q0 -39 -31.5 -64t-80.5 -25q-29 0 -58 6t-49 14q-5 2 -5 7v36q0 5 5 5q5 -1 28 -5.5t49 -4.5q27 0 45 11t18 32q0 43 -51 43q-24 0 -36 -6q-4 -2 -5 -2q-3 0 -5 2l-26 21q-2 2 -2 4q0 3 2 5l41 52
q-79 9 -127 54.5t-48 138.5v342q0 107 63 151.5t161 44.5q87 0 149.5 -36t73.5 -125q0 -6 -5 -7l-146 -34q-6 0 -6 5q0 83 -66 83q-29 0 -44.5 -18.5t-15.5 -63.5v-342q0 -45 15.5 -63.5t44.5 -18.5q66 0 66 83q0 5 6 5l146 -34q5 -1 5 -7z" />
    <glyph glyph-name="Egrave" unicode="&#xc8;" horiz-adv-x="470" 
d="M50 6v688q0 6 6 6h372q6 0 6 -6v-102q0 -6 -6 -6h-214v-146h186q6 0 6 -6v-102q0 -6 -6 -6h-186v-212h214q6 0 6 -6v-102q0 -6 -6 -6h-372q-6 0 -6 6zM214 742l-80 150l-1 4q0 4 5 4h92q5 0 7 -5l50 -150l1 -4q0 -4 -4 -4h-61q-7 0 -9 5z" />
    <glyph glyph-name="Eacute" unicode="&#xc9;" horiz-adv-x="470" 
d="M50 6v688q0 6 6 6h372q6 0 6 -6v-102q0 -6 -6 -6h-214v-146h186q6 0 6 -6v-102q0 -6 -6 -6h-186v-212h214q6 0 6 -6v-102q0 -6 -6 -6h-372q-6 0 -6 6zM341 896l-1 -4l-80 -150q-3 -5 -9 -5h-61q-4 0 -4 4l1 4l50 150q2 5 7 5h92q5 0 5 -4z" />
    <glyph glyph-name="Ecircumflex" unicode="&#xca;" horiz-adv-x="470" 
d="M50 6v688q0 6 6 6h372q6 0 6 -6v-102q0 -6 -6 -6h-214v-146h186q6 0 6 -6v-102q0 -6 -6 -6h-186v-212h214q6 0 6 -6v-102q0 -6 -6 -6h-372q-6 0 -6 6zM117 803q44 0 62 23t18 49q0 5 5 5h70q5 0 5 -5q0 -26 18 -49t62 -23q5 0 5 -5v-23q0 -5 -5 -7q-19 -7 -39 -7
q-21 0 -39.5 8.5t-37.5 27.5q-2 2 -4 2t-4 -2q-19 -19 -37.5 -27.5t-39.5 -8.5q-20 0 -39 7q-5 2 -5 7v23q0 5 5 5z" />
    <glyph glyph-name="Edieresis" unicode="&#xcb;" horiz-adv-x="470" 
d="M50 6v688q0 6 6 6h372q6 0 6 -6v-102q0 -6 -6 -6h-214v-146h186q6 0 6 -6v-102q0 -6 -6 -6h-186v-212h214q6 0 6 -6v-102q0 -6 -6 -6h-372q-6 0 -6 6zM199 794h-94q-6 0 -6 6v94q0 6 6 6h94q6 0 6 -6v-94q0 -6 -6 -6zM369 794h-94q-6 0 -6 6v94q0 6 6 6h94q6 0 6 -6v-94
q0 -6 -6 -6z" />
    <glyph glyph-name="Igrave" unicode="&#xcc;" horiz-adv-x="264" 
d="M50 6v688q0 6 6 6h152q6 0 6 -6v-688q0 -6 -6 -6h-152q-6 0 -6 6zM109 742l-80 150l-1 4q0 4 5 4h92q5 0 7 -5l50 -150l1 -4q0 -4 -4 -4h-61q-7 0 -9 5z" />
    <glyph glyph-name="Iacute" unicode="&#xcd;" horiz-adv-x="264" 
d="M50 6v688q0 6 6 6h152q6 0 6 -6v-688q0 -6 -6 -6h-152q-6 0 -6 6zM236 896l-1 -4l-80 -150q-3 -5 -9 -5h-61q-4 0 -4 4l1 4l50 150q2 5 7 5h92q5 0 5 -4z" />
    <glyph glyph-name="Icircumflex" unicode="&#xce;" horiz-adv-x="264" 
d="M50 6v688q0 6 6 6h152q6 0 6 -6v-688q0 -6 -6 -6h-152q-6 0 -6 6zM12 803q44 0 62 23t18 49q0 5 5 5h70q5 0 5 -5q0 -26 18 -49t62 -23q5 0 5 -5v-23q0 -5 -5 -7q-19 -7 -39 -7q-21 0 -39.5 8.5t-37.5 27.5q-2 2 -4 2t-4 -2q-19 -19 -37.5 -27.5t-39.5 -8.5q-20 0 -39 7
q-5 2 -5 7v23q0 5 5 5z" />
    <glyph glyph-name="Idieresis" unicode="&#xcf;" horiz-adv-x="264" 
d="M50 6v688q0 6 6 6h152q6 0 6 -6v-688q0 -6 -6 -6h-152q-6 0 -6 6zM94 794h-94q-6 0 -6 6v94q0 6 6 6h94q6 0 6 -6v-94q0 -6 -6 -6zM264 794h-94q-6 0 -6 6v94q0 6 6 6h94q6 0 6 -6v-94q0 -6 -6 -6z" />
    <glyph glyph-name="Eth" unicode="&#xd0;" horiz-adv-x="521" 
d="M50 6v304h-47q-6 0 -6 6v68q0 6 6 6h47v304q0 6 6 6h197q224 0 224 -194v-312q0 -194 -224 -194h-197q-6 0 -6 6zM253 114q30 0 45 17.5t15 62.5v312q0 45 -15 62.5t-45 17.5h-39v-196h28q6 0 6 -6v-68q0 -6 -6 -6h-28v-196h39z" />
    <glyph glyph-name="Ntilde" unicode="&#xd1;" horiz-adv-x="502" 
d="M50 6v688q0 6 6 6h115q6 0 8 -5l151 -312v311q0 6 6 6h110q6 0 6 -6v-688q0 -6 -6 -6h-116q-5 0 -8 5l-150 312v-311q0 -6 -6 -6h-110q-6 0 -6 6zM276.5 764q-15.5 8 -32.5 22q-13 11 -22 16t-20 5q-13 0 -21 -11t-8 -32q0 -6 -6 -6h-34q-6 0 -8 6q-8 26 -8 43
q0 30 17 47.5t44 17.5q18 0 30 -5.5t32 -17.5q16 -11 28 -16.5t28 -5.5q34 0 34 37q0 6 6 6h34q3 0 4.5 -1.5t2.5 -4.5q8 -21 8 -42q0 -31 -19 -48.5t-51 -17.5q-23 0 -38.5 8z" />
    <glyph glyph-name="Ograve" unicode="&#xd2;" horiz-adv-x="524" 
d="M103 26q-65 43 -65 151v346q0 108 65 151t159 43t159 -43t65 -151v-346q0 -108 -65 -151t-159 -43t-159 43zM307 114.5q15 17.5 15 62.5v346q0 45 -15 62.5t-45 17.5t-45 -17.5t-15 -62.5v-346q0 -45 15.5 -62.5t44.5 -17.5q30 0 45 17.5zM239 742l-80 150l-1 4q0 4 5 4
h92q5 0 7 -5l50 -150l1 -4q0 -4 -4 -4h-61q-7 0 -9 5z" />
    <glyph glyph-name="Oacute" unicode="&#xd3;" horiz-adv-x="524" 
d="M103 26q-65 43 -65 151v346q0 108 65 151t159 43t159 -43t65 -151v-346q0 -108 -65 -151t-159 -43t-159 43zM307 114.5q15 17.5 15 62.5v346q0 45 -15 62.5t-45 17.5t-45 -17.5t-15 -62.5v-346q0 -45 15.5 -62.5t44.5 -17.5q30 0 45 17.5zM366 896l-1 -4l-80 -150
q-3 -5 -9 -5h-61q-4 0 -4 4l1 4l50 150q2 5 7 5h92q5 0 5 -4z" />
    <glyph glyph-name="Ocircumflex" unicode="&#xd4;" horiz-adv-x="524" 
d="M103 26q-65 43 -65 151v346q0 108 65 151t159 43t159 -43t65 -151v-346q0 -108 -65 -151t-159 -43t-159 43zM307 114.5q15 17.5 15 62.5v346q0 45 -15 62.5t-45 17.5t-45 -17.5t-15 -62.5v-346q0 -45 15.5 -62.5t44.5 -17.5q30 0 45 17.5zM142 803q44 0 62 23t18 49
q0 5 5 5h70q5 0 5 -5q0 -26 18 -49t62 -23q5 0 5 -5v-23q0 -5 -5 -7q-19 -7 -39 -7q-21 0 -39.5 8.5t-37.5 27.5q-2 2 -4 2t-4 -2q-19 -19 -37.5 -27.5t-39.5 -8.5q-20 0 -39 7q-5 2 -5 7v23q0 5 5 5z" />
    <glyph glyph-name="Otilde" unicode="&#xd5;" horiz-adv-x="524" 
d="M103 26q-65 43 -65 151v346q0 108 65 151t159 43t159 -43t65 -151v-346q0 -108 -65 -151t-159 -43t-159 43zM307 114.5q15 17.5 15 62.5v346q0 45 -15 62.5t-45 17.5t-45 -17.5t-15 -62.5v-346q0 -45 15.5 -62.5t44.5 -17.5q30 0 45 17.5zM287.5 764q-15.5 8 -32.5 22
q-13 11 -22 16t-20 5q-13 0 -21 -11t-8 -32q0 -6 -6 -6h-34q-6 0 -8 6q-8 26 -8 43q0 30 17 47.5t44 17.5q18 0 30 -5.5t32 -17.5q16 -11 28 -16.5t28 -5.5q34 0 34 37q0 6 6 6h34q3 0 4.5 -1.5t2.5 -4.5q8 -21 8 -42q0 -31 -19 -48.5t-51 -17.5q-23 0 -38.5 8z" />
    <glyph glyph-name="Odieresis" unicode="&#xd6;" horiz-adv-x="524" 
d="M103 26q-65 43 -65 151v346q0 108 65 151t159 43t159 -43t65 -151v-346q0 -108 -65 -151t-159 -43t-159 43zM307 114.5q15 17.5 15 62.5v346q0 45 -15 62.5t-45 17.5t-45 -17.5t-15 -62.5v-346q0 -45 15.5 -62.5t44.5 -17.5q30 0 45 17.5zM224 794h-94q-6 0 -6 6v94
q0 6 6 6h94q6 0 6 -6v-94q0 -6 -6 -6zM394 794h-94q-6 0 -6 6v94q0 6 6 6h94q6 0 6 -6v-94q0 -6 -6 -6z" />
    <glyph glyph-name="multiply" unicode="&#xd7;" horiz-adv-x="360" 
d="M316 412l-2 -4l-77 -78l77 -78l2 -4q0 -2 -2 -4l-48 -48q-2 -2 -4 -2t-4 2l-78 77l-78 -77q-2 -2 -4 -2t-4 2l-48 48q-2 2 -2 4l2 4l77 78l-77 78l-2 4q0 2 2 4l48 48q2 2 4 2t4 -2l78 -77l78 77q2 2 4 2t4 -2l48 -48q2 -2 2 -4z" />
    <glyph glyph-name="Oslash" unicode="&#xd8;" horiz-adv-x="524" 
d="M88 41l-26 -40q-3 -5 -8 -5q-3 0 -7 3l-12 8q-6 5 -6 9q0 2 2 6l33 51q-24 42 -24 104v346q0 108 65 151t159 43q118 0 176 -59l26 41q3 5 8 5q2 0 7 -3l12 -8q6 -4 6 -9q0 -2 -2 -6l-33 -51q24 -43 24 -104v-346q0 -108 -65 -151t-159 -43q-118 0 -176 58zM324 478v45
q0 45 -15.5 62.5t-44.5 17.5t-44.5 -17.5t-15.5 -62.5v-232zM309 114.5q15 17.5 15 62.5v232l-120 -187v-45q0 -45 15.5 -62.5t44.5 -17.5q30 0 45 17.5z" />
    <glyph glyph-name="Ugrave" unicode="&#xd9;" horiz-adv-x="491" 
d="M46 160v534q0 6 6 6h152q6 0 6 -6v-516q0 -45 15 -63t44 -18t44.5 18t15.5 63v516q0 6 6 6h114q6 0 6 -6v-534q0 -97 -57 -137t-147 -40q-205 0 -205 177zM246 742l-80 150l-1 4q0 4 5 4h92q5 0 7 -5l50 -150l1 -4q0 -4 -4 -4h-61q-7 0 -9 5z" />
    <glyph glyph-name="Uacute" unicode="&#xda;" horiz-adv-x="491" 
d="M46 160v534q0 6 6 6h152q6 0 6 -6v-516q0 -45 15 -63t44 -18t44.5 18t15.5 63v516q0 6 6 6h114q6 0 6 -6v-534q0 -97 -57 -137t-147 -40q-205 0 -205 177zM373 896l-1 -4l-80 -150q-3 -5 -9 -5h-61q-4 0 -4 4l1 4l50 150q2 5 7 5h92q5 0 5 -4z" />
    <glyph glyph-name="Ucircumflex" unicode="&#xdb;" horiz-adv-x="491" 
d="M46 160v534q0 6 6 6h152q6 0 6 -6v-516q0 -45 15 -63t44 -18t44.5 18t15.5 63v516q0 6 6 6h114q6 0 6 -6v-534q0 -97 -57 -137t-147 -40q-205 0 -205 177zM149 803q44 0 62 23t18 49q0 5 5 5h70q5 0 5 -5q0 -26 18 -49t62 -23q5 0 5 -5v-23q0 -5 -5 -7q-19 -7 -39 -7
q-21 0 -39.5 8.5t-37.5 27.5q-2 2 -4 2t-4 -2q-19 -19 -37.5 -27.5t-39.5 -8.5q-20 0 -39 7q-5 2 -5 7v23q0 5 5 5z" />
    <glyph glyph-name="Udieresis" unicode="&#xdc;" horiz-adv-x="491" 
d="M46 160v534q0 6 6 6h152q6 0 6 -6v-516q0 -45 15 -63t44 -18t44.5 18t15.5 63v516q0 6 6 6h114q6 0 6 -6v-534q0 -97 -57 -137t-147 -40q-205 0 -205 177zM231 794h-94q-6 0 -6 6v94q0 6 6 6h94q6 0 6 -6v-94q0 -6 -6 -6zM401 794h-94q-6 0 -6 6v94q0 6 6 6h94q6 0 6 -6
v-94q0 -6 -6 -6z" />
    <glyph glyph-name="Yacute" unicode="&#xdd;" horiz-adv-x="517" 
d="M175 6v287l-167 399l-1 4q0 4 6 4h155q6 0 7 -4l102 -264l105 264q1 4 6 4h111q7 0 7 -4l-1 -4l-166 -399v-287q0 -6 -6 -6h-152q-6 0 -6 6zM386 896l-1 -4l-80 -150q-3 -5 -9 -5h-61q-4 0 -4 4l1 4l50 150q2 5 7 5h92q5 0 5 -4z" />
    <glyph glyph-name="Thorn" unicode="&#xde;" horiz-adv-x="501" 
d="M50 6v688q0 6 6 6h152q6 0 6 -6v-87h85q81 0 130 -43t49 -126v-176q0 -83 -49 -126t-130 -43h-85v-87q0 -6 -6 -6h-152q-6 0 -6 6zM274 207q25 0 37.5 17t12.5 57v138q0 40 -12.5 57t-37.5 17h-60v-286h60z" />
    <glyph glyph-name="germandbls" unicode="&#xdf;" horiz-adv-x="270" 
d="M34 356v253q0 46 27 68.5t64 22.5h123q6 0 6 -6v-44q0 -4 -4 -12l-44 -77q28 -12 39.5 -32.5t11.5 -58.5v-32q0 -45 -28.5 -66.5t-76.5 -21.5h-5q-6 0 -6 6v45q0 6 6 6h3q25 0 25 40v26q0 23 -7 31.5t-22 8.5h-2q-3 0 -3 3v47q0 4 3 10l40 69h-43q-12 0 -18.5 -8
t-6.5 -28v-250q0 -6 -6 -6h-70q-6 0 -6 6zM-6 243v46q0 6 6 6h270q6 0 6 -6v-46q0 -6 -6 -6h-270q-6 0 -6 6z" />
    <glyph glyph-name="agrave" unicode="&#xe0;" horiz-adv-x="260" 
d="M6 356l92 339q2 5 7 5h49q7 0 8 -5l92 -339q0 -6 -6 -6h-71q-5 0 -7 5l-11 38h-80l-11 -38q-2 -5 -8 -5h-46q-8 0 -8 6zM144 451l-25 99l-25 -99h50zM-6 243v46q0 6 6 6h260q6 0 6 -6v-46q0 -6 -6 -6h-260q-6 0 -6 6zM95 754l-63 111q-1 3 0 5t4 2h72q5 0 6 -4l37 -111
q1 -3 -0.5 -5t-4.5 -2h-44q-4 0 -7 4z" />
    <glyph glyph-name="aacute" unicode="&#xe1;" horiz-adv-x="260" 
d="M6 356l92 339q2 5 7 5h49q7 0 8 -5l92 -339q0 -6 -6 -6h-71q-5 0 -7 5l-11 38h-80l-11 -38q-2 -5 -8 -5h-46q-8 0 -8 6zM144 451l-25 99l-25 -99h50zM-6 243v46q0 6 6 6h260q6 0 6 -6v-46q0 -6 -6 -6h-260q-6 0 -6 6zM210 870q1 -2 0 -5l-63 -111q-3 -4 -7 -4h-44
q-3 0 -4.5 2t-0.5 5l37 111q1 4 6 4h72q3 0 4 -2z" />
    <glyph glyph-name="acircumflex" unicode="&#xe2;" horiz-adv-x="260" 
d="M6 356l92 339q2 5 7 5h49q7 0 8 -5l92 -339q0 -6 -6 -6h-71q-5 0 -7 5l-11 38h-80l-11 -38q-2 -5 -8 -5h-46q-8 0 -8 6zM144 451l-25 99l-25 -99h50zM-6 243v46q0 6 6 6h260q6 0 6 -6v-46q0 -6 -6 -6h-260q-6 0 -6 6zM40 777q32 0 46 17.5t14 36.5q0 4 4 4h52q4 0 4 -4
q0 -19 13.5 -36.5t46.5 -17.5q4 0 4 -3v-18q0 -3 -4 -5q-10 -5 -29 -5q-16 0 -29.5 6t-28.5 21q-1 1 -3 1t-3 -1q-15 -15 -28.5 -21t-29.5 -6q-19 0 -29 5q-4 2 -4 5v18q0 3 4 3z" />
    <glyph glyph-name="atilde" unicode="&#xe3;" horiz-adv-x="260" 
d="M6 356l92 339q2 5 7 5h49q7 0 8 -5l92 -339q0 -6 -6 -6h-71q-5 0 -7 5l-11 38h-80l-11 -38q-2 -5 -8 -5h-46q-8 0 -8 6zM144 451l-25 99l-25 -99h50zM-6 243v46q0 6 6 6h260q6 0 6 -6v-46q0 -6 -6 -6h-260q-6 0 -6 6zM149 751q-12 6 -25 17q-10 8 -16.5 11.5t-14.5 3.5
q-10 0 -16 -8.5t-6 -23.5q0 -5 -4 -5h-26q-4 0 -6 5q-6 18 -6 32q0 23 13 36t33 13q13 0 23 -4.5t23 -13.5q14 -8 22.5 -12t20.5 -4q25 0 25 28q0 4 5 4h25q5 0 6 -4q6 -18 6 -32q0 -23 -14.5 -36t-38.5 -13q-17 0 -29 6z" />
    <glyph glyph-name="adieresis" unicode="&#xe4;" horiz-adv-x="260" 
d="M6 356l92 339q2 5 7 5h49q7 0 8 -5l92 -339q0 -6 -6 -6h-71q-5 0 -7 5l-11 38h-80l-11 -38q-2 -5 -8 -5h-46q-8 0 -8 6zM144 451l-25 99l-25 -99h50zM-6 243v46q0 6 6 6h260q6 0 6 -6v-46q0 -6 -6 -6h-260q-6 0 -6 6zM28 828q2 2 4 2h68q2 0 4 -2t2 -4v-68q0 -2 -2 -4
t-4 -2h-68q-2 0 -4 2t-2 4v68q0 2 2 4zM156 828q2 2 4 2h68q2 0 4 -2t2 -4v-68q0 -2 -2 -4t-4 -2h-68q-2 0 -4 2t-2 4v68q0 2 2 4z" />
    <glyph glyph-name="aring" unicode="&#xe5;" horiz-adv-x="260" 
d="M6 356l92 339q2 5 7 5h49q7 0 8 -5l92 -339q0 -6 -6 -6h-71q-5 0 -7 5l-11 38h-80l-11 -38q-2 -5 -8 -5h-46q-8 0 -8 6zM144 451l-25 99l-25 -99h50zM-6 243v46q0 6 6 6h260q6 0 6 -6v-46q0 -6 -6 -6h-260q-6 0 -6 6zM77 767q-22 22 -22 53t22 53t53 22t53 -22t22 -53
t-22 -53t-53 -22t-53 22zM166.5 783.5q14.5 14.5 14.5 36.5t-14.5 36.5t-36.5 14.5t-36.5 -14.5t-14.5 -36.5t14.5 -36.5t36.5 -14.5t36.5 14.5z" />
    <glyph glyph-name="ae" unicode="&#xe6;" horiz-adv-x="358" 
d="M6 355l100 340q2 5 7 5h216q6 0 6 -6v-46q0 -6 -6 -6h-104v-71h91q6 0 6 -6v-46q0 -6 -6 -6h-91v-105h104q6 0 6 -6v-46q0 -6 -6 -6h-180q-6 0 -6 6v38h-53l-11 -39q-2 -5 -7 -5h-62q-4 0 -4 5zM143 452v125l-38 -125h38zM-6 243v46q0 6 6 6h358q6 0 6 -6v-46q0 -6 -6 -6
h-358q-6 0 -6 6z" />
    <glyph glyph-name="ccedilla" unicode="&#xe7;" horiz-adv-x="261" 
d="M267 289v-46q0 -6 -6 -6h-64q-6 -26 -25.5 -39.5t-45.5 -13.5q-28 0 -50 9q-5 2 -5 4v18q0 4 4 4q3 0 13.5 -3t22.5 -3q31 0 40 24h-151q-6 0 -6 6v46q0 6 6 6h154q-4 18 -26 18q-9 0 -16 -5q-2 -2 -5 0l-14 12q-2 3 0 5l17 22q-82 11 -82 94v168q0 52 30.5 74t78.5 22
q100 0 110 -76q0 -6 -4 -7l-68 -16q-5 0 -5 5q0 17 -9 26.5t-24 9.5q-14 0 -20.5 -8t-6.5 -30v-168q0 -22 6.5 -30t20.5 -8q15 0 24 9.5t9 26.5q0 5 5 5l68 -16q4 -1 4 -7q-10 -76 -110 -76h-1l-10 -13q54 0 70 -37h65q6 0 6 -6z" />
    <glyph glyph-name="egrave" unicode="&#xe8;" horiz-adv-x="249" 
d="M34 356v338q0 6 6 6h180q6 0 6 -6v-46q0 -6 -6 -6h-104v-71h91q6 0 6 -6v-46q0 -6 -6 -6h-91v-105h104q6 0 6 -6v-46q0 -6 -6 -6h-180q-6 0 -6 6zM-6 243v46q0 6 6 6h249q6 0 6 -6v-46q0 -6 -6 -6h-249q-6 0 -6 6zM95 754l-63 111q-1 3 0 5t4 2h72q5 0 6 -4l37 -111
q1 -3 -0.5 -5t-4.5 -2h-44q-4 0 -7 4z" />
    <glyph glyph-name="eacute" unicode="&#xe9;" horiz-adv-x="249" 
d="M34 356v338q0 6 6 6h180q6 0 6 -6v-46q0 -6 -6 -6h-104v-71h91q6 0 6 -6v-46q0 -6 -6 -6h-91v-105h104q6 0 6 -6v-46q0 -6 -6 -6h-180q-6 0 -6 6zM-6 243v46q0 6 6 6h249q6 0 6 -6v-46q0 -6 -6 -6h-249q-6 0 -6 6zM210 870q1 -2 0 -5l-63 -111q-3 -4 -7 -4h-44
q-3 0 -4.5 2t-0.5 5l37 111q1 4 6 4h72q3 0 4 -2z" />
    <glyph glyph-name="ecircumflex" unicode="&#xea;" horiz-adv-x="249" 
d="M34 356v338q0 6 6 6h180q6 0 6 -6v-46q0 -6 -6 -6h-104v-71h91q6 0 6 -6v-46q0 -6 -6 -6h-91v-105h104q6 0 6 -6v-46q0 -6 -6 -6h-180q-6 0 -6 6zM-6 243v46q0 6 6 6h249q6 0 6 -6v-46q0 -6 -6 -6h-249q-6 0 -6 6zM40 777q32 0 46 17.5t14 36.5q0 4 4 4h52q4 0 4 -4
q0 -19 13.5 -36.5t46.5 -17.5q4 0 4 -3v-18q0 -3 -4 -5q-10 -5 -29 -5q-16 0 -29.5 6t-28.5 21q-1 1 -3 1t-3 -1q-15 -15 -28.5 -21t-29.5 -6q-19 0 -29 5q-4 2 -4 5v18q0 3 4 3z" />
    <glyph glyph-name="edieresis" unicode="&#xeb;" horiz-adv-x="249" 
d="M34 356v338q0 6 6 6h180q6 0 6 -6v-46q0 -6 -6 -6h-104v-71h91q6 0 6 -6v-46q0 -6 -6 -6h-91v-105h104q6 0 6 -6v-46q0 -6 -6 -6h-180q-6 0 -6 6zM-6 243v46q0 6 6 6h249q6 0 6 -6v-46q0 -6 -6 -6h-249q-6 0 -6 6zM28 828q2 2 4 2h68q2 0 4 -2t2 -4v-68q0 -2 -2 -4t-4 -2
h-68q-2 0 -4 2t-2 4v68q0 2 2 4zM156 828q2 2 4 2h68q2 0 4 -2t2 -4v-68q0 -2 -2 -4t-4 -2h-68q-2 0 -4 2t-2 4v68q0 2 2 4z" />
    <glyph glyph-name="igrave" unicode="&#xec;" horiz-adv-x="150" 
d="M34 356v338q0 6 6 6h70q6 0 6 -6v-338q0 -6 -6 -6h-70q-6 0 -6 6zM-6 243v46q0 6 6 6h150q6 0 6 -6v-46q0 -6 -6 -6h-150q-6 0 -6 6zM40 754l-63 111q-1 3 0 5t4 2h72q5 0 6 -4l37 -111q1 -3 -0.5 -5t-4.5 -2h-44q-4 0 -7 4z" />
    <glyph glyph-name="iacute" unicode="&#xed;" horiz-adv-x="150" 
d="M34 356v338q0 6 6 6h70q6 0 6 -6v-338q0 -6 -6 -6h-70q-6 0 -6 6zM-6 243v46q0 6 6 6h150q6 0 6 -6v-46q0 -6 -6 -6h-150q-6 0 -6 6zM155 870q1 -2 0 -5l-63 -111q-3 -4 -7 -4h-44q-3 0 -4.5 2t-0.5 5l37 111q1 4 6 4h72q3 0 4 -2z" />
    <glyph glyph-name="icircumflex" unicode="&#xee;" horiz-adv-x="150" 
d="M34 356v338q0 6 6 6h70q6 0 6 -6v-338q0 -6 -6 -6h-70q-6 0 -6 6zM-6 243v46q0 6 6 6h150q6 0 6 -6v-46q0 -6 -6 -6h-150q-6 0 -6 6zM-15 777q32 0 46 17.5t14 36.5q0 4 4 4h52q4 0 4 -4q0 -19 13.5 -36.5t46.5 -17.5q4 0 4 -3v-18q0 -3 -4 -5q-10 -5 -29 -5
q-16 0 -29.5 6t-28.5 21q-1 1 -3 1t-3 -1q-15 -15 -28.5 -21t-29.5 -6q-19 0 -29 5q-4 2 -4 5v18q0 3 4 3z" />
    <glyph glyph-name="idieresis" unicode="&#xef;" horiz-adv-x="150" 
d="M34 356v338q0 6 6 6h70q6 0 6 -6v-338q0 -6 -6 -6h-70q-6 0 -6 6zM-6 243v46q0 6 6 6h150q6 0 6 -6v-46q0 -6 -6 -6h-150q-6 0 -6 6zM-27 828q2 2 4 2h68q2 0 4 -2t2 -4v-68q0 -2 -2 -4t-4 -2h-68q-2 0 -4 2t-2 4v68q0 2 2 4zM101 828q2 2 4 2h68q2 0 4 -2t2 -4v-68
q0 -2 -2 -4t-4 -2h-68q-2 0 -4 2t-2 4v68q0 2 2 4z" />
    <glyph glyph-name="eth" unicode="&#xf0;" horiz-adv-x="272" 
d="M34 356v140h-21q-6 0 -6 6v46q0 6 6 6h21v140q0 6 6 6h96q111 0 111 -97v-156q0 -97 -111 -97h-96q-6 0 -6 6zM135 408q14 0 22 9t8 31v154q0 22 -8 31t-22 9h-19v-88h13q6 0 6 -6v-46q0 -6 -6 -6h-13v-88h19zM-6 243v46q0 6 6 6h272q6 0 6 -6v-46q0 -6 -6 -6h-272
q-6 0 -6 6z" />
    <glyph glyph-name="ntilde" unicode="&#xf1;" horiz-adv-x="263" 
d="M34 356v338q0 6 6 6h50q5 0 7 -5l74 -154v153q0 6 6 6h46q6 0 6 -6v-338q0 -6 -6 -6h-50q-4 0 -7 5l-74 154v-153q0 -6 -6 -6h-46q-6 0 -6 6zM-6 243v46q0 6 6 6h263q6 0 6 -6v-46q0 -6 -6 -6h-263q-6 0 -6 6zM151 751q-12 6 -25 17q-10 8 -16.5 11.5t-14.5 3.5
q-10 0 -16 -8.5t-6 -23.5q0 -5 -4 -5h-26q-4 0 -6 5q-6 18 -6 32q0 23 13 36t33 13q13 0 23 -4.5t23 -13.5q14 -8 22.5 -12t20.5 -4q25 0 25 28q0 4 5 4h25q5 0 6 -4q6 -18 6 -32q0 -23 -14.5 -36t-38.5 -13q-17 0 -29 6z" />
    <glyph glyph-name="ograve" unicode="&#xf2;" horiz-adv-x="274" 
d="M57.5 366q-32.5 21 -32.5 76v166q0 55 32.5 76t79.5 21t79.5 -21t32.5 -76v-166q0 -55 -32.5 -76t-79.5 -21t-79.5 21zM159.5 411.5q7.5 8.5 7.5 30.5v166q0 22 -7.5 30.5t-22.5 8.5t-22.5 -8.5t-7.5 -30.5v-166q0 -22 7.5 -30.5t22.5 -8.5t22.5 8.5zM-6 243v46q0 6 6 6
h274q6 0 6 -6v-46q0 -6 -6 -6h-274q-6 0 -6 6zM102 754l-63 111q-1 3 0 5t4 2h72q5 0 6 -4l37 -111q1 -3 -0.5 -5t-4.5 -2h-44q-4 0 -7 4z" />
    <glyph glyph-name="oacute" unicode="&#xf3;" horiz-adv-x="274" 
d="M57.5 366q-32.5 21 -32.5 76v166q0 55 32.5 76t79.5 21t79.5 -21t32.5 -76v-166q0 -55 -32.5 -76t-79.5 -21t-79.5 21zM159.5 411.5q7.5 8.5 7.5 30.5v166q0 22 -7.5 30.5t-22.5 8.5t-22.5 -8.5t-7.5 -30.5v-166q0 -22 7.5 -30.5t22.5 -8.5t22.5 8.5zM-6 243v46q0 6 6 6
h274q6 0 6 -6v-46q0 -6 -6 -6h-274q-6 0 -6 6zM217 870q1 -2 0 -5l-63 -111q-3 -4 -7 -4h-44q-3 0 -4.5 2t-0.5 5l37 111q1 4 6 4h72q3 0 4 -2z" />
    <glyph glyph-name="ocircumflex" unicode="&#xf4;" horiz-adv-x="274" 
d="M57.5 366q-32.5 21 -32.5 76v166q0 55 32.5 76t79.5 21t79.5 -21t32.5 -76v-166q0 -55 -32.5 -76t-79.5 -21t-79.5 21zM159.5 411.5q7.5 8.5 7.5 30.5v166q0 22 -7.5 30.5t-22.5 8.5t-22.5 -8.5t-7.5 -30.5v-166q0 -22 7.5 -30.5t22.5 -8.5t22.5 8.5zM-6 243v46q0 6 6 6
h274q6 0 6 -6v-46q0 -6 -6 -6h-274q-6 0 -6 6zM47 777q32 0 46 17.5t14 36.5q0 4 4 4h52q4 0 4 -4q0 -19 13.5 -36.5t46.5 -17.5q4 0 4 -3v-18q0 -3 -4 -5q-10 -5 -29 -5q-16 0 -29.5 6t-28.5 21q-1 1 -3 1t-3 -1q-15 -15 -28.5 -21t-29.5 -6q-19 0 -29 5q-4 2 -4 5v18
q0 3 4 3z" />
    <glyph glyph-name="otilde" unicode="&#xf5;" horiz-adv-x="274" 
d="M57.5 366q-32.5 21 -32.5 76v166q0 55 32.5 76t79.5 21t79.5 -21t32.5 -76v-166q0 -55 -32.5 -76t-79.5 -21t-79.5 21zM159.5 411.5q7.5 8.5 7.5 30.5v166q0 22 -7.5 30.5t-22.5 8.5t-22.5 -8.5t-7.5 -30.5v-166q0 -22 7.5 -30.5t22.5 -8.5t22.5 8.5zM-6 243v46q0 6 6 6
h274q6 0 6 -6v-46q0 -6 -6 -6h-274q-6 0 -6 6zM156 751q-12 6 -25 17q-10 8 -16.5 11.5t-14.5 3.5q-10 0 -16 -8.5t-6 -23.5q0 -5 -4 -5h-26q-4 0 -6 5q-6 18 -6 32q0 23 13 36t33 13q13 0 23 -4.5t23 -13.5q14 -8 22.5 -12t20.5 -4q25 0 25 28q0 4 5 4h25q5 0 6 -4
q6 -18 6 -32q0 -23 -14.5 -36t-38.5 -13q-17 0 -29 6z" />
    <glyph glyph-name="odieresis" unicode="&#xf6;" horiz-adv-x="274" 
d="M57.5 366q-32.5 21 -32.5 76v166q0 55 32.5 76t79.5 21t79.5 -21t32.5 -76v-166q0 -55 -32.5 -76t-79.5 -21t-79.5 21zM159.5 411.5q7.5 8.5 7.5 30.5v166q0 22 -7.5 30.5t-22.5 8.5t-22.5 -8.5t-7.5 -30.5v-166q0 -22 7.5 -30.5t22.5 -8.5t22.5 8.5zM-6 243v46q0 6 6 6
h274q6 0 6 -6v-46q0 -6 -6 -6h-274q-6 0 -6 6zM35 828q2 2 4 2h68q2 0 4 -2t2 -4v-68q0 -2 -2 -4t-4 -2h-68q-2 0 -4 2t-2 4v68q0 2 2 4zM163 828q2 2 4 2h68q2 0 4 -2t2 -4v-68q0 -2 -2 -4t-4 -2h-68q-2 0 -4 2t-2 4v68q0 2 2 4z" />
    <glyph glyph-name="divide" unicode="&#xf7;" horiz-adv-x="542" 
d="M328 374h-114q-6 0 -6 6v114q0 6 6 6h114q6 0 6 -6v-114q0 -6 -6 -6zM504 284v-68q0 -6 -6 -6h-454q-6 0 -6 6v68q0 6 6 6h454q6 0 6 -6zM328 0h-114q-6 0 -6 6v114q0 6 6 6h114q6 0 6 -6v-114q0 -6 -6 -6z" />
    <glyph glyph-name="oslash" unicode="&#xf8;" horiz-adv-x="274" 
d="M50 372l-12 -20q-2 -2 -4 -2l-4 1l-6 4q-3 2 -3 4l1 4l16 25q-13 21 -13 54v166q0 55 32.5 76t79.5 21q58 0 86 -27l13 20q2 2 4 2l4 -1l6 -4q3 -1 3 -4l-1 -4l-16 -25q13 -23 13 -54v-166q0 -55 -32.5 -76t-79.5 -21q-59 0 -87 27zM167 590v18q0 22 -7.5 30.5t-22.5 8.5
t-22.5 -8.5t-7.5 -30.5v-112zM159.5 411.5q7.5 8.5 7.5 30.5v112l-60 -94v-18q0 -22 7.5 -30.5t22.5 -8.5t22.5 8.5zM-6 243v46q0 6 6 6h274q6 0 6 -6v-46q0 -6 -6 -6h-274q-6 0 -6 6z" />
    <glyph glyph-name="ugrave" unicode="&#xf9;" horiz-adv-x="260" 
d="M28 433v261q0 6 6 6h70q6 0 6 -6v-252q0 -23 7 -31t21 -8q15 0 22.5 8.5t7.5 30.5v252q0 6 6 6h52q6 0 6 -6v-261q0 -48 -29 -68t-74 -20q-101 0 -101 88zM-6 243v46q0 6 6 6h260q6 0 6 -6v-46q0 -6 -6 -6h-260q-6 0 -6 6zM101 754l-63 111q-1 3 0 5t4 2h72q5 0 6 -4
l37 -111q1 -3 -0.5 -5t-4.5 -2h-44q-4 0 -7 4z" />
    <glyph glyph-name="uacute" unicode="&#xfa;" horiz-adv-x="260" 
d="M28 433v261q0 6 6 6h70q6 0 6 -6v-252q0 -23 7 -31t21 -8q15 0 22.5 8.5t7.5 30.5v252q0 6 6 6h52q6 0 6 -6v-261q0 -48 -29 -68t-74 -20q-101 0 -101 88zM-6 243v46q0 6 6 6h260q6 0 6 -6v-46q0 -6 -6 -6h-260q-6 0 -6 6zM216 870q1 -2 0 -5l-63 -111q-3 -4 -7 -4h-44
q-3 0 -4.5 2t-0.5 5l37 111q1 4 6 4h72q3 0 4 -2z" />
    <glyph glyph-name="ucircumflex" unicode="&#xfb;" horiz-adv-x="260" 
d="M28 433v261q0 6 6 6h70q6 0 6 -6v-252q0 -23 7 -31t21 -8q15 0 22.5 8.5t7.5 30.5v252q0 6 6 6h52q6 0 6 -6v-261q0 -48 -29 -68t-74 -20q-101 0 -101 88zM-6 243v46q0 6 6 6h260q6 0 6 -6v-46q0 -6 -6 -6h-260q-6 0 -6 6zM46 777q32 0 46 17.5t14 36.5q0 4 4 4h52
q4 0 4 -4q0 -19 13.5 -36.5t46.5 -17.5q4 0 4 -3v-18q0 -3 -4 -5q-10 -5 -29 -5q-16 0 -29.5 6t-28.5 21q-1 1 -3 1t-3 -1q-15 -15 -28.5 -21t-29.5 -6q-19 0 -29 5q-4 2 -4 5v18q0 3 4 3z" />
    <glyph glyph-name="udieresis" unicode="&#xfc;" horiz-adv-x="260" 
d="M28 433v261q0 6 6 6h70q6 0 6 -6v-252q0 -23 7 -31t21 -8q15 0 22.5 8.5t7.5 30.5v252q0 6 6 6h52q6 0 6 -6v-261q0 -48 -29 -68t-74 -20q-101 0 -101 88zM-6 243v46q0 6 6 6h260q6 0 6 -6v-46q0 -6 -6 -6h-260q-6 0 -6 6zM34 828q2 2 4 2h68q2 0 4 -2t2 -4v-68
q0 -2 -2 -4t-4 -2h-68q-2 0 -4 2t-2 4v68q0 2 2 4zM162 828q2 2 4 2h68q2 0 4 -2t2 -4v-68q0 -2 -2 -4t-4 -2h-68q-2 0 -4 2t-2 4v68q0 2 2 4z" />
    <glyph glyph-name="yacute" unicode="&#xfd;" horiz-adv-x="256" 
d="M86 356v140l-82 197l-1 4q0 3 4 3h73q5 0 7 -5l50 -129l51 129q3 5 7 5h51q5 0 5 -5l-83 -199v-140q0 -6 -6 -6h-70q-6 0 -6 6zM-6 243v46q0 6 6 6h256q6 0 6 -6v-46q0 -6 -6 -6h-256q-6 0 -6 6zM221 870q1 -2 0 -5l-63 -111q-3 -4 -7 -4h-44q-3 0 -4.5 2t-0.5 5l37 111
q1 4 6 4h72q3 0 4 -2z" />
    <glyph glyph-name="thorn" unicode="&#xfe;" horiz-adv-x="259" 
d="M34 356v338q0 6 6 6h70q6 0 6 -6v-71h32q39 0 66 -23t27 -75t-27 -74.5t-66 -22.5h-32v-72q0 -6 -6 -6h-70q-6 0 -6 6zM129 486q15 0 22.5 8.5t7.5 30.5q0 23 -7.5 31.5t-22.5 8.5h-13v-79h13zM-6 243v46q0 6 6 6h259q6 0 6 -6v-46q0 -6 -6 -6h-259q-6 0 -6 6z" />
    <glyph glyph-name="ydieresis" unicode="&#xff;" horiz-adv-x="256" 
d="M86 356v140l-82 197l-1 4q0 3 4 3h73q5 0 7 -5l50 -129l51 129q3 5 7 5h51q5 0 5 -5l-83 -199v-140q0 -6 -6 -6h-70q-6 0 -6 6zM-6 243v46q0 6 6 6h256q6 0 6 -6v-46q0 -6 -6 -6h-256q-6 0 -6 6zM39 828q2 2 4 2h68q2 0 4 -2t2 -4v-68q0 -2 -2 -4t-4 -2h-68q-2 0 -4 2
t-2 4v68q0 2 2 4zM167 828q2 2 4 2h68q2 0 4 -2t2 -4v-68q0 -2 -2 -4t-4 -2h-68q-2 0 -4 2t-2 4v68q0 2 2 4z" />
    <glyph glyph-name="Amacron" unicode="&#x100;" horiz-adv-x="511" 
d="M8 6l184 690q1 4 5 4h117q5 0 6 -4l183 -690q0 -6 -6 -6h-155q-5 0 -6 4l-23 85h-160l-23 -85q-1 -4 -6 -4h-109q-7 0 -7 6zM283 203l-50 197l-50 -197h100zM363 784h-214q-6 0 -6 6v64q0 6 6 6h214q6 0 6 -6v-64q0 -6 -6 -6z" />
    <glyph glyph-name="amacron" unicode="&#x101;" horiz-adv-x="260" 
d="M6 356l92 339q2 5 7 5h49q7 0 8 -5l92 -339q0 -6 -6 -6h-71q-5 0 -7 5l-11 38h-80l-11 -38q-2 -5 -8 -5h-46q-8 0 -8 6zM144 451l-25 99l-25 -99h50zM-6 243v46q0 6 6 6h260q6 0 6 -6v-46q0 -6 -6 -6h-260q-6 0 -6 6zM60 815q2 2 4 2h132q2 0 4 -2t2 -4v-46q0 -2 -2 -4
t-4 -2h-132q-2 0 -4 2t-2 4v46q0 2 2 4z" />
    <glyph glyph-name="Abreve" unicode="&#x102;" horiz-adv-x="511" 
d="M8 6l184 690q1 4 5 4h117q5 0 6 -4l183 -690q0 -6 -6 -6h-155q-5 0 -6 4l-23 85h-160l-23 -85q-1 -4 -6 -4h-109q-7 0 -7 6zM283 203l-50 197l-50 -197h100zM374 873h18q5 0 5 -5q-13 -48 -51 -79.5t-90 -31.5t-90 31.5t-51 79.5q0 5 5 5h18q6 0 10 -4q50 -50 108 -50
q32 0 60 13t48 37q4 4 10 4z" />
    <glyph glyph-name="abreve" unicode="&#x103;" horiz-adv-x="260" 
d="M6 356l92 339q2 5 7 5h49q7 0 8 -5l92 -339q0 -6 -6 -6h-71q-5 0 -7 5l-11 38h-80l-11 -38q-2 -5 -8 -5h-46q-8 0 -8 6zM144 451l-25 99l-25 -99h50zM-6 243v46q0 6 6 6h260q6 0 6 -6v-46q0 -6 -6 -6h-260q-6 0 -6 6zM219 826.5q2 -1.5 1 -3.5q-10 -35 -32.5 -54.5
t-57.5 -19.5t-57.5 19.5t-32.5 54.5q-1 2 1 3.5t4 1.5h21q5 0 8 -4q21 -30 56 -30t56 30q3 4 8 4h21q2 0 4 -1.5z" />
    <glyph glyph-name="Aogonek" unicode="&#x104;" horiz-adv-x="511" 
d="M503 6q0 -6 -6 -6h-36q-35 -20 -67.5 -52.5t-32.5 -58.5q0 -35 37 -35q13 0 27 4.5t17 4.5q6 0 6 -5v-38q0 -5 -6 -8q-36 -19 -72 -19q-34 0 -57.5 20t-23.5 54q0 47 32 80.5t78 52.5h-57q-5 0 -6 4l-23 85h-160l-23 -85q-1 -4 -6 -4h-109q-7 0 -7 6l184 690q1 4 5 4h117
q5 0 6 -4zM283 203l-50 197l-50 -197h100z" />
    <glyph glyph-name="aogonek" unicode="&#x105;" horiz-adv-x="260" 
d="M266 289v-46q0 -6 -6 -6h-85q4 -10 13 -16t22 -6t24.5 4.5t14.5 4.5q6 0 6 -5v-18q0 -4 -6 -9q-8 -6 -24 -10.5t-33 -4.5q-29 0 -48 15.5t-23 44.5h-121q-6 0 -6 6v46q0 6 6 6h138q23 32 66 55h-27q-5 0 -7 5l-11 38h-80l-11 -38q-2 -5 -8 -5h-46q-8 0 -8 6l92 339
q2 5 7 5h49q7 0 8 -5l92 -339q0 -6 -6 -6q-42 -23 -63 -55h75q6 0 6 -6zM144 451l-25 99l-25 -99h50z" />
    <glyph glyph-name="Cacute" unicode="&#x106;" horiz-adv-x="513" 
d="M101 27.5q-63 44.5 -63 151.5v342q0 107 63 151.5t161 44.5q87 0 149.5 -36t73.5 -125q0 -6 -5 -7l-146 -34q-6 0 -6 5q0 83 -66 83q-29 0 -44.5 -18.5t-15.5 -63.5v-342q0 -45 15.5 -63.5t44.5 -18.5q66 0 66 83q0 5 6 5l146 -34q5 -1 5 -7q-11 -89 -73.5 -125
t-149.5 -36q-98 0 -161 44.5zM361 896l-1 -4l-80 -150q-3 -5 -9 -5h-61q-4 0 -4 4l1 4l50 150q2 5 7 5h92q5 0 5 -4z" />
    <glyph glyph-name="cacute" unicode="&#x107;" horiz-adv-x="261" 
d="M58.5 367q-30.5 22 -30.5 74v168q0 52 30.5 74t78.5 22q100 0 110 -76q0 -6 -4 -7l-68 -16q-5 0 -5 5q0 17 -9 26.5t-24 9.5q-14 0 -20.5 -8t-6.5 -30v-168q0 -22 6.5 -30t20.5 -8q15 0 24 9.5t9 26.5q0 5 5 5l68 -16q4 -1 4 -7q-10 -76 -110 -76q-48 0 -78.5 22zM-6 243
v46q0 6 6 6h261q6 0 6 -6v-46q0 -6 -6 -6h-261q-6 0 -6 6zM211 870q1 -2 0 -5l-63 -111q-3 -4 -7 -4h-44q-3 0 -4.5 2t-0.5 5l37 111q1 4 6 4h72q3 0 4 -2z" />
    <glyph glyph-name="Ccircumflex" unicode="&#x108;" horiz-adv-x="513" 
d="M101 27.5q-63 44.5 -63 151.5v342q0 107 63 151.5t161 44.5q87 0 149.5 -36t73.5 -125q0 -6 -5 -7l-146 -34q-6 0 -6 5q0 83 -66 83q-29 0 -44.5 -18.5t-15.5 -63.5v-342q0 -45 15.5 -63.5t44.5 -18.5q66 0 66 83q0 5 6 5l146 -34q5 -1 5 -7q-11 -89 -73.5 -125
t-149.5 -36q-98 0 -161 44.5zM137 803q44 0 62 23t18 49q0 5 5 5h70q5 0 5 -5q0 -26 18 -49t62 -23q5 0 5 -5v-23q0 -5 -5 -7q-19 -7 -39 -7q-21 0 -39.5 8.5t-37.5 27.5q-2 2 -4 2t-4 -2q-19 -19 -37.5 -27.5t-39.5 -8.5q-20 0 -39 7q-5 2 -5 7v23q0 5 5 5z" />
    <glyph glyph-name="ccircumflex" unicode="&#x109;" horiz-adv-x="261" 
d="M58.5 367q-30.5 22 -30.5 74v168q0 52 30.5 74t78.5 22q100 0 110 -76q0 -6 -4 -7l-68 -16q-5 0 -5 5q0 17 -9 26.5t-24 9.5q-14 0 -20.5 -8t-6.5 -30v-168q0 -22 6.5 -30t20.5 -8q15 0 24 9.5t9 26.5q0 5 5 5l68 -16q4 -1 4 -7q-10 -76 -110 -76q-48 0 -78.5 22zM-6 243
v46q0 6 6 6h261q6 0 6 -6v-46q0 -6 -6 -6h-261q-6 0 -6 6zM41 777q32 0 46 17.5t14 36.5q0 4 4 4h52q4 0 4 -4q0 -19 13.5 -36.5t46.5 -17.5q4 0 4 -3v-18q0 -3 -4 -5q-10 -5 -29 -5q-16 0 -29.5 6t-28.5 21q-1 1 -3 1t-3 -1q-15 -15 -28.5 -21t-29.5 -6q-19 0 -29 5
q-4 2 -4 5v18q0 3 4 3z" />
    <glyph glyph-name="Cdotaccent" unicode="&#x10a;" horiz-adv-x="513" 
d="M101 27.5q-63 44.5 -63 151.5v342q0 107 63 151.5t161 44.5q87 0 149.5 -36t73.5 -125q0 -6 -5 -7l-146 -34q-6 0 -6 5q0 83 -66 83q-29 0 -44.5 -18.5t-15.5 -63.5v-342q0 -45 15.5 -63.5t44.5 -18.5q66 0 66 83q0 5 6 5l146 -34q5 -1 5 -7q-11 -89 -73.5 -125
t-149.5 -36q-98 0 -161 44.5zM314 774h-114q-6 0 -6 6v114q0 6 6 6h114q6 0 6 -6v-114q0 -6 -6 -6z" />
    <glyph glyph-name="cdotaccent" unicode="&#x10b;" horiz-adv-x="261" 
d="M58.5 367q-30.5 22 -30.5 74v168q0 52 30.5 74t78.5 22q100 0 110 -76q0 -6 -4 -7l-68 -16q-5 0 -5 5q0 17 -9 26.5t-24 9.5q-14 0 -20.5 -8t-6.5 -30v-168q0 -22 6.5 -30t20.5 -8q15 0 24 9.5t9 26.5q0 5 5 5l68 -16q4 -1 4 -7q-10 -76 -110 -76q-48 0 -78.5 22zM-6 243
v46q0 6 6 6h261q6 0 6 -6v-46q0 -6 -6 -6h-261q-6 0 -6 6zM175 750h-88q-6 0 -6 6v88q0 6 6 6h88q6 0 6 -6v-88q0 -6 -6 -6z" />
    <glyph glyph-name="Ccaron" unicode="&#x10c;" horiz-adv-x="513" 
d="M101 27.5q-63 44.5 -63 151.5v342q0 107 63 151.5t161 44.5q87 0 149.5 -36t73.5 -125q0 -6 -5 -7l-146 -34q-6 0 -6 5q0 83 -66 83q-29 0 -44.5 -18.5t-15.5 -63.5v-342q0 -45 15.5 -63.5t44.5 -18.5q66 0 66 83q0 5 6 5l146 -34q5 -1 5 -7q-11 -89 -73.5 -125
t-149.5 -36q-98 0 -161 44.5zM217 766q0 26 -18 49t-62 23q-5 0 -5 5v23q0 5 5 7q19 7 39 7q21 0 39.5 -8.5t37.5 -27.5q2 -2 4 -2t4 2q19 19 37.5 27.5t39.5 8.5q20 0 39 -7q5 -2 5 -7v-23q0 -5 -5 -5q-44 0 -62 -23t-18 -49q0 -5 -5 -5h-70q-5 0 -5 5z" />
    <glyph glyph-name="ccaron" unicode="&#x10d;" horiz-adv-x="261" 
d="M58.5 367q-30.5 22 -30.5 74v168q0 52 30.5 74t78.5 22q100 0 110 -76q0 -6 -4 -7l-68 -16q-5 0 -5 5q0 17 -9 26.5t-24 9.5q-14 0 -20.5 -8t-6.5 -30v-168q0 -22 6.5 -30t20.5 -8q15 0 24 9.5t9 26.5q0 5 5 5l68 -16q4 -1 4 -7q-10 -76 -110 -76q-48 0 -78.5 22zM-6 243
v46q0 6 6 6h261q6 0 6 -6v-46q0 -6 -6 -6h-261q-6 0 -6 6zM101 750q0 19 -14 36.5t-46 17.5q-4 0 -4 3v18q0 3 4 5q10 5 29 5q16 0 29.5 -6t28.5 -21q1 -1 3 -1t3 1q15 15 28.5 21t29.5 6q19 0 29 -5q4 -2 4 -5v-18q0 -3 -4 -3q-33 0 -46.5 -17.5t-13.5 -36.5q0 -4 -4 -4
h-52q-4 0 -4 4z" />
    <glyph glyph-name="Dcaron" unicode="&#x10e;" horiz-adv-x="521" 
d="M50 6v688q0 6 6 6h197q224 0 224 -194v-312q0 -194 -224 -194h-197q-6 0 -6 6zM253 114q30 0 45 17.5t15 62.5v312q0 45 -15 62.5t-45 17.5h-39v-472h39zM221 766q0 26 -18 49t-62 23q-5 0 -5 5v23q0 5 5 7q19 7 39 7q21 0 39.5 -8.5t37.5 -27.5q2 -2 4 -2t4 2
q19 19 37.5 27.5t39.5 8.5q20 0 39 -7q5 -2 5 -7v-23q0 -5 -5 -5q-44 0 -62 -23t-18 -49q0 -5 -5 -5h-70q-5 0 -5 5z" />
    <glyph glyph-name="dcaron" unicode="&#x10f;" horiz-adv-x="272" 
d="M34 356v338q0 6 6 6h96q111 0 111 -97v-156q0 -97 -111 -97h-96q-6 0 -6 6zM135 408q14 0 22 9t8 31v154q0 22 -8 31t-22 9h-19v-234h19zM-6 243v46q0 6 6 6h272q6 0 6 -6v-46q0 -6 -6 -6h-272q-6 0 -6 6zM104 750q0 19 -14 36.5t-46 17.5q-4 0 -4 3v18q0 3 4 5
q10 5 29 5q16 0 29.5 -6t28.5 -21q1 -1 3 -1t3 1q15 15 28.5 21t29.5 6q19 0 29 -5q4 -2 4 -5v-18q0 -3 -4 -3q-33 0 -46.5 -17.5t-13.5 -36.5q0 -4 -4 -4h-52q-4 0 -4 4z" />
    <glyph glyph-name="Dcroat" unicode="&#x110;" horiz-adv-x="521" 
d="M50 6v304h-47q-6 0 -6 6v68q0 6 6 6h47v304q0 6 6 6h197q224 0 224 -194v-312q0 -194 -224 -194h-197q-6 0 -6 6zM253 114q30 0 45 17.5t15 62.5v312q0 45 -15 62.5t-45 17.5h-39v-196h28q6 0 6 -6v-68q0 -6 -6 -6h-28v-196h39z" />
    <glyph glyph-name="dcroat" unicode="&#x111;" horiz-adv-x="272" 
d="M34 356v140h-21q-6 0 -6 6v46q0 6 6 6h21v140q0 6 6 6h96q111 0 111 -97v-156q0 -97 -111 -97h-96q-6 0 -6 6zM135 408q14 0 22 9t8 31v154q0 22 -8 31t-22 9h-19v-88h13q6 0 6 -6v-46q0 -6 -6 -6h-13v-88h19zM-6 243v46q0 6 6 6h272q6 0 6 -6v-46q0 -6 -6 -6h-272
q-6 0 -6 6z" />
    <glyph glyph-name="Emacron" unicode="&#x112;" horiz-adv-x="470" 
d="M50 6v688q0 6 6 6h372q6 0 6 -6v-102q0 -6 -6 -6h-214v-146h186q6 0 6 -6v-102q0 -6 -6 -6h-186v-212h214q6 0 6 -6v-102q0 -6 -6 -6h-372q-6 0 -6 6zM344 784h-214q-6 0 -6 6v64q0 6 6 6h214q6 0 6 -6v-64q0 -6 -6 -6z" />
    <glyph glyph-name="emacron" unicode="&#x113;" horiz-adv-x="249" 
d="M34 356v338q0 6 6 6h180q6 0 6 -6v-46q0 -6 -6 -6h-104v-71h91q6 0 6 -6v-46q0 -6 -6 -6h-91v-105h104q6 0 6 -6v-46q0 -6 -6 -6h-180q-6 0 -6 6zM-6 243v46q0 6 6 6h249q6 0 6 -6v-46q0 -6 -6 -6h-249q-6 0 -6 6zM60 815q2 2 4 2h132q2 0 4 -2t2 -4v-46q0 -2 -2 -4
t-4 -2h-132q-2 0 -4 2t-2 4v46q0 2 2 4z" />
    <glyph glyph-name="Ebreve" unicode="&#x114;" horiz-adv-x="470" 
d="M50 6v688q0 6 6 6h372q6 0 6 -6v-102q0 -6 -6 -6h-214v-146h186q6 0 6 -6v-102q0 -6 -6 -6h-186v-212h214q6 0 6 -6v-102q0 -6 -6 -6h-372q-6 0 -6 6zM355 873h18q5 0 5 -5q-13 -48 -51 -79.5t-90 -31.5t-90 31.5t-51 79.5q0 5 5 5h18q6 0 10 -4q50 -50 108 -50
q32 0 60 13t48 37q4 4 10 4z" />
    <glyph glyph-name="ebreve" unicode="&#x115;" horiz-adv-x="249" 
d="M34 356v338q0 6 6 6h180q6 0 6 -6v-46q0 -6 -6 -6h-104v-71h91q6 0 6 -6v-46q0 -6 -6 -6h-91v-105h104q6 0 6 -6v-46q0 -6 -6 -6h-180q-6 0 -6 6zM-6 243v46q0 6 6 6h249q6 0 6 -6v-46q0 -6 -6 -6h-249q-6 0 -6 6zM219 826.5q2 -1.5 1 -3.5q-10 -35 -32.5 -54.5
t-57.5 -19.5t-57.5 19.5t-32.5 54.5q-1 2 1 3.5t4 1.5h21q5 0 8 -4q21 -30 56 -30t56 30q3 4 8 4h21q2 0 4 -1.5z" />
    <glyph glyph-name="Edotaccent" unicode="&#x116;" horiz-adv-x="470" 
d="M50 6v688q0 6 6 6h372q6 0 6 -6v-102q0 -6 -6 -6h-214v-146h186q6 0 6 -6v-102q0 -6 -6 -6h-186v-212h214q6 0 6 -6v-102q0 -6 -6 -6h-372q-6 0 -6 6zM294 774h-114q-6 0 -6 6v114q0 6 6 6h114q6 0 6 -6v-114q0 -6 -6 -6z" />
    <glyph glyph-name="edotaccent" unicode="&#x117;" horiz-adv-x="249" 
d="M34 356v338q0 6 6 6h180q6 0 6 -6v-46q0 -6 -6 -6h-104v-71h91q6 0 6 -6v-46q0 -6 -6 -6h-91v-105h104q6 0 6 -6v-46q0 -6 -6 -6h-180q-6 0 -6 6zM-6 243v46q0 6 6 6h249q6 0 6 -6v-46q0 -6 -6 -6h-249q-6 0 -6 6zM174 750h-88q-6 0 -6 6v88q0 6 6 6h88q6 0 6 -6v-88
q0 -6 -6 -6z" />
    <glyph glyph-name="Eogonek" unicode="&#x118;" horiz-adv-x="470" 
d="M214 586v-146h186q6 0 6 -6v-102q0 -6 -6 -6h-186v-212h214q6 0 6 -6v-102q0 -6 -6 -6h-15q-35 -20 -67.5 -52.5t-32.5 -58.5q0 -35 37 -35q13 0 27 4.5t17 4.5q6 0 6 -5v-38q0 -5 -6 -8q-36 -19 -72 -19q-34 0 -57.5 20t-23.5 54q0 47 32 80.5t78 52.5h-295q-6 0 -6 6
v688q0 6 6 6h372q6 0 6 -6v-102q0 -6 -6 -6h-214z" />
    <glyph glyph-name="eogonek" unicode="&#x119;" horiz-adv-x="249" 
d="M255 289v-46q0 -6 -6 -6h-102q4 -10 13 -16t22 -6t24.5 4.5t14.5 4.5q6 0 6 -5v-18q0 -4 -6 -9q-8 -6 -24 -10.5t-33 -4.5q-29 0 -48 15.5t-23 44.5h-93q-6 0 -6 6v46q0 6 6 6h110q23 32 66 55h-136q-6 0 -6 6v338q0 6 6 6h180q6 0 6 -6v-46q0 -6 -6 -6h-104v-71h91
q6 0 6 -6v-46q0 -6 -6 -6h-91v-105h104q6 0 6 -6v-46q0 -6 -6 -6q-42 -23 -63 -55h92q6 0 6 -6z" />
    <glyph glyph-name="Ecaron" unicode="&#x11a;" horiz-adv-x="470" 
d="M50 6v688q0 6 6 6h372q6 0 6 -6v-102q0 -6 -6 -6h-214v-146h186q6 0 6 -6v-102q0 -6 -6 -6h-186v-212h214q6 0 6 -6v-102q0 -6 -6 -6h-372q-6 0 -6 6zM197 766q0 26 -18 49t-62 23q-5 0 -5 5v23q0 5 5 7q19 7 39 7q21 0 39.5 -8.5t37.5 -27.5q2 -2 4 -2t4 2
q19 19 37.5 27.5t39.5 8.5q20 0 39 -7q5 -2 5 -7v-23q0 -5 -5 -5q-44 0 -62 -23t-18 -49q0 -5 -5 -5h-70q-5 0 -5 5z" />
    <glyph glyph-name="ecaron" unicode="&#x11b;" horiz-adv-x="249" 
d="M34 356v338q0 6 6 6h180q6 0 6 -6v-46q0 -6 -6 -6h-104v-71h91q6 0 6 -6v-46q0 -6 -6 -6h-91v-105h104q6 0 6 -6v-46q0 -6 -6 -6h-180q-6 0 -6 6zM-6 243v46q0 6 6 6h249q6 0 6 -6v-46q0 -6 -6 -6h-249q-6 0 -6 6zM100 750q0 19 -14 36.5t-46 17.5q-4 0 -4 3v18q0 3 4 5
q10 5 29 5q16 0 29.5 -6t28.5 -21q1 -1 3 -1t3 1q15 15 28.5 21t29.5 6q19 0 29 -5q4 -2 4 -5v-18q0 -3 -4 -3q-33 0 -46.5 -17.5t-13.5 -36.5q0 -4 -4 -4h-52q-4 0 -4 4z" />
    <glyph glyph-name="Gcircumflex" unicode="&#x11c;" horiz-adv-x="518" 
d="M101 27.5q-63 44.5 -63 151.5v342q0 108 63 152t162 44q87 0 149.5 -36t73.5 -125q0 -6 -5 -7l-146 -34q-6 0 -6 5q0 83 -66 83q-30 0 -45.5 -18.5t-15.5 -63.5v-342q0 -45 15.5 -63.5t44.5 -18.5q33 0 56 16v182h-61q-6 0 -6 5v103q0 6 6 6h219q6 0 6 -6v-330
q0 -4 -2 -8q-34 -41 -94 -61.5t-124 -20.5q-98 0 -161 44.5zM143 803q44 0 62 23t18 49q0 5 5 5h70q5 0 5 -5q0 -26 18 -49t62 -23q5 0 5 -5v-23q0 -5 -5 -7q-19 -7 -39 -7q-21 0 -39.5 8.5t-37.5 27.5q-2 2 -4 2t-4 -2q-19 -19 -37.5 -27.5t-39.5 -8.5q-20 0 -39 7
q-5 2 -5 7v23q0 5 5 5z" />
    <glyph glyph-name="gcircumflex" unicode="&#x11d;" horiz-adv-x="274" 
d="M28 442v166q0 97 110 97q100 0 110 -76q0 -6 -4 -7l-68 -16q-5 0 -5 5q0 36 -33 36q-14 0 -21 -8t-7 -31v-166q0 -23 7 -31t21 -8q10 0 15 1.5t11 5.5v85h-26q-6 0 -6 6v46q0 6 6 6h102q6 0 6 -6v-154q0 -4 -3 -9q-17 -20 -45 -29.5t-60 -9.5q-110 0 -110 97zM-6 243v46
q0 6 6 6h274q6 0 6 -6v-46q0 -6 -6 -6h-274q-6 0 -6 6zM47 777q32 0 46 17.5t14 36.5q0 4 4 4h52q4 0 4 -4q0 -19 13.5 -36.5t46.5 -17.5q4 0 4 -3v-18q0 -3 -4 -5q-10 -5 -29 -5q-16 0 -29.5 6t-28.5 21q-1 1 -3 1t-3 -1q-15 -15 -28.5 -21t-29.5 -6q-19 0 -29 5q-4 2 -4 5
v18q0 3 4 3z" />
    <glyph glyph-name="Gbreve" unicode="&#x11e;" horiz-adv-x="518" 
d="M101 27.5q-63 44.5 -63 151.5v342q0 108 63 152t162 44q87 0 149.5 -36t73.5 -125q0 -6 -5 -7l-146 -34q-6 0 -6 5q0 83 -66 83q-30 0 -45.5 -18.5t-15.5 -63.5v-342q0 -45 15.5 -63.5t44.5 -18.5q33 0 56 16v182h-61q-6 0 -6 5v103q0 6 6 6h219q6 0 6 -6v-330
q0 -4 -2 -8q-34 -41 -94 -61.5t-124 -20.5q-98 0 -161 44.5zM381 873h18q5 0 5 -5q-13 -48 -51 -79.5t-90 -31.5t-90 31.5t-51 79.5q0 5 5 5h18q6 0 10 -4q50 -50 108 -50q32 0 60 13t48 37q4 4 10 4z" />
    <glyph glyph-name="gbreve" unicode="&#x11f;" horiz-adv-x="274" 
d="M28 442v166q0 97 110 97q100 0 110 -76q0 -6 -4 -7l-68 -16q-5 0 -5 5q0 36 -33 36q-14 0 -21 -8t-7 -31v-166q0 -23 7 -31t21 -8q10 0 15 1.5t11 5.5v85h-26q-6 0 -6 6v46q0 6 6 6h102q6 0 6 -6v-154q0 -4 -3 -9q-17 -20 -45 -29.5t-60 -9.5q-110 0 -110 97zM-6 243v46
q0 6 6 6h274q6 0 6 -6v-46q0 -6 -6 -6h-274q-6 0 -6 6zM226 826.5q2 -1.5 1 -3.5q-10 -35 -32.5 -54.5t-57.5 -19.5t-57.5 19.5t-32.5 54.5q-1 2 1 3.5t4 1.5h21q5 0 8 -4q21 -30 56 -30t56 30q3 4 8 4h21q2 0 4 -1.5z" />
    <glyph glyph-name="Gdotaccent" unicode="&#x120;" horiz-adv-x="518" 
d="M101 27.5q-63 44.5 -63 151.5v342q0 108 63 152t162 44q87 0 149.5 -36t73.5 -125q0 -6 -5 -7l-146 -34q-6 0 -6 5q0 83 -66 83q-30 0 -45.5 -18.5t-15.5 -63.5v-342q0 -45 15.5 -63.5t44.5 -18.5q33 0 56 16v182h-61q-6 0 -6 5v103q0 6 6 6h219q6 0 6 -6v-330
q0 -4 -2 -8q-34 -41 -94 -61.5t-124 -20.5q-98 0 -161 44.5zM320 774h-114q-6 0 -6 6v114q0 6 6 6h114q6 0 6 -6v-114q0 -6 -6 -6z" />
    <glyph glyph-name="gdotaccent" unicode="&#x121;" horiz-adv-x="274" 
d="M28 442v166q0 97 110 97q100 0 110 -76q0 -6 -4 -7l-68 -16q-5 0 -5 5q0 36 -33 36q-14 0 -21 -8t-7 -31v-166q0 -23 7 -31t21 -8q10 0 15 1.5t11 5.5v85h-26q-6 0 -6 6v46q0 6 6 6h102q6 0 6 -6v-154q0 -4 -3 -9q-17 -20 -45 -29.5t-60 -9.5q-110 0 -110 97zM-6 243v46
q0 6 6 6h274q6 0 6 -6v-46q0 -6 -6 -6h-274q-6 0 -6 6zM181 750h-88q-6 0 -6 6v88q0 6 6 6h88q6 0 6 -6v-88q0 -6 -6 -6z" />
    <glyph glyph-name="uni0122" unicode="&#x122;" horiz-adv-x="518" 
d="M101 27.5q-63 44.5 -63 151.5v342q0 108 63 152t162 44q87 0 149.5 -36t73.5 -125q0 -6 -5 -7l-146 -34q-6 0 -6 5q0 83 -66 83q-30 0 -45.5 -18.5t-15.5 -63.5v-342q0 -45 15.5 -63.5t44.5 -18.5q33 0 56 16v182h-61q-6 0 -6 5v103q0 6 6 6h219q6 0 6 -6v-330
q0 -4 -2 -8q-34 -41 -94 -61.5t-124 -20.5q-98 0 -161 44.5zM245 -247l-24 36q-3 4 -3 6t5 4q22 8 26 27h-39q-6 0 -6 6v104q0 6 6 6h104q6 0 6 -6v-97q0 -53 -68 -88q-3 -2 -7 2z" />
    <glyph glyph-name="uni0123" unicode="&#x123;" horiz-adv-x="274" 
d="M28 442v166q0 97 110 97q100 0 110 -76q0 -6 -4 -7l-68 -16q-5 0 -5 5q0 36 -33 36q-14 0 -21 -8t-7 -31v-166q0 -23 7 -31t21 -8q10 0 15 1.5t11 5.5v85h-26q-6 0 -6 6v46q0 6 6 6h102q6 0 6 -6v-154q0 -4 -3 -9q-17 -20 -45 -29.5t-60 -9.5q-110 0 -110 97zM-6 243v46
q0 6 6 6h274q6 0 6 -6v-46q0 -6 -6 -6h-274q-6 0 -6 6zM121 46l-16 28q-2 3 -2 6q0 2 5 4q22 8 26 27h-39q-6 0 -6 6v74q0 6 6 6h84q6 0 6 -6v-67q0 -30 -14 -48t-42 -32q-6 -3 -8 2z" />
    <glyph glyph-name="Hcircumflex" unicode="&#x124;" horiz-adv-x="559" 
d="M50 6v688q0 6 6 6h152q6 0 6 -6v-255h131v255q0 6 6 6h152q6 0 6 -6v-688q0 -6 -6 -6h-152q-6 0 -6 6v319h-131v-319q0 -6 -6 -6h-152q-6 0 -6 6zM160 803q44 0 62 23t18 49q0 5 5 5h70q5 0 5 -5q0 -26 18 -49t62 -23q5 0 5 -5v-23q0 -5 -5 -7q-19 -7 -39 -7
q-21 0 -39.5 8.5t-37.5 27.5q-2 2 -4 2t-4 -2q-19 -19 -37.5 -27.5t-39.5 -8.5q-20 0 -39 7q-5 2 -5 7v23q0 5 5 5z" />
    <glyph glyph-name="hcircumflex" unicode="&#x125;" horiz-adv-x="297" 
d="M34 356v338q0 6 6 6h70q6 0 6 -6v-125h65v125q0 6 6 6h70q6 0 6 -6v-338q0 -6 -6 -6h-70q-6 0 -6 6v155h-65v-155q0 -6 -6 -6h-70q-6 0 -6 6zM-6 243v46q0 6 6 6h297q6 0 6 -6v-46q0 -6 -6 -6h-297q-6 0 -6 6zM59 777q32 0 46 17.5t14 36.5q0 4 4 4h52q4 0 4 -4
q0 -19 13.5 -36.5t46.5 -17.5q4 0 4 -3v-18q0 -3 -4 -5q-10 -5 -29 -5q-16 0 -29.5 6t-28.5 21q-1 1 -3 1t-3 -1q-15 -15 -28.5 -21t-29.5 -6q-19 0 -29 5q-4 2 -4 5v18q0 3 4 3z" />
    <glyph glyph-name="Hbar" unicode="&#x126;" horiz-adv-x="559" 
d="M555 604v-68q0 -6 -6 -6h-40v-524q0 -6 -6 -6h-152q-6 0 -6 6v319h-131v-319q0 -6 -6 -6h-152q-6 0 -6 6v524h-40q-6 0 -6 6v68q0 6 6 6h40v84q0 6 6 6h152q6 0 6 -6v-84h131v84q0 6 6 6h152q6 0 6 -6v-84h40q6 0 6 -6zM345 530h-131v-91h131v91z" />
    <glyph glyph-name="hbar" unicode="&#x127;" horiz-adv-x="297" 
d="M0 616v36q0 6 6 6h28v36q0 6 6 6h70q6 0 6 -6v-36h65v36q0 6 6 6h70q6 0 6 -6v-36h28q6 0 6 -6v-36q0 -6 -6 -6h-28v-254q0 -6 -6 -6h-70q-6 0 -6 6v155h-65v-155q0 -6 -6 -6h-70q-6 0 -6 6v254h-28q-6 0 -6 6zM116 610v-41h65v41h-65zM303 289v-46q0 -6 -6 -6h-297
q-6 0 -6 6v46q0 6 6 6h297q6 0 6 -6z" />
    <glyph glyph-name="Itilde" unicode="&#x128;" horiz-adv-x="264" 
d="M50 6v688q0 6 6 6h152q6 0 6 -6v-688q0 -6 -6 -6h-152q-6 0 -6 6zM157.5 764q-15.5 8 -32.5 22q-13 11 -22 16t-20 5q-13 0 -21 -11t-8 -32q0 -6 -6 -6h-34q-6 0 -8 6q-8 26 -8 43q0 30 17 47.5t44 17.5q18 0 30 -5.5t32 -17.5q16 -11 28 -16.5t28 -5.5q34 0 34 37
q0 6 6 6h34q3 0 4.5 -1.5t2.5 -4.5q8 -21 8 -42q0 -31 -19 -48.5t-51 -17.5q-23 0 -38.5 8z" />
    <glyph glyph-name="itilde" unicode="&#x129;" horiz-adv-x="150" 
d="M34 356v338q0 6 6 6h70q6 0 6 -6v-338q0 -6 -6 -6h-70q-6 0 -6 6zM-6 243v46q0 6 6 6h150q6 0 6 -6v-46q0 -6 -6 -6h-150q-6 0 -6 6zM94 751q-12 6 -25 17q-10 8 -16.5 11.5t-14.5 3.5q-10 0 -16 -8.5t-6 -23.5q0 -5 -4 -5h-26q-4 0 -6 5q-6 18 -6 32q0 23 13 36t33 13
q13 0 23 -4.5t23 -13.5q14 -8 22.5 -12t20.5 -4q25 0 25 28q0 4 5 4h25q5 0 6 -4q6 -18 6 -32q0 -23 -14.5 -36t-38.5 -13q-17 0 -29 6z" />
    <glyph glyph-name="Imacron" unicode="&#x12a;" horiz-adv-x="264" 
d="M50 6v688q0 6 6 6h152q6 0 6 -6v-688q0 -6 -6 -6h-152q-6 0 -6 6zM239 784h-214q-6 0 -6 6v64q0 6 6 6h214q6 0 6 -6v-64q0 -6 -6 -6z" />
    <glyph glyph-name="imacron" unicode="&#x12b;" horiz-adv-x="150" 
d="M34 356v338q0 6 6 6h70q6 0 6 -6v-338q0 -6 -6 -6h-70q-6 0 -6 6zM-6 243v46q0 6 6 6h150q6 0 6 -6v-46q0 -6 -6 -6h-150q-6 0 -6 6zM5 815q2 2 4 2h132q2 0 4 -2t2 -4v-46q0 -2 -2 -4t-4 -2h-132q-2 0 -4 2t-2 4v46q0 2 2 4z" />
    <glyph glyph-name="Ibreve" unicode="&#x12c;" horiz-adv-x="264" 
d="M50 6v688q0 6 6 6h152q6 0 6 -6v-688q0 -6 -6 -6h-152q-6 0 -6 6zM250 873h18q5 0 5 -5q-13 -48 -51 -79.5t-90 -31.5t-90 31.5t-51 79.5q0 5 5 5h18q6 0 10 -4q50 -50 108 -50q32 0 60 13t48 37q4 4 10 4z" />
    <glyph glyph-name="ibreve" unicode="&#x12d;" horiz-adv-x="150" 
d="M34 356v338q0 6 6 6h70q6 0 6 -6v-338q0 -6 -6 -6h-70q-6 0 -6 6zM-6 243v46q0 6 6 6h150q6 0 6 -6v-46q0 -6 -6 -6h-150q-6 0 -6 6zM164 826.5q2 -1.5 1 -3.5q-10 -35 -32.5 -54.5t-57.5 -19.5t-57.5 19.5t-32.5 54.5q-1 2 1 3.5t4 1.5h21q5 0 8 -4q21 -30 56 -30t56 30
q3 4 8 4h21q2 0 4 -1.5z" />
    <glyph glyph-name="Iogonek" unicode="&#x12e;" horiz-adv-x="264" 
d="M214 694v-688q0 -6 -6 -6h-10q-35 -20 -67.5 -52.5t-32.5 -58.5q0 -35 37 -35q13 0 27 4.5t17 4.5q6 0 6 -5v-38q0 -5 -6 -8q-36 -19 -72 -19q-34 0 -57.5 20t-23.5 54q0 47 32 80.5t78 52.5h-80q-6 0 -6 6v688q0 6 6 6h152q6 0 6 -6z" />
    <glyph glyph-name="iogonek" unicode="&#x12f;" horiz-adv-x="150" 
d="M25 756v88q0 6 6 6h88q6 0 6 -6v-88q0 -6 -6 -6h-88q-6 0 -6 6zM156 289v-46q0 -6 -6 -6h-113q4 -10 13 -16t22 -6t24.5 4.5t14.5 4.5q6 0 6 -5v-18q0 -4 -6 -9q-8 -6 -24 -10.5t-33 -4.5q-31 0 -51 18t-20 52q0 19 11 39v3q0 6 6 6q23 32 66 55h-26q-6 0 -6 6v338
q0 6 6 6h70q6 0 6 -6v-338q0 -6 -6 -6q-42 -23 -63 -55h103q6 0 6 -6z" />
    <glyph glyph-name="Idotaccent" unicode="&#x130;" horiz-adv-x="264" 
d="M50 6v688q0 6 6 6h152q6 0 6 -6v-688q0 -6 -6 -6h-152q-6 0 -6 6zM189 774h-114q-6 0 -6 6v114q0 6 6 6h114q6 0 6 -6v-114q0 -6 -6 -6z" />
    <glyph glyph-name="dotlessi" unicode="&#x131;" horiz-adv-x="150" 
d="M34 356v338q0 6 6 6h70q6 0 6 -6v-338q0 -6 -6 -6h-70q-6 0 -6 6zM-6 243v46q0 6 6 6h150q6 0 6 -6v-46q0 -6 -6 -6h-150q-6 0 -6 6z" />
    <glyph glyph-name="IJ" unicode="&#x132;" horiz-adv-x="752" 
d="M50 6v688q0 6 6 6h152q6 0 6 -6v-688q0 -6 -6 -6h-152q-6 0 -6 6zM340.5 19q-62.5 36 -73.5 125q0 6 5 7l146 34q6 0 6 -5q0 -83 66 -83q29 0 44.5 18.5t15.5 63.5v515q0 6 6 6h152q6 0 6 -6v-515q0 -107 -63 -151.5t-161 -44.5q-87 0 -149.5 36z" />
    <glyph glyph-name="ij" unicode="&#x133;" horiz-adv-x="402" 
d="M34 356v338q0 6 6 6h70q6 0 6 -6v-338q0 -6 -6 -6h-70q-6 0 -6 6zM187.5 362.5q-31.5 17.5 -36.5 58.5q0 7 4 8l69 16q5 0 5 -5q0 -37 33 -37q14 0 21 8t7 31v252q0 6 6 6h70q6 0 6 -6v-252q0 -53 -31 -75t-79 -22q-43 0 -74.5 17.5zM408 289v-46q0 -6 -6 -6h-402
q-6 0 -6 6v46q0 6 6 6h402q6 0 6 -6z" />
    <glyph glyph-name="Jcircumflex" unicode="&#x134;" horiz-adv-x="490" 
d="M78.5 19q-62.5 36 -73.5 125q0 6 5 7l146 34q6 0 6 -5q0 -83 66 -83q29 0 44.5 18.5t15.5 63.5v515q0 6 6 6h152q6 0 6 -6v-515q0 -107 -63 -151.5t-161 -44.5q-87 0 -149.5 36zM250 803q44 0 62 23t18 49q0 5 5 5h70q5 0 5 -5q0 -26 18 -49t62 -23q5 0 5 -5v-23
q0 -5 -5 -7q-19 -7 -39 -7q-21 0 -39.5 8.5t-37.5 27.5q-2 2 -4 2t-4 -2q-19 -19 -37.5 -27.5t-39.5 -8.5q-20 0 -39 7q-5 2 -5 7v23q0 5 5 5z" />
    <glyph glyph-name="jcircumflex" unicode="&#x135;" horiz-adv-x="252" 
d="M37.5 362.5q-31.5 17.5 -36.5 58.5q0 7 4 8l69 16q5 0 5 -5q0 -37 33 -37q14 0 21 8t7 31v252q0 6 6 6h70q6 0 6 -6v-252q0 -53 -31 -75t-79 -22q-43 0 -74.5 17.5zM-6 243v46q0 6 6 6h252q6 0 6 -6v-46q0 -6 -6 -6h-252q-6 0 -6 6zM93 777q32 0 46 17.5t14 36.5q0 4 4 4
h52q4 0 4 -4q0 -19 13.5 -36.5t46.5 -17.5q4 0 4 -3v-18q0 -3 -4 -5q-10 -5 -29 -5q-16 0 -29.5 6t-28.5 21q-1 1 -3 1t-3 -1q-15 -15 -28.5 -21t-29.5 -6q-19 0 -29 5q-4 2 -4 5v18q0 3 4 3z" />
    <glyph glyph-name="uni0136" unicode="&#x136;" horiz-adv-x="506" 
d="M50 6v688q0 6 6 6h152q6 0 6 -6v-249l145 250q3 5 8 5h125q7 0 7 -5l-2 -5l-152 -260l151 -423l1 -4q0 -3 -5 -3h-158q-4 0 -6 5l-81 256l-33 -55v-200q0 -6 -6 -6h-152q-6 0 -6 6zM259 -247l-24 36q-3 4 -3 6t5 4q22 8 26 27h-39q-6 0 -6 6v104q0 6 6 6h104q6 0 6 -6
v-97q0 -53 -68 -88q-3 -2 -7 2z" />
    <glyph glyph-name="uni0137" unicode="&#x137;" horiz-adv-x="261" 
d="M34 356v338q0 6 6 6h70q6 0 6 -6v-122l72 123q3 5 7 5h60q4 0 4 -3l-1 -4l-76 -128l75 -210q0 -5 -5 -5h-71q-6 0 -8 6l-40 124l-17 -27v-97q0 -6 -6 -6h-70q-6 0 -6 6zM-6 243v46q0 6 6 6h261q6 0 6 -6v-46q0 -6 -6 -6h-261q-6 0 -6 6zM129 46l-16 28q-2 3 -2 6q0 2 5 4
q22 8 26 27h-39q-6 0 -6 6v74q0 6 6 6h84q6 0 6 -6v-67q0 -30 -14 -48t-42 -32q-6 -3 -8 2z" />
    <glyph glyph-name="kgreenlandic" unicode="&#x138;" horiz-adv-x="261" 
d="M34 356v338q0 6 6 6h70q6 0 6 -6v-122l72 123q3 5 7 5h60q4 0 4 -3l-1 -4l-76 -128l75 -210q0 -5 -5 -5h-71q-6 0 -8 6l-40 124l-17 -27v-97q0 -6 -6 -6h-70q-6 0 -6 6zM-6 243v46q0 6 6 6h261q6 0 6 -6v-46q0 -6 -6 -6h-261q-6 0 -6 6z" />
    <glyph glyph-name="Lacute" unicode="&#x139;" horiz-adv-x="458" 
d="M50 6v688q0 6 6 6h152q6 0 6 -6v-580h214q6 0 6 -6v-102q0 -6 -6 -6h-372q-6 0 -6 6zM236 896l-1 -4l-80 -150q-3 -5 -9 -5h-61q-4 0 -4 4l1 4l50 150q2 5 7 5h92q5 0 5 -4z" />
    <glyph glyph-name="lacute" unicode="&#x13a;" horiz-adv-x="243" 
d="M34 356v338q0 6 6 6h70q6 0 6 -6v-286h104q6 0 6 -6v-46q0 -6 -6 -6h-180q-6 0 -6 6zM-6 243v46q0 6 6 6h243q6 0 6 -6v-46q0 -6 -6 -6h-243q-6 0 -6 6zM155 870q1 -2 0 -5l-63 -111q-3 -4 -7 -4h-44q-3 0 -4.5 2t-0.5 5l37 111q1 4 6 4h72q3 0 4 -2z" />
    <glyph glyph-name="uni013B" unicode="&#x13b;" horiz-adv-x="458" 
d="M50 6v688q0 6 6 6h152q6 0 6 -6v-580h214q6 0 6 -6v-102q0 -6 -6 -6h-372q-6 0 -6 6zM225 -247l-24 36q-3 4 -3 6t5 4q22 8 26 27h-39q-6 0 -6 6v104q0 6 6 6h104q6 0 6 -6v-97q0 -53 -68 -88q-3 -2 -7 2z" />
    <glyph glyph-name="uni013C" unicode="&#x13c;" horiz-adv-x="243" 
d="M34 356v338q0 6 6 6h70q6 0 6 -6v-286h104q6 0 6 -6v-46q0 -6 -6 -6h-180q-6 0 -6 6zM-6 243v46q0 6 6 6h243q6 0 6 -6v-46q0 -6 -6 -6h-243q-6 0 -6 6zM106 46l-16 28q-2 3 -2 6q0 2 5 4q22 8 26 27h-39q-6 0 -6 6v74q0 6 6 6h84q6 0 6 -6v-67q0 -30 -14 -48t-42 -32
q-6 -3 -8 2z" />
    <glyph glyph-name="Lcaron" unicode="&#x13d;" horiz-adv-x="458" 
d="M50 6v688q0 6 6 6h152q6 0 6 -6v-580h214q6 0 6 -6v-102q0 -6 -6 -6h-372q-6 0 -6 6zM417.5 552.5q-15.5 -24.5 -44.5 -33.5l-6 -1q-3 0 -5 2l-14 35l-2 5q0 4 4 5q13 5 19.5 11t7.5 18h-44q-6 0 -6 6v94q0 6 6 6h94q6 0 6 -6v-86q0 -31 -15.5 -55.5z" />
    <glyph glyph-name="lcaron" unicode="&#x13e;" horiz-adv-x="243" 
d="M34 356v338q0 6 6 6h70q6 0 6 -6v-286h104q6 0 6 -6v-46q0 -6 -6 -6h-180q-6 0 -6 6zM-6 243v46q0 6 6 6h243q6 0 6 -6v-46q0 -6 -6 -6h-243q-6 0 -6 6zM160 558l-12 30q-1 2 0 5t4 4q14 6 20.5 12t7.5 17h-32q-6 0 -6 6v62q0 6 6 6h71q6 0 6 -6v-63q0 -28 -16 -49
t-38 -27q-8 -2 -11 3z" />
    <glyph glyph-name="Ldot" unicode="&#x13f;" horiz-adv-x="458" 
d="M50 6v688q0 6 6 6h152q6 0 6 -6v-580h214q6 0 6 -6v-102q0 -6 -6 -6h-372q-6 0 -6 6zM412 300h-114q-6 0 -6 6v114q0 6 6 6h114q6 0 6 -6v-114q0 -6 -6 -6z" />
    <glyph glyph-name="ldot" unicode="&#x140;" horiz-adv-x="243" 
d="M34 356v338q0 6 6 6h70q6 0 6 -6v-286h104q6 0 6 -6v-46q0 -6 -6 -6h-180q-6 0 -6 6zM147 499v54q0 6 6 6h54q6 0 6 -6v-54q0 -6 -6 -6h-54q-6 0 -6 6zM-6 243v46q0 6 6 6h243q6 0 6 -6v-46q0 -6 -6 -6h-243q-6 0 -6 6z" />
    <glyph glyph-name="Lslash" unicode="&#x141;" horiz-adv-x="531" 
d="M123 6v233l-77 -28q-2 -1 -5 -1q-4 0 -5 4l-29 79q0 6 3 7l113 42v352q0 6 6 6h152q6 0 6 -6v-293l87 33q2 1 5 1q4 0 5 -4l29 -79q0 -6 -3 -7l-123 -45v-186h214q6 0 6 -6v-102q0 -6 -6 -6h-372q-6 0 -6 6z" />
    <glyph glyph-name="lslash" unicode="&#x142;" horiz-adv-x="256" 
d="M47 356v130l-23 -8l-4 -1q-3 0 -4 4l-12 34q0 7 3 8l40 14v157q0 6 6 6h70q6 0 6 -6v-127l25 9l4 1q3 0 4 -4l12 -34l1 -4q0 -2 -4 -4l-42 -15v-108h104q6 0 6 -6v-46q0 -6 -6 -6h-180q-6 0 -6 6zM-6 243v46q0 6 6 6h256q6 0 6 -6v-46q0 -6 -6 -6h-256q-6 0 -6 6z" />
    <glyph glyph-name="Nacute" unicode="&#x143;" horiz-adv-x="502" 
d="M50 6v688q0 6 6 6h115q6 0 8 -5l151 -312v311q0 6 6 6h110q6 0 6 -6v-688q0 -6 -6 -6h-116q-5 0 -8 5l-150 312v-311q0 -6 -6 -6h-110q-6 0 -6 6zM355 896l-1 -4l-80 -150q-3 -5 -9 -5h-61q-4 0 -4 4l1 4l50 150q2 5 7 5h92q5 0 5 -4z" />
    <glyph glyph-name="nacute" unicode="&#x144;" horiz-adv-x="263" 
d="M34 356v338q0 6 6 6h50q5 0 7 -5l74 -154v153q0 6 6 6h46q6 0 6 -6v-338q0 -6 -6 -6h-50q-4 0 -7 5l-74 154v-153q0 -6 -6 -6h-46q-6 0 -6 6zM-6 243v46q0 6 6 6h263q6 0 6 -6v-46q0 -6 -6 -6h-263q-6 0 -6 6zM212 870q1 -2 0 -5l-63 -111q-3 -4 -7 -4h-44q-3 0 -4.5 2
t-0.5 5l37 111q1 4 6 4h72q3 0 4 -2z" />
    <glyph glyph-name="uni0145" unicode="&#x145;" horiz-adv-x="502" 
d="M50 6v688q0 6 6 6h115q6 0 8 -5l151 -312v311q0 6 6 6h110q6 0 6 -6v-688q0 -6 -6 -6h-116q-5 0 -8 5l-150 312v-311q0 -6 -6 -6h-110q-6 0 -6 6zM234 -247l-24 36q-3 4 -3 6t5 4q22 8 26 27h-39q-6 0 -6 6v104q0 6 6 6h104q6 0 6 -6v-97q0 -53 -68 -88q-3 -2 -7 2z" />
    <glyph glyph-name="uni0146" unicode="&#x146;" horiz-adv-x="263" 
d="M34 356v338q0 6 6 6h50q5 0 7 -5l74 -154v153q0 6 6 6h46q6 0 6 -6v-338q0 -6 -6 -6h-50q-4 0 -7 5l-74 154v-153q0 -6 -6 -6h-46q-6 0 -6 6zM-6 243v46q0 6 6 6h263q6 0 6 -6v-46q0 -6 -6 -6h-263q-6 0 -6 6zM116 46l-16 28q-2 3 -2 6q0 2 5 4q22 8 26 27h-39q-6 0 -6 6
v74q0 6 6 6h84q6 0 6 -6v-67q0 -30 -14 -48t-42 -32q-6 -3 -8 2z" />
    <glyph glyph-name="Ncaron" unicode="&#x147;" horiz-adv-x="502" 
d="M50 6v688q0 6 6 6h115q6 0 8 -5l151 -312v311q0 6 6 6h110q6 0 6 -6v-688q0 -6 -6 -6h-116q-5 0 -8 5l-150 312v-311q0 -6 -6 -6h-110q-6 0 -6 6zM211 766q0 26 -18 49t-62 23q-5 0 -5 5v23q0 5 5 7q19 7 39 7q21 0 39.5 -8.5t37.5 -27.5q2 -2 4 -2t4 2q19 19 37.5 27.5
t39.5 8.5q20 0 39 -7q5 -2 5 -7v-23q0 -5 -5 -5q-44 0 -62 -23t-18 -49q0 -5 -5 -5h-70q-5 0 -5 5z" />
    <glyph glyph-name="ncaron" unicode="&#x148;" horiz-adv-x="263" 
d="M34 356v338q0 6 6 6h50q5 0 7 -5l74 -154v153q0 6 6 6h46q6 0 6 -6v-338q0 -6 -6 -6h-50q-4 0 -7 5l-74 154v-153q0 -6 -6 -6h-46q-6 0 -6 6zM-6 243v46q0 6 6 6h263q6 0 6 -6v-46q0 -6 -6 -6h-263q-6 0 -6 6zM102 750q0 19 -14 36.5t-46 17.5q-4 0 -4 3v18q0 3 4 5
q10 5 29 5q16 0 29.5 -6t28.5 -21q1 -1 3 -1t3 1q15 15 28.5 21t29.5 6q19 0 29 -5q4 -2 4 -5v-18q0 -3 -4 -3q-33 0 -46.5 -17.5t-13.5 -36.5q0 -4 -4 -4h-52q-4 0 -4 4z" />
    <glyph glyph-name="Eng" unicode="&#x14a;" horiz-adv-x="502" 
d="M270 -207v94q0 4 2.5 7t6.5 3q25 3 38 22t13 60v21l-158 317v-311q0 -6 -6 -6h-110q-6 0 -6 6v688q0 6 6 6h115q6 0 8 -5l151 -312v311q0 6 6 6h110q6 0 6 -6v-715q0 -104 -48 -148.5t-124 -47.5q-10 0 -10 10z" />
    <glyph glyph-name="eng" unicode="&#x14b;" horiz-adv-x="263" 
d="M131 311v46q0 6 6 6q22 0 22 29v3l-67 124v-163q0 -6 -6 -6h-46q-6 0 -6 6v338q0 6 6 6h50q5 0 7 -5l74 -154v153q0 6 6 6h46q6 0 6 -6v-292q0 -93 -92 -97q-6 0 -6 6zM-6 243v46q0 6 6 6h263q6 0 6 -6v-46q0 -6 -6 -6h-263q-6 0 -6 6z" />
    <glyph glyph-name="Omacron" unicode="&#x14c;" horiz-adv-x="524" 
d="M103 26q-65 43 -65 151v346q0 108 65 151t159 43t159 -43t65 -151v-346q0 -108 -65 -151t-159 -43t-159 43zM307 114.5q15 17.5 15 62.5v346q0 45 -15 62.5t-45 17.5t-45 -17.5t-15 -62.5v-346q0 -45 15.5 -62.5t44.5 -17.5q30 0 45 17.5zM369 784h-214q-6 0 -6 6v64
q0 6 6 6h214q6 0 6 -6v-64q0 -6 -6 -6z" />
    <glyph glyph-name="omacron" unicode="&#x14d;" horiz-adv-x="274" 
d="M57.5 366q-32.5 21 -32.5 76v166q0 55 32.5 76t79.5 21t79.5 -21t32.5 -76v-166q0 -55 -32.5 -76t-79.5 -21t-79.5 21zM159.5 411.5q7.5 8.5 7.5 30.5v166q0 22 -7.5 30.5t-22.5 8.5t-22.5 -8.5t-7.5 -30.5v-166q0 -22 7.5 -30.5t22.5 -8.5t22.5 8.5zM-6 243v46q0 6 6 6
h274q6 0 6 -6v-46q0 -6 -6 -6h-274q-6 0 -6 6zM67 815q2 2 4 2h132q2 0 4 -2t2 -4v-46q0 -2 -2 -4t-4 -2h-132q-2 0 -4 2t-2 4v46q0 2 2 4z" />
    <glyph glyph-name="Obreve" unicode="&#x14e;" horiz-adv-x="524" 
d="M103 26q-65 43 -65 151v346q0 108 65 151t159 43t159 -43t65 -151v-346q0 -108 -65 -151t-159 -43t-159 43zM307 114.5q15 17.5 15 62.5v346q0 45 -15 62.5t-45 17.5t-45 -17.5t-15 -62.5v-346q0 -45 15.5 -62.5t44.5 -17.5q30 0 45 17.5zM380 873h18q5 0 5 -5
q-13 -48 -51 -79.5t-90 -31.5t-90 31.5t-51 79.5q0 5 5 5h18q6 0 10 -4q50 -50 108 -50q32 0 60 13t48 37q4 4 10 4z" />
    <glyph glyph-name="obreve" unicode="&#x14f;" horiz-adv-x="274" 
d="M57.5 366q-32.5 21 -32.5 76v166q0 55 32.5 76t79.5 21t79.5 -21t32.5 -76v-166q0 -55 -32.5 -76t-79.5 -21t-79.5 21zM159.5 411.5q7.5 8.5 7.5 30.5v166q0 22 -7.5 30.5t-22.5 8.5t-22.5 -8.5t-7.5 -30.5v-166q0 -22 7.5 -30.5t22.5 -8.5t22.5 8.5zM-6 243v46q0 6 6 6
h274q6 0 6 -6v-46q0 -6 -6 -6h-274q-6 0 -6 6zM226 826.5q2 -1.5 1 -3.5q-10 -35 -32.5 -54.5t-57.5 -19.5t-57.5 19.5t-32.5 54.5q-1 2 1 3.5t4 1.5h21q5 0 8 -4q21 -30 56 -30t56 30q3 4 8 4h21q2 0 4 -1.5z" />
    <glyph glyph-name="Ohungarumlaut" unicode="&#x150;" horiz-adv-x="524" 
d="M103 26q-65 43 -65 151v346q0 108 65 151t159 43t159 -43t65 -151v-346q0 -108 -65 -151t-159 -43t-159 43zM307 114.5q15 17.5 15 62.5v346q0 45 -15 62.5t-45 17.5t-45 -17.5t-15 -62.5v-346q0 -45 15.5 -62.5t44.5 -17.5q30 0 45 17.5zM291 897l-1 -4l-80 -150
q-3 -5 -9 -5h-61q-4 0 -4 4l1 4l50 150q2 5 7 5h92q5 0 5 -4zM450 897l-1 -4l-80 -150q-3 -5 -9 -5h-61q-4 0 -4 4l1 4l50 150q2 5 7 5h92q5 0 5 -4z" />
    <glyph glyph-name="ohungarumlaut" unicode="&#x151;" horiz-adv-x="274" 
d="M57.5 366q-32.5 21 -32.5 76v166q0 55 32.5 76t79.5 21t79.5 -21t32.5 -76v-166q0 -55 -32.5 -76t-79.5 -21t-79.5 21zM159.5 411.5q7.5 8.5 7.5 30.5v166q0 22 -7.5 30.5t-22.5 8.5t-22.5 -8.5t-7.5 -30.5v-166q0 -22 7.5 -30.5t22.5 -8.5t22.5 8.5zM-6 243v46q0 6 6 6
h274q6 0 6 -6v-46q0 -6 -6 -6h-274q-6 0 -6 6zM159 870q1 -2 0 -5l-63 -111q-3 -4 -7 -4h-44q-3 0 -4.5 2t-0.5 5l37 111q1 4 6 4h72q3 0 4 -2zM271 870q1 -2 0 -5l-63 -111q-3 -4 -7 -4h-44q-3 0 -4.5 2t-0.5 5l37 111q1 4 6 4h72q3 0 4 -2z" />
    <glyph glyph-name="OE" unicode="&#x152;" horiz-adv-x="727" 
d="M103 43q-65 43 -65 151v312q0 108 65 151t159 43h423q6 0 6 -6v-102q0 -6 -6 -6h-214v-146h186q6 0 6 -6v-102q0 -6 -6 -6h-186v-212h214q6 0 6 -6v-102q0 -6 -6 -6h-423q-94 0 -159 43zM307 114v472h-45q-30 0 -45 -17.5t-15 -62.5v-312q0 -45 15.5 -62.5t44.5 -17.5h45
z" />
    <glyph glyph-name="oe" unicode="&#x153;" horiz-adv-x="382" 
d="M56.5 369q-31.5 19 -31.5 73v166q0 54 31.5 73t80.5 19h216q6 0 6 -6v-46q0 -6 -6 -6h-104v-71h91q6 0 6 -6v-46q0 -6 -6 -6h-91v-105h104q6 0 6 -6v-46q0 -6 -6 -6h-216q-49 0 -80.5 19zM167 408v234h-30q-16 0 -23 -6.5t-7 -27.5v-166q0 -21 7 -27.5t23 -6.5h30z
M-6 243v46q0 6 6 6h382q6 0 6 -6v-46q0 -6 -6 -6h-382q-6 0 -6 6z" />
    <glyph glyph-name="Racute" unicode="&#x154;" horiz-adv-x="507" 
d="M50 6v688q0 6 6 6h221q79 0 133 -45.5t54 -149.5q0 -122 -86 -171l116 -324l1 -6q0 -4 -6 -4h-156q-4 0 -5 4l-94 306h-20v-304q0 -6 -6 -6h-152q-6 0 -6 6zM240 424q29 0 44.5 18t15.5 63t-15.5 63t-44.5 18h-26v-162h26zM338 896l-1 -4l-80 -150q-3 -5 -9 -5h-61
q-4 0 -4 4l1 4l50 150q2 5 7 5h92q5 0 5 -4z" />
    <glyph glyph-name="racute" unicode="&#x155;" horiz-adv-x="264" 
d="M34 356v338q0 6 6 6h108q39 0 66 -23t27 -75q0 -60 -43 -85l58 -159l1 -5q0 -3 -4 -3h-75q-4 0 -6 5l-46 150h-10v-149q0 -6 -6 -6h-70q-6 0 -6 6zM129 563q15 0 22.5 8.5t7.5 30.5q0 23 -7.5 31.5t-22.5 8.5h-13v-79h13zM-6 243v46q0 6 6 6h264q6 0 6 -6v-46q0 -6 -6 -6
h-264q-6 0 -6 6zM209 870q1 -2 0 -5l-63 -111q-3 -4 -7 -4h-44q-3 0 -4.5 2t-0.5 5l37 111q1 4 6 4h72q3 0 4 -2z" />
    <glyph glyph-name="uni0156" unicode="&#x156;" horiz-adv-x="507" 
d="M50 6v688q0 6 6 6h221q79 0 133 -45.5t54 -149.5q0 -122 -86 -171l116 -324l1 -6q0 -4 -6 -4h-156q-4 0 -5 4l-94 306h-20v-304q0 -6 -6 -6h-152q-6 0 -6 6zM240 424q29 0 44.5 18t15.5 63t-15.5 63t-44.5 18h-26v-162h26zM255 -247l-24 36q-3 4 -3 6t5 4q22 8 26 27h-39
q-6 0 -6 6v104q0 6 6 6h104q6 0 6 -6v-97q0 -53 -68 -88q-3 -2 -7 2z" />
    <glyph glyph-name="uni0157" unicode="&#x157;" horiz-adv-x="264" 
d="M34 356v338q0 6 6 6h108q39 0 66 -23t27 -75q0 -60 -43 -85l58 -159l1 -5q0 -3 -4 -3h-75q-4 0 -6 5l-46 150h-10v-149q0 -6 -6 -6h-70q-6 0 -6 6zM129 563q15 0 22.5 8.5t7.5 30.5q0 23 -7.5 31.5t-22.5 8.5h-13v-79h13zM-6 243v46q0 6 6 6h264q6 0 6 -6v-46q0 -6 -6 -6
h-264q-6 0 -6 6zM130 46l-16 28q-2 3 -2 6q0 2 5 4q22 8 26 27h-39q-6 0 -6 6v74q0 6 6 6h84q6 0 6 -6v-67q0 -30 -14 -48t-42 -32q-6 -3 -8 2z" />
    <glyph glyph-name="Rcaron" unicode="&#x158;" horiz-adv-x="507" 
d="M50 6v688q0 6 6 6h221q79 0 133 -45.5t54 -149.5q0 -122 -86 -171l116 -324l1 -6q0 -4 -6 -4h-156q-4 0 -5 4l-94 306h-20v-304q0 -6 -6 -6h-152q-6 0 -6 6zM240 424q29 0 44.5 18t15.5 63t-15.5 63t-44.5 18h-26v-162h26zM194 766q0 26 -18 49t-62 23q-5 0 -5 5v23
q0 5 5 7q19 7 39 7q21 0 39.5 -8.5t37.5 -27.5q2 -2 4 -2t4 2q19 19 37.5 27.5t39.5 8.5q20 0 39 -7q5 -2 5 -7v-23q0 -5 -5 -5q-44 0 -62 -23t-18 -49q0 -5 -5 -5h-70q-5 0 -5 5z" />
    <glyph glyph-name="rcaron" unicode="&#x159;" horiz-adv-x="264" 
d="M34 356v338q0 6 6 6h108q39 0 66 -23t27 -75q0 -60 -43 -85l58 -159l1 -5q0 -3 -4 -3h-75q-4 0 -6 5l-46 150h-10v-149q0 -6 -6 -6h-70q-6 0 -6 6zM129 563q15 0 22.5 8.5t7.5 30.5q0 23 -7.5 31.5t-22.5 8.5h-13v-79h13zM-6 243v46q0 6 6 6h264q6 0 6 -6v-46q0 -6 -6 -6
h-264q-6 0 -6 6zM99 750q0 19 -14 36.5t-46 17.5q-4 0 -4 3v18q0 3 4 5q10 5 29 5q16 0 29.5 -6t28.5 -21q1 -1 3 -1t3 1q15 15 28.5 21t29.5 6q19 0 29 -5q4 -2 4 -5v-18q0 -3 -4 -3q-33 0 -46.5 -17.5t-13.5 -36.5q0 -4 -4 -4h-52q-4 0 -4 4z" />
    <glyph glyph-name="Sacute" unicode="&#x15a;" horiz-adv-x="503" 
d="M90.5 25.5q-56.5 42.5 -65.5 118.5q0 6 4 7l147 34q5 0 5 -5q2 -46 18.5 -64.5t47.5 -18.5q66 0 66 83q0 41 -28.5 70t-87.5 68q-51 33 -81.5 59t-52 64t-21.5 89q0 93 58.5 140t148.5 47q87 0 143 -39.5t67 -120.5q0 -6 -5 -7l-138 -32q-6 0 -6 4q-2 41 -19 61t-42 20
t-41 -15t-16 -42q0 -25 23.5 -46.5t74.5 -54.5q57 -36 94.5 -67.5t65 -78.5t27.5 -109q0 -69 -31 -115.5t-82.5 -69t-114.5 -22.5q-102 0 -158.5 42.5zM354 896l-1 -4l-80 -150q-3 -5 -9 -5h-61q-4 0 -4 4l1 4l50 150q2 5 7 5h92q5 0 5 -4z" />
    <glyph glyph-name="sacute" unicode="&#x15b;" horiz-adv-x="259" 
d="M50.5 365q-27.5 20 -32.5 56q0 5 5 7l67 16q4 0 4 -6q1 -19 9.5 -27t23.5 -8q16 0 23.5 8.5t7.5 29.5q0 20 -13.5 34t-42.5 34q-37 25 -56 46.5t-19 57.5q0 46 28.5 69t72.5 23q42 0 69 -19t33 -57q0 -6 -6 -8l-60 -14q-6 0 -6 6q-1 16 -9.5 25t-20.5 9t-20 -7t-8 -20
q0 -12 11.5 -22t36.5 -27q43 -27 67.5 -54t24.5 -71q0 -50 -32.5 -75.5t-79.5 -25.5q-50 0 -77.5 20zM-6 243v46q0 6 6 6h259q6 0 6 -6v-46q0 -6 -6 -6h-259q-6 0 -6 6zM210 870q1 -2 0 -5l-63 -111q-3 -4 -7 -4h-44q-3 0 -4.5 2t-0.5 5l37 111q1 4 6 4h72q3 0 4 -2z" />
    <glyph glyph-name="Scircumflex" unicode="&#x15c;" horiz-adv-x="503" 
d="M90.5 25.5q-56.5 42.5 -65.5 118.5q0 6 4 7l147 34q5 0 5 -5q2 -46 18.5 -64.5t47.5 -18.5q66 0 66 83q0 41 -28.5 70t-87.5 68q-51 33 -81.5 59t-52 64t-21.5 89q0 93 58.5 140t148.5 47q87 0 143 -39.5t67 -120.5q0 -6 -5 -7l-138 -32q-6 0 -6 4q-2 41 -19 61t-42 20
t-41 -15t-16 -42q0 -25 23.5 -46.5t74.5 -54.5q57 -36 94.5 -67.5t65 -78.5t27.5 -109q0 -69 -31 -115.5t-82.5 -69t-114.5 -22.5q-102 0 -158.5 42.5zM130 803q44 0 62 23t18 49q0 5 5 5h70q5 0 5 -5q0 -26 18 -49t62 -23q5 0 5 -5v-23q0 -5 -5 -7q-19 -7 -39 -7
q-21 0 -39.5 8.5t-37.5 27.5q-2 2 -4 2t-4 -2q-19 -19 -37.5 -27.5t-39.5 -8.5q-20 0 -39 7q-5 2 -5 7v23q0 5 5 5z" />
    <glyph glyph-name="scircumflex" unicode="&#x15d;" horiz-adv-x="259" 
d="M50.5 365q-27.5 20 -32.5 56q0 5 5 7l67 16q4 0 4 -6q1 -19 9.5 -27t23.5 -8q16 0 23.5 8.5t7.5 29.5q0 20 -13.5 34t-42.5 34q-37 25 -56 46.5t-19 57.5q0 46 28.5 69t72.5 23q42 0 69 -19t33 -57q0 -6 -6 -8l-60 -14q-6 0 -6 6q-1 16 -9.5 25t-20.5 9t-20 -7t-8 -20
q0 -12 11.5 -22t36.5 -27q43 -27 67.5 -54t24.5 -71q0 -50 -32.5 -75.5t-79.5 -25.5q-50 0 -77.5 20zM-6 243v46q0 6 6 6h259q6 0 6 -6v-46q0 -6 -6 -6h-259q-6 0 -6 6zM40 777q32 0 46 17.5t14 36.5q0 4 4 4h52q4 0 4 -4q0 -19 13.5 -36.5t46.5 -17.5q4 0 4 -3v-18
q0 -3 -4 -5q-10 -5 -29 -5q-16 0 -29.5 6t-28.5 21q-1 1 -3 1t-3 -1q-15 -15 -28.5 -21t-29.5 -6q-19 0 -29 5q-4 2 -4 5v18q0 3 4 3z" />
    <glyph glyph-name="Scedilla" unicode="&#x15e;" horiz-adv-x="503" 
d="M415.5 38.5q-61.5 -52.5 -154.5 -55.5l-27 -34q58 0 96.5 -22t38.5 -72q0 -39 -31.5 -64t-80.5 -25q-29 0 -58 6t-49 14q-5 2 -5 7v36q0 5 5 5q5 -1 28 -5.5t49 -4.5q27 0 45 11t18 32q0 43 -51 43q-24 0 -36 -6q-4 -2 -5 -2q-3 0 -5 2l-26 21q-2 2 -2 4q0 3 2 5l40 51
q-82 9 -128 50t-54 109q0 6 4 7l147 34q5 0 5 -5q2 -46 18.5 -64.5t47.5 -18.5q66 0 66 83q0 41 -28.5 70t-87.5 68q-51 33 -81.5 59t-52 64t-21.5 89q0 93 58.5 140t148.5 47q87 0 143 -39.5t67 -120.5q0 -6 -5 -7l-138 -32q-6 0 -6 4q-2 41 -19 61t-42 20t-41 -15t-16 -42
q0 -25 23.5 -46.5t74.5 -54.5q57 -36 94.5 -67.5t65 -78.5t27.5 -109q0 -99 -61.5 -151.5z" />
    <glyph glyph-name="scedilla" unicode="&#x15f;" horiz-adv-x="259" 
d="M265 289v-46q0 -6 -6 -6h-63q-6 -26 -25.5 -39.5t-45.5 -13.5q-28 0 -50 9q-5 2 -5 4v18q0 4 4 4q3 0 13.5 -3t22.5 -3q31 0 40 24h-150q-6 0 -6 6v46q0 6 6 6h153q-4 18 -26 18q-9 0 -16 -5q-2 -2 -5 0l-14 12q-2 3 0 5l17 21q-41 4 -64 23.5t-27 51.5q0 5 5 7l67 16
q4 0 4 -6q1 -19 9.5 -27t23.5 -8q16 0 23.5 8.5t7.5 29.5q0 20 -13.5 34t-42.5 34q-37 25 -56 46.5t-19 57.5q0 46 28.5 69t72.5 23q42 0 69 -19t33 -57q0 -6 -6 -8l-60 -14q-6 0 -6 6q-1 16 -9.5 25t-20.5 9t-20 -7t-8 -20q0 -12 11.5 -22t36.5 -27q43 -27 67.5 -54
t24.5 -71q0 -47 -30 -73t-75 -28l-10 -13q54 0 70 -37h64q6 0 6 -6z" />
    <glyph glyph-name="Scaron" unicode="&#x160;" horiz-adv-x="503" 
d="M90.5 25.5q-56.5 42.5 -65.5 118.5q0 6 4 7l147 34q5 0 5 -5q2 -46 18.5 -64.5t47.5 -18.5q66 0 66 83q0 41 -28.5 70t-87.5 68q-51 33 -81.5 59t-52 64t-21.5 89q0 93 58.5 140t148.5 47q87 0 143 -39.5t67 -120.5q0 -6 -5 -7l-138 -32q-6 0 -6 4q-2 41 -19 61t-42 20
t-41 -15t-16 -42q0 -25 23.5 -46.5t74.5 -54.5q57 -36 94.5 -67.5t65 -78.5t27.5 -109q0 -69 -31 -115.5t-82.5 -69t-114.5 -22.5q-102 0 -158.5 42.5zM210 766q0 26 -18 49t-62 23q-5 0 -5 5v23q0 5 5 7q19 7 39 7q21 0 39.5 -8.5t37.5 -27.5q2 -2 4 -2t4 2
q19 19 37.5 27.5t39.5 8.5q20 0 39 -7q5 -2 5 -7v-23q0 -5 -5 -5q-44 0 -62 -23t-18 -49q0 -5 -5 -5h-70q-5 0 -5 5z" />
    <glyph glyph-name="scaron" unicode="&#x161;" horiz-adv-x="259" 
d="M50.5 365q-27.5 20 -32.5 56q0 5 5 7l67 16q4 0 4 -6q1 -19 9.5 -27t23.5 -8q16 0 23.5 8.5t7.5 29.5q0 20 -13.5 34t-42.5 34q-37 25 -56 46.5t-19 57.5q0 46 28.5 69t72.5 23q42 0 69 -19t33 -57q0 -6 -6 -8l-60 -14q-6 0 -6 6q-1 16 -9.5 25t-20.5 9t-20 -7t-8 -20
q0 -12 11.5 -22t36.5 -27q43 -27 67.5 -54t24.5 -71q0 -50 -32.5 -75.5t-79.5 -25.5q-50 0 -77.5 20zM-6 243v46q0 6 6 6h259q6 0 6 -6v-46q0 -6 -6 -6h-259q-6 0 -6 6zM100 750q0 19 -14 36.5t-46 17.5q-4 0 -4 3v18q0 3 4 5q10 5 29 5q16 0 29.5 -6t28.5 -21q1 -1 3 -1
t3 1q15 15 28.5 21t29.5 6q19 0 29 -5q4 -2 4 -5v-18q0 -3 -4 -3q-33 0 -46.5 -17.5t-13.5 -36.5q0 -4 -4 -4h-52q-4 0 -4 4z" />
    <glyph glyph-name="uni0162" unicode="&#x162;" horiz-adv-x="508" 
d="M491 694v-102q0 -6 -6 -6h-149v-580q0 -6 -6 -6h-54l-40 -51q58 0 96.5 -22t38.5 -72q0 -39 -31.5 -64t-80.5 -25q-29 0 -58 6t-49 14q-5 2 -5 7v36q0 5 5 5q5 -1 28 -5.5t49 -4.5q27 0 45 11t18 32q0 43 -51 43q-24 0 -36 -6q-4 -2 -5 -2q-3 0 -5 2l-26 21q-2 2 -2 4
q0 3 2 5l52 66h-43q-6 0 -6 6v580h-149q-6 0 -6 6v102q0 6 6 6h462q6 0 6 -6z" />
    <glyph glyph-name="uni0163" unicode="&#x163;" horiz-adv-x="254" 
d="M260 289v-46q0 -6 -6 -6h-61q-6 -26 -25.5 -39.5t-45.5 -13.5q-28 0 -50 9q-5 2 -5 4v18q0 4 4 4q3 0 13.5 -3t22.5 -3q31 0 40 24h-147q-6 0 -6 6v46q0 6 6 6h150q-4 18 -26 18q-9 0 -16 -5q-2 -2 -5 0l-14 12q-2 3 0 5l20 25h-17q-6 0 -6 6v286h-71q-6 0 -6 6v46
q0 6 6 6h224q6 0 6 -6v-46q0 -6 -6 -6h-71v-286q0 -6 -6 -6h-26l-14 -18q54 0 70 -37h62q6 0 6 -6z" />
    <glyph glyph-name="Tcaron" unicode="&#x164;" horiz-adv-x="508" 
d="M172 6v580h-149q-6 0 -6 6v102q0 6 6 6h462q6 0 6 -6v-102q0 -6 -6 -6h-149v-580q0 -6 -6 -6h-152q-6 0 -6 6zM214 766q0 26 -18 49t-62 23q-5 0 -5 5v23q0 5 5 7q19 7 39 7q21 0 39.5 -8.5t37.5 -27.5q2 -2 4 -2t4 2q19 19 37.5 27.5t39.5 8.5q20 0 39 -7q5 -2 5 -7v-23
q0 -5 -5 -5q-44 0 -62 -23t-18 -49q0 -5 -5 -5h-70q-5 0 -5 5z" />
    <glyph glyph-name="tcaron" unicode="&#x165;" horiz-adv-x="254" 
d="M86 356v286h-71q-6 0 -6 6v46q0 6 6 6h224q6 0 6 -6v-46q0 -6 -6 -6h-71v-286q0 -6 -6 -6h-70q-6 0 -6 6zM-6 243v46q0 6 6 6h254q6 0 6 -6v-46q0 -6 -6 -6h-254q-6 0 -6 6zM97 750q0 19 -14 36.5t-46 17.5q-4 0 -4 3v18q0 3 4 5q10 5 29 5q16 0 29.5 -6t28.5 -21
q1 -1 3 -1t3 1q15 15 28.5 21t29.5 6q19 0 29 -5q4 -2 4 -5v-18q0 -3 -4 -3q-33 0 -46.5 -17.5t-13.5 -36.5q0 -4 -4 -4h-52q-4 0 -4 4z" />
    <glyph glyph-name="Tbar" unicode="&#x166;" horiz-adv-x="508" 
d="M491 694v-102q0 -6 -6 -6h-149v-196h78q6 0 6 -6v-68q0 -6 -6 -6h-78v-304q0 -6 -6 -6h-152q-6 0 -6 6v304h-78q-6 0 -6 6v68q0 6 6 6h78v196h-149q-6 0 -6 6v102q0 6 6 6h462q6 0 6 -6z" />
    <glyph glyph-name="tbar" unicode="&#x167;" horiz-adv-x="254" 
d="M9 648v46q0 6 6 6h224q6 0 6 -6v-46q0 -6 -6 -6h-71v-93h41q6 0 6 -6v-36q0 -6 -6 -6h-41v-145q0 -6 -6 -6h-70q-6 0 -6 6v145h-41q-6 0 -6 6v36q0 6 6 6h41v93h-71q-6 0 -6 6zM260 289v-46q0 -6 -6 -6h-254q-6 0 -6 6v46q0 6 6 6h254q6 0 6 -6z" />
    <glyph glyph-name="Utilde" unicode="&#x168;" horiz-adv-x="491" 
d="M46 160v534q0 6 6 6h152q6 0 6 -6v-516q0 -45 15 -63t44 -18t44.5 18t15.5 63v516q0 6 6 6h114q6 0 6 -6v-534q0 -97 -57 -137t-147 -40q-205 0 -205 177zM294.5 764q-15.5 8 -32.5 22q-13 11 -22 16t-20 5q-13 0 -21 -11t-8 -32q0 -6 -6 -6h-34q-6 0 -8 6q-8 26 -8 43
q0 30 17 47.5t44 17.5q18 0 30 -5.5t32 -17.5q16 -11 28 -16.5t28 -5.5q34 0 34 37q0 6 6 6h34q3 0 4.5 -1.5t2.5 -4.5q8 -21 8 -42q0 -31 -19 -48.5t-51 -17.5q-23 0 -38.5 8z" />
    <glyph glyph-name="utilde" unicode="&#x169;" horiz-adv-x="260" 
d="M28 433v261q0 6 6 6h70q6 0 6 -6v-252q0 -23 7 -31t21 -8q15 0 22.5 8.5t7.5 30.5v252q0 6 6 6h52q6 0 6 -6v-261q0 -48 -29 -68t-74 -20q-101 0 -101 88zM-6 243v46q0 6 6 6h260q6 0 6 -6v-46q0 -6 -6 -6h-260q-6 0 -6 6zM155 751q-12 6 -25 17q-10 8 -16.5 11.5
t-14.5 3.5q-10 0 -16 -8.5t-6 -23.5q0 -5 -4 -5h-26q-4 0 -6 5q-6 18 -6 32q0 23 13 36t33 13q13 0 23 -4.5t23 -13.5q14 -8 22.5 -12t20.5 -4q25 0 25 28q0 4 5 4h25q5 0 6 -4q6 -18 6 -32q0 -23 -14.5 -36t-38.5 -13q-17 0 -29 6z" />
    <glyph glyph-name="Umacron" unicode="&#x16a;" horiz-adv-x="491" 
d="M46 160v534q0 6 6 6h152q6 0 6 -6v-516q0 -45 15 -63t44 -18t44.5 18t15.5 63v516q0 6 6 6h114q6 0 6 -6v-534q0 -97 -57 -137t-147 -40q-205 0 -205 177zM376 784h-214q-6 0 -6 6v64q0 6 6 6h214q6 0 6 -6v-64q0 -6 -6 -6z" />
    <glyph glyph-name="umacron" unicode="&#x16b;" horiz-adv-x="260" 
d="M28 433v261q0 6 6 6h70q6 0 6 -6v-252q0 -23 7 -31t21 -8q15 0 22.5 8.5t7.5 30.5v252q0 6 6 6h52q6 0 6 -6v-261q0 -48 -29 -68t-74 -20q-101 0 -101 88zM-6 243v46q0 6 6 6h260q6 0 6 -6v-46q0 -6 -6 -6h-260q-6 0 -6 6zM66 815q2 2 4 2h132q2 0 4 -2t2 -4v-46
q0 -2 -2 -4t-4 -2h-132q-2 0 -4 2t-2 4v46q0 2 2 4z" />
    <glyph glyph-name="Ubreve" unicode="&#x16c;" horiz-adv-x="491" 
d="M46 160v534q0 6 6 6h152q6 0 6 -6v-516q0 -45 15 -63t44 -18t44.5 18t15.5 63v516q0 6 6 6h114q6 0 6 -6v-534q0 -97 -57 -137t-147 -40q-205 0 -205 177zM387 873h18q5 0 5 -5q-13 -48 -51 -79.5t-90 -31.5t-90 31.5t-51 79.5q0 5 5 5h18q6 0 10 -4q50 -50 108 -50
q32 0 60 13t48 37q4 4 10 4z" />
    <glyph glyph-name="ubreve" unicode="&#x16d;" horiz-adv-x="260" 
d="M28 433v261q0 6 6 6h70q6 0 6 -6v-252q0 -23 7 -31t21 -8q15 0 22.5 8.5t7.5 30.5v252q0 6 6 6h52q6 0 6 -6v-261q0 -48 -29 -68t-74 -20q-101 0 -101 88zM-6 243v46q0 6 6 6h260q6 0 6 -6v-46q0 -6 -6 -6h-260q-6 0 -6 6zM225 826.5q2 -1.5 1 -3.5q-10 -35 -32.5 -54.5
t-57.5 -19.5t-57.5 19.5t-32.5 54.5q-1 2 1 3.5t4 1.5h21q5 0 8 -4q21 -30 56 -30t56 30q3 4 8 4h21q2 0 4 -1.5z" />
    <glyph glyph-name="Uring" unicode="&#x16e;" horiz-adv-x="491" 
d="M46 160v534q0 6 6 6h152q6 0 6 -6v-516q0 -45 15 -63t44 -18t44.5 18t15.5 63v516q0 6 6 6h114q6 0 6 -6v-534q0 -97 -57 -137t-147 -40q-205 0 -205 177zM198.5 763.5q-28.5 28.5 -28.5 70.5t28.5 70.5t70.5 28.5t70.5 -28.5t28.5 -70.5t-28.5 -70.5t-70.5 -28.5
t-70.5 28.5zM318 785q19 19 19 49t-19 49t-49 19t-49 -19t-19 -49t19 -49t49 -19t49 19z" />
    <glyph glyph-name="uring" unicode="&#x16f;" horiz-adv-x="260" 
d="M28 433v261q0 6 6 6h70q6 0 6 -6v-252q0 -23 7 -31t21 -8q15 0 22.5 8.5t7.5 30.5v252q0 6 6 6h52q6 0 6 -6v-261q0 -48 -29 -68t-74 -20q-101 0 -101 88zM-6 243v46q0 6 6 6h260q6 0 6 -6v-46q0 -6 -6 -6h-260q-6 0 -6 6zM83 767q-22 22 -22 53t22 53t53 22t53 -22
t22 -53t-22 -53t-53 -22t-53 22zM172.5 783.5q14.5 14.5 14.5 36.5t-14.5 36.5t-36.5 14.5t-36.5 -14.5t-14.5 -36.5t14.5 -36.5t36.5 -14.5t36.5 14.5z" />
    <glyph glyph-name="Uhungarumlaut" unicode="&#x170;" horiz-adv-x="491" 
d="M46 160v534q0 6 6 6h152q6 0 6 -6v-516q0 -45 15 -63t44 -18t44.5 18t15.5 63v516q0 6 6 6h114q6 0 6 -6v-534q0 -97 -57 -137t-147 -40q-205 0 -205 177zM298 897l-1 -4l-80 -150q-3 -5 -9 -5h-61q-4 0 -4 4l1 4l50 150q2 5 7 5h92q5 0 5 -4zM457 897l-1 -4l-80 -150
q-3 -5 -9 -5h-61q-4 0 -4 4l1 4l50 150q2 5 7 5h92q5 0 5 -4z" />
    <glyph glyph-name="uhungarumlaut" unicode="&#x171;" horiz-adv-x="260" 
d="M28 433v261q0 6 6 6h70q6 0 6 -6v-252q0 -23 7 -31t21 -8q15 0 22.5 8.5t7.5 30.5v252q0 6 6 6h52q6 0 6 -6v-261q0 -48 -29 -68t-74 -20q-101 0 -101 88zM-6 243v46q0 6 6 6h260q6 0 6 -6v-46q0 -6 -6 -6h-260q-6 0 -6 6zM158 870q1 -2 0 -5l-63 -111q-3 -4 -7 -4h-44
q-3 0 -4.5 2t-0.5 5l37 111q1 4 6 4h72q3 0 4 -2zM270 870q1 -2 0 -5l-63 -111q-3 -4 -7 -4h-44q-3 0 -4.5 2t-0.5 5l37 111q1 4 6 4h72q3 0 4 -2z" />
    <glyph glyph-name="Uogonek" unicode="&#x172;" horiz-adv-x="491" 
d="M455 694v-534q0 -123 -100 -161q-35 -20 -67 -52t-32 -58q0 -35 37 -35q13 0 27 4.5t17 4.5q6 0 6 -5v-38q0 -5 -6 -8q-36 -19 -72 -19q-34 0 -57.5 20t-23.5 54q0 38 21 67t55 49h-9q-205 0 -205 177v534q0 6 6 6h152q6 0 6 -6v-516q0 -45 15 -63t44 -18t44.5 18
t15.5 63v516q0 6 6 6h114q6 0 6 -6z" />
    <glyph glyph-name="uogonek" unicode="&#x173;" horiz-adv-x="260" 
d="M266 289v-46q0 -6 -6 -6h-155q4 -10 13 -16t22 -6t24.5 4.5t14.5 4.5q6 0 6 -5v-18q0 -4 -6 -9q-8 -6 -24 -10.5t-33 -4.5q-29 0 -48 15.5t-23 44.5h-51q-6 0 -6 6v46q0 6 6 6h68q19 28 57 50q-97 2 -97 88v261q0 6 6 6h70q6 0 6 -6v-252q0 -23 7 -31t21 -8
q15 0 22.5 8.5t7.5 30.5v252q0 6 6 6h52q6 0 6 -6v-261q0 -63 -52 -80q0 -2 -2 -3q-42 -23 -63 -55h145q6 0 6 -6z" />
    <glyph glyph-name="Wcircumflex" unicode="&#x174;" horiz-adv-x="676" 
d="M158 4l-151 688q0 4 1 6t6 2h153q6 0 7 -6l66 -316l61 317q1 5 5 5h108q5 0 6 -5l66 -317l60 316q1 6 6 6h110q5 0 6 -2t1 -6l-151 -688q-1 -4 -5 -4h-104q-4 0 -5 4l-66 310l-66 -310q-1 -4 -5 -4h-104q-4 0 -5 4zM244 803q44 0 62 23t18 49q0 5 5 5h70q5 0 5 -5
q0 -26 18 -49t62 -23q5 0 5 -5v-23q0 -5 -5 -7q-19 -7 -39 -7q-21 0 -39.5 8.5t-37.5 27.5q-2 2 -4 2t-4 -2q-19 -19 -37.5 -27.5t-39.5 -8.5q-20 0 -39 7q-5 2 -5 7v23q0 5 5 5z" />
    <glyph glyph-name="wcircumflex" unicode="&#x175;" horiz-adv-x="341" 
d="M80 355l-75 339q0 6 5 6h71q7 0 8 -6l33 -155l30 155q2 6 6 6h47q5 0 6 -6l33 -155l29 155q2 6 7 6h49q7 0 7 -6l-76 -339q-2 -5 -7 -5h-44q-5 0 -6 5l-32 152l-33 -152q-1 -5 -8 -5h-43q-6 0 -7 5zM-6 243v46q0 6 6 6h341q6 0 6 -6v-46q0 -6 -6 -6h-341q-6 0 -6 6z
M93 777q32 0 46 17.5t14 36.5q0 4 4 4h52q4 0 4 -4q0 -19 13.5 -36.5t46.5 -17.5q4 0 4 -3v-18q0 -3 -4 -5q-10 -5 -29 -5q-16 0 -29.5 6t-28.5 21q-1 1 -3 1t-3 -1q-15 -15 -28.5 -21t-29.5 -6q-19 0 -29 5q-4 2 -4 5v18q0 3 4 3z" />
    <glyph glyph-name="Ycircumflex" unicode="&#x176;" horiz-adv-x="517" 
d="M175 6v287l-167 399l-1 4q0 4 6 4h155q6 0 7 -4l102 -264l105 264q1 4 6 4h111q7 0 7 -4l-1 -4l-166 -399v-287q0 -6 -6 -6h-152q-6 0 -6 6zM162 803q44 0 62 23t18 49q0 5 5 5h70q5 0 5 -5q0 -26 18 -49t62 -23q5 0 5 -5v-23q0 -5 -5 -7q-19 -7 -39 -7q-21 0 -39.5 8.5
t-37.5 27.5q-2 2 -4 2t-4 -2q-19 -19 -37.5 -27.5t-39.5 -8.5q-20 0 -39 7q-5 2 -5 7v23q0 5 5 5z" />
    <glyph glyph-name="ycircumflex" unicode="&#x177;" horiz-adv-x="256" 
d="M86 356v140l-82 197l-1 4q0 3 4 3h73q5 0 7 -5l50 -129l51 129q3 5 7 5h51q5 0 5 -5l-83 -199v-140q0 -6 -6 -6h-70q-6 0 -6 6zM-6 243v46q0 6 6 6h256q6 0 6 -6v-46q0 -6 -6 -6h-256q-6 0 -6 6zM51 777q32 0 46 17.5t14 36.5q0 4 4 4h52q4 0 4 -4q0 -19 13.5 -36.5
t46.5 -17.5q4 0 4 -3v-18q0 -3 -4 -5q-10 -5 -29 -5q-16 0 -29.5 6t-28.5 21q-1 1 -3 1t-3 -1q-15 -15 -28.5 -21t-29.5 -6q-19 0 -29 5q-4 2 -4 5v18q0 3 4 3z" />
    <glyph glyph-name="Ydieresis" unicode="&#x178;" horiz-adv-x="517" 
d="M175 6v287l-167 399l-1 4q0 4 6 4h155q6 0 7 -4l102 -264l105 264q1 4 6 4h111q7 0 7 -4l-1 -4l-166 -399v-287q0 -6 -6 -6h-152q-6 0 -6 6zM244 794h-94q-6 0 -6 6v94q0 6 6 6h94q6 0 6 -6v-94q0 -6 -6 -6zM414 794h-94q-6 0 -6 6v94q0 6 6 6h94q6 0 6 -6v-94
q0 -6 -6 -6z" />
    <glyph glyph-name="Zacute" unicode="&#x179;" horiz-adv-x="466" 
d="M30 6v92q0 8 4 16l215 472h-213q-6 0 -6 6v102q0 6 6 6h390q6 0 6 -6v-94q0 -7 -4 -16l-216 -470h214q6 0 6 -6v-102q0 -6 -6 -6h-390q-6 0 -6 6zM342 896l-1 -4l-80 -150q-3 -5 -9 -5h-61q-4 0 -4 4l1 4l50 150q2 5 7 5h92q5 0 5 -4z" />
    <glyph glyph-name="zacute" unicode="&#x17a;" horiz-adv-x="238" 
d="M17 356v43q0 5 3 11l107 232h-104q-6 0 -6 6v46q0 6 6 6h189q6 0 6 -6v-42q0 -5 -3 -13l-107 -231h104q6 0 6 -6v-46q0 -6 -6 -6h-189q-6 0 -6 6zM-6 243v46q0 6 6 6h238q6 0 6 -6v-46q0 -6 -6 -6h-238q-6 0 -6 6zM199 870q1 -2 0 -5l-63 -111q-3 -4 -7 -4h-44
q-3 0 -4.5 2t-0.5 5l37 111q1 4 6 4h72q3 0 4 -2z" />
    <glyph glyph-name="Zdotaccent" unicode="&#x17b;" horiz-adv-x="466" 
d="M30 6v92q0 8 4 16l215 472h-213q-6 0 -6 6v102q0 6 6 6h390q6 0 6 -6v-94q0 -7 -4 -16l-216 -470h214q6 0 6 -6v-102q0 -6 -6 -6h-390q-6 0 -6 6zM295 774h-114q-6 0 -6 6v114q0 6 6 6h114q6 0 6 -6v-114q0 -6 -6 -6z" />
    <glyph glyph-name="zdotaccent" unicode="&#x17c;" horiz-adv-x="238" 
d="M17 356v43q0 5 3 11l107 232h-104q-6 0 -6 6v46q0 6 6 6h189q6 0 6 -6v-42q0 -5 -3 -13l-107 -231h104q6 0 6 -6v-46q0 -6 -6 -6h-189q-6 0 -6 6zM-6 243v46q0 6 6 6h238q6 0 6 -6v-46q0 -6 -6 -6h-238q-6 0 -6 6zM163 750h-88q-6 0 -6 6v88q0 6 6 6h88q6 0 6 -6v-88
q0 -6 -6 -6z" />
    <glyph glyph-name="Zcaron" unicode="&#x17d;" horiz-adv-x="466" 
d="M30 6v92q0 8 4 16l215 472h-213q-6 0 -6 6v102q0 6 6 6h390q6 0 6 -6v-94q0 -7 -4 -16l-216 -470h214q6 0 6 -6v-102q0 -6 -6 -6h-390q-6 0 -6 6zM198 766q0 26 -18 49t-62 23q-5 0 -5 5v23q0 5 5 7q19 7 39 7q21 0 39.5 -8.5t37.5 -27.5q2 -2 4 -2t4 2q19 19 37.5 27.5
t39.5 8.5q20 0 39 -7q5 -2 5 -7v-23q0 -5 -5 -5q-44 0 -62 -23t-18 -49q0 -5 -5 -5h-70q-5 0 -5 5z" />
    <glyph glyph-name="zcaron" unicode="&#x17e;" horiz-adv-x="238" 
d="M17 356v43q0 5 3 11l107 232h-104q-6 0 -6 6v46q0 6 6 6h189q6 0 6 -6v-42q0 -5 -3 -13l-107 -231h104q6 0 6 -6v-46q0 -6 -6 -6h-189q-6 0 -6 6zM-6 243v46q0 6 6 6h238q6 0 6 -6v-46q0 -6 -6 -6h-238q-6 0 -6 6zM89 750q0 19 -14 36.5t-46 17.5q-4 0 -4 3v18q0 3 4 5
q10 5 29 5q16 0 29.5 -6t28.5 -21q1 -1 3 -1t3 1q15 15 28.5 21t29.5 6q19 0 29 -5q4 -2 4 -5v-18q0 -3 -4 -3q-33 0 -46.5 -17.5t-13.5 -36.5q0 -4 -4 -4h-52q-4 0 -4 4z" />
    <glyph glyph-name="florin" unicode="&#x192;" horiz-adv-x="440" 
d="M409 694v-102q0 -6 -6 -6h-104v-86h91q6 0 6 -6v-102q0 -6 -6 -6h-91v-516q0 -6 -6 -6h-262q-6 0 -6 6v102q0 6 6 6h104v408h-91q-6 0 -6 6v102q0 6 6 6h91v194q0 6 6 6h262q6 0 6 -6z" />
    <glyph glyph-name="uni01B5" unicode="&#x1b5;" horiz-adv-x="466" 
d="M428 584l-85 -184h76q6 0 6 -6v-68q0 -6 -6 -6h-112l-95 -206h214q6 0 6 -6v-102q0 -6 -6 -6h-390q-6 0 -6 6v92q0 8 4 16l94 206h-88q-6 0 -6 6v68q0 6 6 6h124l85 186h-213q-6 0 -6 6v102q0 6 6 6h390q6 0 6 -6v-94q0 -7 -4 -16z" />
    <glyph glyph-name="uni01B6" unicode="&#x1b6;" horiz-adv-x="238" 
d="M17 356v43q0 5 3 11l42 92h-30q-6 0 -6 6v36q0 6 6 6h53l42 92h-104q-6 0 -6 6v46q0 6 6 6h189q6 0 6 -6v-42q0 -5 -3 -13l-41 -89h31q6 0 6 -6v-36q0 -6 -6 -6h-53l-44 -94h104q6 0 6 -6v-46q0 -6 -6 -6h-189q-6 0 -6 6zM244 289v-46q0 -6 -6 -6h-238q-6 0 -6 6v46
q0 6 6 6h238q6 0 6 -6z" />
    <glyph glyph-name="AEacute" unicode="&#x1fc;" horiz-adv-x="705" 
d="M8 6l204 689q2 5 8 5h443q6 0 6 -6v-102q0 -6 -6 -6h-214v-146h186q6 0 6 -6v-102q0 -6 -6 -6h-186v-212h214q6 0 6 -6v-102q0 -6 -6 -6h-372q-6 0 -6 6v83h-108l-22 -82q-2 -7 -11 -7h-129q-7 0 -7 6zM285 203v282l-78 -282h78zM497 896l-1 -4l-80 -150q-3 -5 -9 -5h-61
q-4 0 -4 4l1 4l50 150q2 5 7 5h92q5 0 5 -4z" />
    <glyph glyph-name="aeacute" unicode="&#x1fd;" horiz-adv-x="358" 
d="M6 355l100 340q2 5 7 5h216q6 0 6 -6v-46q0 -6 -6 -6h-104v-71h91q6 0 6 -6v-46q0 -6 -6 -6h-91v-105h104q6 0 6 -6v-46q0 -6 -6 -6h-180q-6 0 -6 6v38h-53l-11 -39q-2 -5 -7 -5h-62q-4 0 -4 5zM143 452v125l-38 -125h38zM-6 243v46q0 6 6 6h358q6 0 6 -6v-46q0 -6 -6 -6
h-358q-6 0 -6 6zM289 870q1 -2 0 -5l-63 -111q-3 -4 -7 -4h-44q-3 0 -4.5 2t-0.5 5l37 111q1 4 6 4h72q3 0 4 -2z" />
    <glyph glyph-name="uni0218" unicode="&#x218;" horiz-adv-x="503" 
d="M90.5 25.5q-56.5 42.5 -65.5 118.5q0 6 4 7l147 34q5 0 5 -5q2 -46 18.5 -64.5t47.5 -18.5q66 0 66 83q0 41 -28.5 70t-87.5 68q-51 33 -81.5 59t-52 64t-21.5 89q0 93 58.5 140t148.5 47q87 0 143 -39.5t67 -120.5q0 -6 -5 -7l-138 -32q-6 0 -6 4q-2 41 -19 61t-42 20
t-41 -15t-16 -42q0 -25 23.5 -46.5t74.5 -54.5q57 -36 94.5 -67.5t65 -78.5t27.5 -109q0 -69 -31 -115.5t-82.5 -69t-114.5 -22.5q-102 0 -158.5 42.5zM235 -247l-24 36q-3 4 -3 6t5 4q22 8 26 27h-39q-6 0 -6 6v104q0 6 6 6h104q6 0 6 -6v-97q0 -53 -68 -88q-3 -2 -7 2z
" />
    <glyph glyph-name="uni0219" unicode="&#x219;" horiz-adv-x="259" 
d="M50.5 365q-27.5 20 -32.5 56q0 5 5 7l67 16q4 0 4 -6q1 -19 9.5 -27t23.5 -8q16 0 23.5 8.5t7.5 29.5q0 20 -13.5 34t-42.5 34q-37 25 -56 46.5t-19 57.5q0 46 28.5 69t72.5 23q42 0 69 -19t33 -57q0 -6 -6 -8l-60 -14q-6 0 -6 6q-1 16 -9.5 25t-20.5 9t-20 -7t-8 -20
q0 -12 11.5 -22t36.5 -27q43 -27 67.5 -54t24.5 -71q0 -50 -32.5 -75.5t-79.5 -25.5q-50 0 -77.5 20zM-6 243v46q0 6 6 6h259q6 0 6 -6v-46q0 -6 -6 -6h-259q-6 0 -6 6zM114 46l-16 28q-2 3 -2 6q0 2 5 4q22 8 26 27h-39q-6 0 -6 6v74q0 6 6 6h84q6 0 6 -6v-67
q0 -30 -14 -48t-42 -32q-6 -3 -8 2z" />
    <glyph glyph-name="uni021A" unicode="&#x21a;" horiz-adv-x="508" 
d="M172 6v580h-149q-6 0 -6 6v102q0 6 6 6h462q6 0 6 -6v-102q0 -6 -6 -6h-149v-580q0 -6 -6 -6h-152q-6 0 -6 6zM237 -247l-24 36q-3 4 -3 6t5 4q22 8 26 27h-39q-6 0 -6 6v104q0 6 6 6h104q6 0 6 -6v-97q0 -53 -68 -88q-3 -2 -7 2z" />
    <glyph glyph-name="uni021B" unicode="&#x21b;" horiz-adv-x="254" 
d="M86 356v286h-71q-6 0 -6 6v46q0 6 6 6h224q6 0 6 -6v-46q0 -6 -6 -6h-71v-286q0 -6 -6 -6h-70q-6 0 -6 6zM-6 243v46q0 6 6 6h254q6 0 6 -6v-46q0 -6 -6 -6h-254q-6 0 -6 6zM111 46l-16 28q-2 3 -2 6q0 2 5 4q22 8 26 27h-39q-6 0 -6 6v74q0 6 6 6h84q6 0 6 -6v-67
q0 -30 -14 -48t-42 -32q-6 -3 -8 2z" />
    <glyph glyph-name="uni0237" unicode="&#x237;" horiz-adv-x="252" 
d="M37.5 362.5q-31.5 17.5 -36.5 58.5q0 7 4 8l69 16q5 0 5 -5q0 -37 33 -37q14 0 21 8t7 31v252q0 6 6 6h70q6 0 6 -6v-252q0 -53 -31 -75t-79 -22q-43 0 -74.5 17.5zM-6 243v46q0 6 6 6h252q6 0 6 -6v-46q0 -6 -6 -6h-252q-6 0 -6 6z" />
    <glyph glyph-name="circumflex" unicode="&#x2c6;" horiz-adv-x="318" 
d="M39 623q44 2 62 24.5t18 47.5q0 5 5 5h70q5 0 5 -5q0 -25 18 -47.5t62 -24.5q5 0 5 -5v-23q0 -5 -5 -7q-19 -7 -39 -7q-42 0 -77 36q-2 2 -4 2t-4 -2q-35 -36 -77 -36q-20 0 -39 7q-5 2 -5 7v23q0 5 5 5z" />
    <glyph glyph-name="caron" unicode="&#x2c7;" horiz-adv-x="318" 
d="M39 693q19 7 39 7q42 0 77 -36q2 -2 4 -2t4 2q35 36 77 36q20 0 39 -7q5 -2 5 -7v-23q0 -5 -5 -5q-44 -2 -62 -24.5t-18 -47.5q0 -5 -5 -5h-70q-5 0 -5 5q0 25 -18 47.5t-62 24.5q-5 0 -5 5v23q0 5 5 7z" />
    <glyph glyph-name="uni02C9" unicode="&#x2c9;" horiz-adv-x="286" 
d="M250 624h-214q-6 0 -6 6v64q0 6 6 6h214q6 0 6 -6v-64q0 -6 -6 -6z" />
    <glyph glyph-name="breve" unicode="&#x2d8;" horiz-adv-x="340" 
d="M288 700h18q5 0 5 -5q-13 -48 -51 -79.5t-90 -31.5t-90 31.5t-51 79.5q0 5 5 5h18q6 0 10 -4q50 -50 108 -50q32 0 60 13t48 37q4 4 10 4z" />
    <glyph glyph-name="dotaccent" unicode="&#x2d9;" horiz-adv-x="180" 
d="M147 574h-114q-6 0 -6 6v114q0 6 6 6h114q6 0 6 -6v-114q0 -6 -6 -6z" />
    <glyph glyph-name="ring" unicode="&#x2da;" horiz-adv-x="238" 
d="M189.5 688.5q28.5 -28.5 28.5 -70.5t-28.5 -70.5t-70.5 -28.5t-70.5 28.5t-28.5 70.5t28.5 70.5t70.5 28.5t70.5 -28.5zM70 667q-19 -19 -19 -49t19 -49t49 -19t49 19t19 49t-19 49t-49 19t-49 -19z" />
    <glyph glyph-name="ogonek" unicode="&#x2db;" horiz-adv-x="216" 
d="M126.5 -79.5q-32.5 -32.5 -32.5 -58.5q0 -35 37 -35q13 0 27 4.5t17 4.5q6 0 6 -5v-38q0 -5 -6 -8q-36 -19 -72 -19q-34 0 -57.5 20t-23.5 54q0 49 35 83.5t83 52.5q6 2 11 2h42q3 0 3 -2t-2 -3q-35 -20 -67.5 -52.5z" />
    <glyph glyph-name="tilde" unicode="&#x2dc;" horiz-adv-x="324" 
d="M187.5 594q-15.5 8 -32.5 22q-13 11 -22 16t-20 5q-13 0 -21 -11t-8 -32q0 -6 -6 -6h-34q-6 0 -8 6q-8 26 -8 43q0 30 17 47.5t44 17.5q18 0 30 -5.5t32 -17.5q16 -11 28 -16.5t28 -5.5q34 0 34 37q0 6 6 6h34q3 0 4.5 -1.5t2.5 -4.5q8 -21 8 -42q0 -31 -19 -48.5
t-51 -17.5q-23 0 -38.5 8z" />
    <glyph glyph-name="hungarumlaut" unicode="&#x2dd;" horiz-adv-x="387" 
d="M193 696l-1 -4l-80 -150q-2 -5 -9 -5h-61q-4 0 -4 4l1 4l50 150q2 5 7 5h92q5 0 5 -4zM352 696l-1 -4l-80 -150q-2 -5 -9 -5h-61q-4 0 -4 4l1 4l50 150q2 5 7 5h92q5 0 5 -4z" />
    <glyph glyph-name="gravecomb" unicode="&#x300;" 
d="M-108 754l-63 111q-1 3 0 5t4 2h72q5 0 6 -4l37 -111q1 -3 -0.5 -5t-4.5 -2h-44q-4 0 -7 4z" />
    <glyph glyph-name="acutecomb" unicode="&#x301;" 
d="M-52 870q1 -2 0 -5l-63 -111q-3 -4 -7 -4h-44q-3 0 -4.5 2t-0.5 5l37 111q1 4 6 4h72q3 0 4 -2z" />
    <glyph glyph-name="uni0302" unicode="&#x302;" 
d="M-224 777q32 0 46 17.5t14 36.5q0 4 4 4h52q4 0 4 -4q0 -19 13.5 -36.5t46.5 -17.5q4 0 4 -3v-18q0 -3 -4 -5q-10 -5 -29 -5q-16 0 -29.5 6t-28.5 21q-1 1 -3 1t-3 -1q-15 -15 -28.5 -21t-29.5 -6q-19 0 -29 5q-4 2 -4 5v18q0 3 4 3z" />
    <glyph glyph-name="tildecomb" unicode="&#x303;" 
d="M-112 751q-12 6 -25 17q-10 8 -16.5 11.5t-14.5 3.5q-10 0 -16 -8.5t-6 -23.5q0 -5 -4 -5h-26q-4 0 -6 5q-6 18 -6 32q0 23 13 36t33 13q13 0 23 -4.5t23 -13.5q14 -8 22.5 -12t20.5 -4q25 0 25 28q0 4 5 4h25q5 0 6 -4q6 -18 6 -32q0 -23 -14.5 -36t-38.5 -13
q-17 0 -29 6z" />
    <glyph glyph-name="uni0304" unicode="&#x304;" 
d="M-212 815q2 2 4 2h132q2 0 4 -2t2 -4v-46q0 -2 -2 -4t-4 -2h-132q-2 0 -4 2t-2 4v46q0 2 2 4z" />
    <glyph glyph-name="uni0306" unicode="&#x306;" 
d="M-41 826.5q2 -1.5 1 -3.5q-10 -35 -32.5 -54.5t-57.5 -19.5t-57.5 19.5t-32.5 54.5q-1 2 1 3.5t4 1.5h21q5 0 8 -4q21 -30 56 -30t56 30q3 4 8 4h21q2 0 4 -1.5z" />
    <glyph glyph-name="uni0307" unicode="&#x307;" 
d="M-46 750h-88q-6 0 -6 6v88q0 6 6 6h88q6 0 6 -6v-88q0 -6 -6 -6z" />
    <glyph glyph-name="uni0308" unicode="&#x308;" 
d="M-266 828q2 2 4 2h68q2 0 4 -2t2 -4v-68q0 -2 -2 -4t-4 -2h-68q-2 0 -4 2t-2 4v68q0 2 2 4zM-138 828q2 2 4 2h68q2 0 4 -2t2 -4v-68q0 -2 -2 -4t-4 -2h-68q-2 0 -4 2t-2 4v68q0 2 2 4z" />
    <glyph glyph-name="uni030A" unicode="&#x30a;" 
d="M-184 767q-22 22 -22 53t22 53t53 22t53 -22t22 -53t-22 -53t-53 -22t-53 22zM-94.5 783.5q14.5 14.5 14.5 36.5t-14.5 36.5t-36.5 14.5t-36.5 -14.5t-14.5 -36.5t14.5 -36.5t36.5 -14.5t36.5 14.5z" />
    <glyph glyph-name="uni030B" unicode="&#x30b;" 
d="M-170 870q1 -2 0 -5l-63 -111q-3 -4 -7 -4h-44q-3 0 -4.5 2t-0.5 5l37 111q1 4 6 4h72q3 0 4 -2zM-58 870q1 -2 0 -5l-63 -111q-3 -4 -7 -4h-44q-3 0 -4.5 2t-0.5 5l37 111q1 4 6 4h72q3 0 4 -2z" />
    <glyph glyph-name="uni030C" unicode="&#x30c;" 
d="M-164 750q0 19 -14 36.5t-46 17.5q-4 0 -4 3v18q0 3 4 5q10 5 29 5q16 0 29.5 -6t28.5 -21q1 -1 3 -1t3 1q15 15 28.5 21t29.5 6q19 0 29 -5q4 -2 4 -5v-18q0 -3 -4 -3q-33 0 -46.5 -17.5t-13.5 -36.5q0 -4 -4 -4h-52q-4 0 -4 4z" />
    <glyph glyph-name="uni0326" unicode="&#x326;" 
d="M-122 46l-16 28q-2 3 -2 6q0 2 5 4q22 8 26 27h-39q-6 0 -6 6v74q0 6 6 6h84q6 0 6 -6v-67q0 -30 -14 -48t-42 -32q-6 -3 -8 2z" />
    <glyph glyph-name="uni0327" unicode="&#x327;" 
d="M-74 -103.5q19 -17.5 19 -48.5q0 -40 -21.5 -61t-53.5 -21q-28 0 -50 9q-5 2 -5 4v18q0 4 4 4q3 0 13.5 -3t22.5 -3q45 0 45 53q0 27 -5.5 37t-22.5 10q-9 0 -16 -5q-3 -3 -5 0l-14 12q-3 2 0 5l39 49q2 1 3.5 1.5t2.5 -0.5l10 -9q2 -2 0 -5l-22 -29q37 0 56 -17.5z" />
    <glyph glyph-name="uni0328" unicode="&#x328;" 
d="M-77.5 -106q-20.5 -25 -20.5 -52q0 -18 10.5 -28t27.5 -10q13 0 24.5 4.5t14.5 4.5q6 0 6 -5v-18q0 -5 -6 -9q-8 -6 -24 -10.5t-33 -4.5q-31 0 -51 18t-20 52q0 31 25.5 59.5t61.5 45.5q6 3 14 3h25q3 0 3 -2t-2 -3q-35 -20 -55.5 -45z" />
    <glyph glyph-name="uni0335" unicode="&#x335;" 
d="M-256 374h164q6 0 6 -6v-36q0 -6 -6 -6h-164q-6 0 -6 6v36q0 6 6 6z" />
    <glyph glyph-name="uni0394" unicode="&#x394;" horiz-adv-x="580" 
d="M565 0h-550q-5 0 -5 6l231 688q2 6 8 6h82q7 0 8 -6l231 -688q0 -6 -5 -6zM122 82h336l-168 501z" />
    <glyph glyph-name="uni03A9" unicode="&#x3a9;" horiz-adv-x="738" 
d="M569 206.5q45 74.5 45 159.5q0 80 -31 141.5t-86.5 95.5t-127.5 34t-127.5 -34t-86.5 -95.5t-31 -141.5q0 -85 45 -159.5t120 -127.5q5 -3 5 -9v-64q0 -6 -6 -6h-223q-6 0 -6 6v72q0 6 6 6h108q-58 55 -94.5 128.5t-36.5 155.5q0 101 41 180.5t115 124t171 44.5
t171 -44.5t115 -124t41 -180.5q0 -82 -36.5 -155.5t-94.5 -128.5h108q6 0 6 -6v-72q0 -6 -6 -6h-223q-6 0 -6 6v64q0 6 5 9q75 53 120 127.5z" />
    <glyph glyph-name="uni03A9" unicode="&#x3c9;" horiz-adv-x="738" 
d="M569 206.5q45 74.5 45 159.5q0 80 -31 141.5t-86.5 95.5t-127.5 34t-127.5 -34t-86.5 -95.5t-31 -141.5q0 -85 45 -159.5t120 -127.5q5 -3 5 -9v-64q0 -6 -6 -6h-223q-6 0 -6 6v72q0 6 6 6h108q-58 55 -94.5 128.5t-36.5 155.5q0 101 41 180.5t115 124t171 44.5
t171 -44.5t115 -124t41 -180.5q0 -82 -36.5 -155.5t-94.5 -128.5h108q6 0 6 -6v-72q0 -6 -6 -6h-223q-6 0 -6 6v64q0 6 5 9q75 53 120 127.5z" />
    <glyph glyph-name="uni03BC" unicode="&#x3bc;" horiz-adv-x="538" 
d="M340 500h152q6 0 6 -6v-317q0 -108 -65 -151t-159 -43q-41 0 -76 7v-194q0 -6 -6 -6h-136q-6 0 -6 6v698q0 6 6 6h152q6 0 6 -6v-317q0 -45 15 -62.5t45 -17.5t45 17.5t15 62.5v317q0 6 6 6z" />
    <glyph glyph-name="pi" unicode="&#x3c0;" horiz-adv-x="521" 
d="M104 6v436h-66q-6 0 -6 6v46q0 6 6 6h446q6 0 6 -6v-46q0 -6 -6 -6h-66v-436q0 -6 -6 -6h-70q-6 0 -6 6v436h-150v-436q0 -6 -6 -6h-70q-6 0 -6 6z" />
    <glyph glyph-name="Wgrave" unicode="&#x1e80;" horiz-adv-x="676" 
d="M158 4l-151 688q0 4 1 6t6 2h153q6 0 7 -6l66 -316l61 317q1 5 5 5h108q5 0 6 -5l66 -317l60 316q1 6 6 6h110q5 0 6 -2t1 -6l-151 -688q-1 -4 -5 -4h-104q-4 0 -5 4l-66 310l-66 -310q-1 -4 -5 -4h-104q-4 0 -5 4zM341 742l-80 150l-1 4q0 4 5 4h92q5 0 7 -5l50 -150
l1 -4q0 -4 -4 -4h-61q-7 0 -9 5z" />
    <glyph glyph-name="wgrave" unicode="&#x1e81;" horiz-adv-x="341" 
d="M80 355l-75 339q0 6 5 6h71q7 0 8 -6l33 -155l30 155q2 6 6 6h47q5 0 6 -6l33 -155l29 155q2 6 7 6h49q7 0 7 -6l-76 -339q-2 -5 -7 -5h-44q-5 0 -6 5l-32 152l-33 -152q-1 -5 -8 -5h-43q-6 0 -7 5zM-6 243v46q0 6 6 6h341q6 0 6 -6v-46q0 -6 -6 -6h-341q-6 0 -6 6z
M148 754l-63 111q-1 3 0 5t4 2h72q5 0 6 -4l37 -111q1 -3 -0.5 -5t-4.5 -2h-44q-4 0 -7 4z" />
    <glyph glyph-name="Wacute" unicode="&#x1e82;" horiz-adv-x="676" 
d="M158 4l-151 688q0 4 1 6t6 2h153q6 0 7 -6l66 -316l61 317q1 5 5 5h108q5 0 6 -5l66 -317l60 316q1 6 6 6h110q5 0 6 -2t1 -6l-151 -688q-1 -4 -5 -4h-104q-4 0 -5 4l-66 310l-66 -310q-1 -4 -5 -4h-104q-4 0 -5 4zM468 896l-1 -4l-80 -150q-3 -5 -9 -5h-61q-4 0 -4 4
l1 4l50 150q2 5 7 5h92q5 0 5 -4z" />
    <glyph glyph-name="wacute" unicode="&#x1e83;" horiz-adv-x="341" 
d="M80 355l-75 339q0 6 5 6h71q7 0 8 -6l33 -155l30 155q2 6 6 6h47q5 0 6 -6l33 -155l29 155q2 6 7 6h49q7 0 7 -6l-76 -339q-2 -5 -7 -5h-44q-5 0 -6 5l-32 152l-33 -152q-1 -5 -8 -5h-43q-6 0 -7 5zM-6 243v46q0 6 6 6h341q6 0 6 -6v-46q0 -6 -6 -6h-341q-6 0 -6 6z
M263 870q1 -2 0 -5l-63 -111q-3 -4 -7 -4h-44q-3 0 -4.5 2t-0.5 5l37 111q1 4 6 4h72q3 0 4 -2z" />
    <glyph glyph-name="Wdieresis" unicode="&#x1e84;" horiz-adv-x="676" 
d="M158 4l-151 688q0 4 1 6t6 2h153q6 0 7 -6l66 -316l61 317q1 5 5 5h108q5 0 6 -5l66 -317l60 316q1 6 6 6h110q5 0 6 -2t1 -6l-151 -688q-1 -4 -5 -4h-104q-4 0 -5 4l-66 310l-66 -310q-1 -4 -5 -4h-104q-4 0 -5 4zM326 794h-94q-6 0 -6 6v94q0 6 6 6h94q6 0 6 -6v-94
q0 -6 -6 -6zM496 794h-94q-6 0 -6 6v94q0 6 6 6h94q6 0 6 -6v-94q0 -6 -6 -6z" />
    <glyph glyph-name="wdieresis" unicode="&#x1e85;" horiz-adv-x="341" 
d="M80 355l-75 339q0 6 5 6h71q7 0 8 -6l33 -155l30 155q2 6 6 6h47q5 0 6 -6l33 -155l29 155q2 6 7 6h49q7 0 7 -6l-76 -339q-2 -5 -7 -5h-44q-5 0 -6 5l-32 152l-33 -152q-1 -5 -8 -5h-43q-6 0 -7 5zM-6 243v46q0 6 6 6h341q6 0 6 -6v-46q0 -6 -6 -6h-341q-6 0 -6 6z
M81 828q2 2 4 2h68q2 0 4 -2t2 -4v-68q0 -2 -2 -4t-4 -2h-68q-2 0 -4 2t-2 4v68q0 2 2 4zM209 828q2 2 4 2h68q2 0 4 -2t2 -4v-68q0 -2 -2 -4t-4 -2h-68q-2 0 -4 2t-2 4v68q0 2 2 4z" />
    <glyph glyph-name="uni1E9E" unicode="&#x1e9e;" horiz-adv-x="494" 
d="M34 6v512q0 62 26 103t67.5 60t88.5 19h241q6 0 6 -6v-99q0 -7 -5 -17l-91 -156q57 -25 80 -66.5t23 -116.5v-63q0 -91 -57.5 -133.5t-153.5 -42.5h-15q-6 0 -6 6v102q0 6 6 6h4q29 0 43.5 17.5t14.5 62.5v51q0 46 -14.5 63.5t-43.5 17.5h-4q-6 0 -6 6v95q0 8 3 13t4 6
l79 140h-86q-24 0 -37 -16.5t-13 -56.5v-507q0 -6 -6 -6h-142q-6 0 -6 6z" />
    <glyph glyph-name="Ygrave" unicode="&#x1ef2;" horiz-adv-x="517" 
d="M175 6v287l-167 399l-1 4q0 4 6 4h155q6 0 7 -4l102 -264l105 264q1 4 6 4h111q7 0 7 -4l-1 -4l-166 -399v-287q0 -6 -6 -6h-152q-6 0 -6 6zM259 742l-80 150l-1 4q0 4 5 4h92q5 0 7 -5l50 -150l1 -4q0 -4 -4 -4h-61q-7 0 -9 5z" />
    <glyph glyph-name="ygrave" unicode="&#x1ef3;" horiz-adv-x="256" 
d="M86 356v140l-82 197l-1 4q0 3 4 3h73q5 0 7 -5l50 -129l51 129q3 5 7 5h51q5 0 5 -5l-83 -199v-140q0 -6 -6 -6h-70q-6 0 -6 6zM-6 243v46q0 6 6 6h256q6 0 6 -6v-46q0 -6 -6 -6h-256q-6 0 -6 6zM106 754l-63 111q-1 3 0 5t4 2h72q5 0 6 -4l37 -111q1 -3 -0.5 -5t-4.5 -2
h-44q-4 0 -7 4z" />
    <glyph glyph-name="endash" unicode="&#x2013;" horiz-adv-x="447" 
d="M44 390h359q6 0 6 -6v-68q0 -6 -6 -6h-359q-6 0 -6 6v68q0 6 6 6z" />
    <glyph glyph-name="emdash" unicode="&#x2014;" horiz-adv-x="677" 
d="M44 390h589q6 0 6 -6v-68q0 -6 -6 -6h-589q-6 0 -6 6v68q0 6 6 6z" />
    <glyph glyph-name="quoteleft" unicode="&#x2018;" horiz-adv-x="196" 
d="M56.5 665.5q15.5 24.5 44.5 33.5l6 1q3 0 5 -2l34 -35q2 -2 2 -5q0 -4 -4 -5q-13 -5 -19.5 -11t-7.5 -18h44q6 0 6 -6v-114q0 -6 -6 -6h-114q-6 0 -6 6v106q0 31 15.5 55.5z" />
    <glyph glyph-name="quoteright" unicode="&#x2019;" horiz-adv-x="196" 
d="M139.5 532.5q-15.5 -24.5 -44.5 -33.5l-6 -1q-3 0 -5 2l-34 35q-2 2 -2 5q0 4 4 5q13 5 19.5 11t7.5 18h-44q-6 0 -6 6v114q0 6 6 6h114q6 0 6 -6v-106q0 -31 -15.5 -55.5z" />
    <glyph glyph-name="quotesinglbase" unicode="&#x201a;" horiz-adv-x="196" 
d="M139.5 -41.5q-15.5 -24.5 -44.5 -33.5l-6 -1q-3 0 -5 2l-34 35q-2 2 -2 5q0 4 4 5q13 5 19.5 11t7.5 18h-44q-6 0 -6 6v114q0 6 6 6h114q6 0 6 -6v-106q0 -31 -15.5 -55.5z" />
    <glyph glyph-name="quotedblleft" unicode="&#x201c;" horiz-adv-x="366" 
d="M56.5 665.5q15.5 24.5 44.5 33.5l6 1q3 0 5 -2l34 -35q2 -2 2 -5q0 -4 -4 -5q-13 -5 -19.5 -11t-7.5 -18h44q6 0 6 -6v-114q0 -6 -6 -6h-114q-6 0 -6 6v106q0 31 15.5 55.5zM226.5 665.5q15.5 24.5 44.5 33.5l6 1q3 0 5 -2l34 -35q2 -2 2 -5q0 -4 -4 -5q-13 -5 -19.5 -11
t-7.5 -18h44q6 0 6 -6v-114q0 -6 -6 -6h-114q-6 0 -6 6v106q0 31 15.5 55.5z" />
    <glyph glyph-name="quotedblright" unicode="&#x201d;" horiz-adv-x="366" 
d="M139.5 532.5q-15.5 -24.5 -44.5 -33.5l-6 -1q-3 0 -5 2l-34 35q-2 2 -2 5q0 4 4 5q13 5 19.5 11t7.5 18h-44q-6 0 -6 6v114q0 6 6 6h114q6 0 6 -6v-106q0 -31 -15.5 -55.5zM309.5 532.5q-15.5 -24.5 -44.5 -33.5l-6 -1q-3 0 -5 2l-34 35q-2 2 -2 5q0 4 4 5q13 5 19.5 11
t7.5 18h-44q-6 0 -6 6v114q0 6 6 6h114q6 0 6 -6v-106q0 -31 -15.5 -55.5z" />
    <glyph glyph-name="quotedblbase" unicode="&#x201e;" horiz-adv-x="366" 
d="M139.5 -41.5q-15.5 -24.5 -44.5 -33.5l-6 -1q-3 0 -5 2l-34 35q-2 2 -2 5q0 4 4 5q13 5 19.5 11t7.5 18h-44q-6 0 -6 6v114q0 6 6 6h114q6 0 6 -6v-106q0 -31 -15.5 -55.5zM309.5 -41.5q-15.5 -24.5 -44.5 -33.5l-6 -1q-3 0 -5 2l-34 35q-2 2 -2 5q0 4 4 5q13 5 19.5 11
t7.5 18h-44q-6 0 -6 6v114q0 6 6 6h114q6 0 6 -6v-106q0 -31 -15.5 -55.5z" />
    <glyph glyph-name="dagger" unicode="&#x2020;" horiz-adv-x="408" 
d="M391 523v-102q0 -6 -6 -6h-99v-545q0 -6 -6 -6h-152q-6 0 -6 6v545h-99q-6 0 -6 6v102q0 6 6 6h99v165q0 6 6 6h152q6 0 6 -6v-165h99q6 0 6 -6z" />
    <glyph glyph-name="daggerdbl" unicode="&#x2021;" horiz-adv-x="408" 
d="M17 40v102q0 6 6 6h99v267h-99q-6 0 -6 6v102q0 6 6 6h99v165q0 6 6 6h152q6 0 6 -6v-165h99q6 0 6 -6v-102q0 -6 -6 -6h-99v-267h99q6 0 6 -6v-102q0 -6 -6 -6h-99v-164q0 -6 -6 -6h-152q-6 0 -6 6v164h-99q-6 0 -6 6z" />
    <glyph glyph-name="bullet" unicode="&#x2022;" horiz-adv-x="232" 
d="M62.5 435.5q22.5 22.5 53.5 22.5t53.5 -22.5t22.5 -53.5t-22.5 -53.5t-53.5 -22.5t-53.5 22.5t-22.5 53.5t22.5 53.5z" />
    <glyph glyph-name="ellipsis" unicode="&#x2026;" horiz-adv-x="689" 
d="M156 0h-114q-6 0 -6 6v114q0 6 6 6h114q6 0 6 -6v-114q0 -6 -6 -6zM394 0h-114q-6 0 -6 6v114q0 6 6 6h114q6 0 6 -6v-114q0 -6 -6 -6zM632 0h-114q-6 0 -6 6v114q0 6 6 6h114q6 0 6 -6v-114q0 -6 -6 -6z" />
    <glyph glyph-name="perthousand" unicode="&#x2030;" horiz-adv-x="948" 
d="M66 692.5q30 24.5 80 24.5t80 -24.5t30 -70.5v-165q0 -46 -30 -70.5t-80 -24.5t-80 24.5t-30 70.5v165q0 46 30 70.5zM72 24l1 4l462 686q3 3 5 3t6 -2l52 -35q2 -2 2 -4l-1 -4l-462 -686q-3 -3 -5 -3t-6 2l-52 35q-2 2 -2 4zM123.5 426q7.5 -9 22.5 -9t22.5 9t7.5 31
v165q0 22 -7.5 31t-22.5 9t-22.5 -9t-7.5 -31v-165q0 -22 7.5 -31zM446 313.5q30 24.5 80 24.5t80 -24.5t30 -70.5v-165q0 -46 -30 -70.5t-80 -24.5t-80 24.5t-30 70.5v165q0 46 30 70.5zM722 313.5q30 24.5 80 24.5t80 -24.5t30 -70.5v-165q0 -46 -30 -70.5t-80 -24.5
t-80 24.5t-30 70.5v165q0 46 30 70.5zM503.5 47q7.5 -9 22.5 -9t22.5 9t7.5 31v165q0 22 -7.5 31t-22.5 9t-22.5 -9t-7.5 -31v-165q0 -22 7.5 -31zM779.5 47q7.5 -9 22.5 -9t22.5 9t7.5 31v165q0 22 -7.5 31t-22.5 9t-22.5 -9t-7.5 -31v-165q0 -22 7.5 -31z" />
    <glyph glyph-name="guilsinglleft" unicode="&#x2039;" horiz-adv-x="322" 
d="M291 227q5 -3 5 -8v-82q0 -3 -2 -3t-5 2l-255 177q-3 2 -3 4t3 4l255 177q3 2 5 2t2 -3v-82q0 -5 -5 -8l-135 -90z" />
    <glyph glyph-name="guilsinglright" unicode="&#x203a;" horiz-adv-x="322" 
d="M26 415v82q0 3 2 3t5 -2l255 -177q3 -2 3 -4t-3 -4l-255 -177q-3 -2 -5 -2t-2 3v82q0 5 5 8l135 90l-135 90q-5 3 -5 8z" />
    <glyph glyph-name="fraction" unicode="&#x2044;" horiz-adv-x="560" 
d="M70 -15l-52 35q-2 2 -2 4l1 4l462 686q3 3 5 3t6 -2l52 -35q2 -2 2 -4l-1 -4l-462 -686q-3 -3 -5 -3t-6 2z" />
    <glyph glyph-name="uni2070" unicode="&#x2070;" horiz-adv-x="270" 
d="M25 440v170q0 95 110 95t110 -95v-170q0 -95 -110 -95t-110 95zM157.5 411q7.5 8 7.5 29v170q0 21 -7.5 29t-22.5 8t-22.5 -8t-7.5 -29v-170q0 -21 7.5 -29t22.5 -8t22.5 8zM-6 243v46q0 6 6 6h270q6 0 6 -6v-46q0 -6 -6 -6h-270q-6 0 -6 6z" />
    <glyph glyph-name="uni2074" unicode="&#x2074;" horiz-adv-x="282" 
d="M157 356v60h-133q-6 0 -6 6v35q0 4 3 10l134 227q4 6 8 6h65q6 0 6 -6v-220h30q6 0 6 -6v-46q0 -6 -6 -6h-30v-60q0 -6 -6 -6h-65q-6 0 -6 6zM157 474v111l-65 -111h65zM-6 243v46q0 6 6 6h282q6 0 6 -6v-46q0 -6 -6 -6h-282q-6 0 -6 6z" />
    <glyph glyph-name="uni2075" unicode="&#x2075;" horiz-adv-x="274" 
d="M64.5 363q-32.5 18 -37.5 60q0 5 4 6l71 15q5 0 5 -4q0 -37 32 -37q15 0 23 8.5t8 30.5v43q0 41 -31 41q-21 0 -28 -22q-1 -4 -5 -4l-72 18q-6 2 -6 6l13 170q0 6 6 6h179q6 0 6 -6v-46q0 -6 -6 -6h-109l-4 -76q20 12 49 12q41 0 64.5 -20.5t23.5 -64.5v-51
q0 -97 -111 -97q-42 0 -74.5 18zM-6 243v46q0 6 6 6h274q6 0 6 -6v-46q0 -6 -6 -6h-274q-6 0 -6 6z" />
    <glyph glyph-name="uni2076" unicode="&#x2076;" horiz-adv-x="269" 
d="M54.5 367q-30.5 22 -30.5 74v168q0 54 32 75t78 21q43 0 74 -18.5t35 -59.5q0 -4 -4 -5l-67 -16q-5 0 -5 5q-1 20 -9.5 28t-23.5 8q-14 0 -22 -8t-8 -30v-58q20 14 53 14q40 0 63.5 -20.5t23.5 -63.5v-40q0 -96 -110 -96q-49 0 -79.5 22zM156.5 411q7.5 8 7.5 30v32
q0 22 -7.5 30t-22.5 8q-14 0 -22 -8t-8 -30v-32q0 -22 8 -30t22 -8q15 0 22.5 8zM-6 243v46q0 6 6 6h269q6 0 6 -6v-46q0 -6 -6 -6h-269q-6 0 -6 6z" />
    <glyph glyph-name="uni2077" unicode="&#x2077;" horiz-adv-x="250" 
d="M48 355l113 287h-138q-6 0 -6 6v46q0 6 6 6h215q3 0 3 -3v-48q0 -6 -3 -12l-104 -283q-2 -4 -6 -4h-76q-4 0 -4 5zM-6 243v46q0 6 6 6h250q6 0 6 -6v-46q0 -6 -6 -6h-250q-6 0 -6 6z" />
    <glyph glyph-name="uni2078" unicode="&#x2078;" horiz-adv-x="272" 
d="M58 366q-32 21 -32 75v23q0 61 45 79q-41 17 -41 72q0 50 31.5 70t74.5 20q44 0 75 -20t31 -70q0 -55 -41 -72q45 -18 45 -79v-23q0 -96 -110 -96q-46 0 -78 21zM158.5 578.5q7.5 8.5 7.5 30.5t-7.5 30t-22.5 8t-22.5 -8t-7.5 -30t7.5 -30.5t22.5 -8.5t22.5 8.5z
M158.5 411q7.5 8 7.5 30v32q0 23 -7.5 31t-22.5 8t-22.5 -8t-7.5 -31v-32q0 -22 7.5 -30t22.5 -8t22.5 8zM-6 243v46q0 6 6 6h272q6 0 6 -6v-46q0 -6 -6 -6h-272q-6 0 -6 6z" />
    <glyph glyph-name="uni2079" unicode="&#x2079;" horiz-adv-x="269" 
d="M61 363.5q-31 18.5 -35 59.5q0 4 4 5l67 16q5 0 5 -5q1 -20 9.5 -28t23.5 -8q14 0 22 8t8 30v58q-20 -14 -53 -14q-40 0 -63.5 20.5t-23.5 63.5v40q0 96 110 96q49 0 79.5 -22t30.5 -74v-168q0 -54 -32 -75t-78 -21q-43 0 -74 18.5zM157 547q8 8 8 30v32q0 22 -8 30
t-22 8q-15 0 -22.5 -8t-7.5 -30v-32q0 -22 7.5 -30t22.5 -8q14 0 22 8zM-6 243v46q0 6 6 6h269q6 0 6 -6v-46q0 -6 -6 -6h-269q-6 0 -6 6z" />
    <glyph glyph-name="uni2080" unicode="&#x2080;" horiz-adv-x="270" 
d="M-6 243v46q0 6 6 6h270q6 0 6 -6v-46q0 -6 -6 -6h-270q-6 0 -6 6zM25 -78v170q0 95 110 95t110 -95v-170q0 -95 -110 -95t-110 95zM157.5 -107q7.5 8 7.5 29v170q0 21 -7.5 29t-22.5 8t-22.5 -8t-7.5 -29v-170q0 -21 7.5 -29t22.5 -8t22.5 8z" />
    <glyph glyph-name="uni2081" unicode="&#x2081;" horiz-adv-x="158" 
d="M-6 243v46q0 6 6 6h158q6 0 6 -6v-46q0 -6 -6 -6h-158q-6 0 -6 6zM38 -162v299q0 6 4 10l32 31q4 4 8 4h32q6 0 6 -6v-338q0 -6 -6 -6h-70q-6 0 -6 6z" />
    <glyph glyph-name="uni2082" unicode="&#x2082;" horiz-adv-x="274" 
d="M-6 243v46q0 6 6 6h274q6 0 6 -6v-46q0 -6 -6 -6h-274q-6 0 -6 6zM27 -166.5q-2 1.5 -2 4.5q0 48 22 83.5t64 80.5q29 30 42.5 49t13.5 39q0 39 -31 39q-15 0 -24 -10.5t-9 -26.5q0 -5 -5 -5l-67 16q-5 2 -5 6q0 39 33 58.5t77 19.5q48 0 79.5 -23.5t31.5 -73.5
q0 -34 -17.5 -60t-53.5 -66q-38 -38 -55 -67h120q6 0 6 -7v-52q0 -6 -6 -6h-210q-2 0 -4 1.5z" />
    <glyph glyph-name="uni2083" unicode="&#x2083;" horiz-adv-x="279" 
d="M-6 243v46q0 6 6 6h279q6 0 6 -6v-46q0 -6 -6 -6h-279q-6 0 -6 6zM66.5 -155q-33.5 18 -33.5 59q0 6 4 6l67 15q6 0 6 -5q0 -35 33 -35q30 0 30 38v16q0 39 -30 39h-28q-6 0 -6 6v46q0 6 6 6h25q17 0 25 8.5t8 30.5v16q0 22 -8 30t-22 8q-33 0 -33 -36q0 -6 -6 -6l-68 17
q-3 2 -3 6q0 43 32.5 60t77.5 17q110 0 110 -96v-16q0 -26 -11.5 -43.5t-31.5 -24.5q43 -21 43 -68v-16q0 -54 -32 -75t-78 -21q-43 0 -76.5 18z" />
    <glyph glyph-name="uni2084" unicode="&#x2084;" horiz-adv-x="282" 
d="M-6 243v46q0 6 6 6h282q6 0 6 -6v-46q0 -6 -6 -6h-282q-6 0 -6 6zM157 -162v60h-133q-6 0 -6 6v35q0 4 3 10l134 227q4 6 8 6h65q6 0 6 -6v-220h30q6 0 6 -6v-46q0 -6 -6 -6h-30v-60q0 -6 -6 -6h-65q-6 0 -6 6zM157 -44v111l-65 -111h65z" />
    <glyph glyph-name="uni2085" unicode="&#x2085;" horiz-adv-x="274" 
d="M-6 243v46q0 6 6 6h274q6 0 6 -6v-46q0 -6 -6 -6h-274q-6 0 -6 6zM61 -155q-34 18 -34 60q0 5 4 6l71 15q5 0 5 -4q0 -37 32 -37q15 0 23 8.5t8 30.5v43q0 41 -31 41q-21 0 -28 -22q-1 -4 -5 -4l-72 18q-6 2 -6 6l13 170q0 6 6 6h179q6 0 6 -6v-46q0 -6 -6 -6h-109
l-4 -76q20 12 49 12q41 0 64.5 -20.5t23.5 -64.5v-51q0 -97 -111 -97q-44 0 -78 18z" />
    <glyph glyph-name="uni2086" unicode="&#x2086;" horiz-adv-x="269" 
d="M-6 243v46q0 6 6 6h269q6 0 6 -6v-46q0 -6 -6 -6h-269q-6 0 -6 6zM54.5 -151q-30.5 22 -30.5 74v168q0 54 32 75t78 21q44 0 76.5 -19t32.5 -59q0 -4 -4 -5l-67 -16q-5 0 -5 5q0 36 -33 36q-14 0 -22 -8t-8 -30v-58q20 14 53 14q40 0 63.5 -20.5t23.5 -63.5v-40
q0 -96 -110 -96q-49 0 -79.5 22zM156.5 -107q7.5 8 7.5 30v32q0 22 -7.5 30t-22.5 8q-14 0 -22 -8t-8 -30v-32q0 -22 8 -30t22 -8q15 0 22.5 8z" />
    <glyph glyph-name="uni2087" unicode="&#x2087;" horiz-adv-x="250" 
d="M-6 243v46q0 6 6 6h250q6 0 6 -6v-46q0 -6 -6 -6h-250q-6 0 -6 6zM48 -163l113 287h-138q-6 0 -6 6v46q0 6 6 6h215q3 0 3 -3v-48q0 -6 -3 -12l-104 -283q-2 -4 -6 -4h-76q-4 0 -4 5z" />
    <glyph glyph-name="uni2088" unicode="&#x2088;" horiz-adv-x="272" 
d="M-6 243v46q0 6 6 6h272q6 0 6 -6v-46q0 -6 -6 -6h-272q-6 0 -6 6zM58 -152q-32 21 -32 75v23q0 61 45 79q-41 17 -41 72q0 50 31.5 70t74.5 20q44 0 75 -20t31 -70q0 -55 -41 -72q45 -18 45 -79v-23q0 -96 -110 -96q-46 0 -78 21zM158.5 60.5q7.5 8.5 7.5 30.5t-7.5 30
t-22.5 8t-22.5 -8t-7.5 -30t7.5 -30.5t22.5 -8.5t22.5 8.5zM158.5 -107q7.5 8 7.5 30v32q0 23 -7.5 31t-22.5 8t-22.5 -8t-7.5 -31v-32q0 -22 7.5 -30t22.5 -8t22.5 8z" />
    <glyph glyph-name="uni2089" unicode="&#x2089;" horiz-adv-x="269" 
d="M-6 243v46q0 6 6 6h269q6 0 6 -6v-46q0 -6 -6 -6h-269q-6 0 -6 6zM58.5 -154q-32.5 19 -32.5 59q0 4 4 5l67 16q5 0 5 -5q0 -36 33 -36q14 0 22 8t8 30v58q-20 -14 -53 -14q-40 0 -63.5 20.5t-23.5 63.5v40q0 96 110 96q49 0 79.5 -22t30.5 -74v-168q0 -54 -32 -75
t-78 -21q-44 0 -76.5 19zM157 29q8 8 8 30v32q0 22 -8 30t-22 8q-15 0 -22.5 -8t-7.5 -30v-32q0 -22 7.5 -30t22.5 -8q14 0 22 8z" />
    <glyph glyph-name="Euro" unicode="&#x20ac;" horiz-adv-x="541" 
d="M513 144q-27 -161 -223 -161q-225 0 -225 196v59h-35q-6 0 -6 6v68q0 6 6 6h35v64h-35q-6 0 -6 6v68q0 6 6 6h35v59q0 101 59 148.5t166 47.5q201 0 223 -161q0 -5 -5 -6l-146 -34q-6 0 -6 5q-1 45 -18 63.5t-48 18.5q-29 0 -44.5 -18.5t-15.5 -63.5v-59h171q6 0 6 -6
v-68q0 -6 -6 -6h-171v-64h171q6 0 6 -6v-68q0 -6 -6 -6h-171v-59q0 -45 15.5 -63.5t44.5 -18.5q31 0 48 19t18 64q0 5 6 5l146 -34q5 -2 5 -7z" />
    <glyph glyph-name="uni20BA" unicode="&#x20ba;" horiz-adv-x="585" 
d="M551 248v-40q0 -107 -55.5 -157.5t-164.5 -50.5h-208q-6 0 -6 6v127l-57 -37q-3 -2 -6.5 -1t-4.5 4l-38 58q-2 3 -1 6.5t4 4.5l103 67v60l-57 -37q-3 -2 -6.5 -1t-4.5 4l-38 58q-2 3 -1 6.5t4 4.5l103 67v297q0 6 6 6h152q6 0 6 -6v-191l84 55q3 2 6.5 1t4.5 -4l38 -58
q2 -3 1 -6.5t-4 -4.5l-130 -84v-61l84 55q3 2 6.5 1t4.5 -4l38 -58q2 -3 1 -6.5t-4 -4.5l-130 -84v-126h50q47 0 70 25t23 80v31q0 4 4 4h117q6 0 6 -6z" />
    <glyph glyph-name="uni20BD" unicode="&#x20bd;" horiz-adv-x="525" 
d="M88 6v144h-56q-6 0 -6 6v68q0 6 6 6h56v80h-56q-6 0 -6 6v68q0 6 6 6h56v304q0 6 6 6h221q79 0 133 -45.5t54 -149.5t-54 -149.5t-133 -45.5h-63v-80h169q6 0 6 -6v-68q0 -6 -6 -6h-169v-144q0 -6 -6 -6h-152q-6 0 -6 6zM278 424q29 0 44.5 18t15.5 63t-15.5 63t-44.5 18
h-26v-162h26z" />
    <glyph glyph-name="uni2113" unicode="&#x2113;" horiz-adv-x="470" 
d="M367 91q-19 -57 -54 -82.5t-95 -25.5q-64 0 -101 52t-38 135q-24 3 -56 14q-5 2 -5 7v52q0 6 5 9t10 0q26 -15 48 -21q8 124 46 236.5t95.5 181t120.5 68.5q108 0 108 -140q0 -97 -42.5 -190t-112.5 -154t-147 -66v-8q0 -49 20.5 -79.5t54.5 -30.5q27 0 43 13.5t29 48.5
q4 11 12 8l54 -18q8 -3 5 -10zM257 591q-40 -58 -69.5 -156t-36.5 -212q57 7 109 60t83.5 134t31.5 167q0 29 -10 47t-31 18q-37 0 -77 -58z" />
    <glyph glyph-name="uni2117" unicode="&#x2117;" horiz-adv-x="810" 
d="M590.5 668q83.5 -49 131.5 -133t48 -185t-48 -185t-131.5 -133t-185.5 -49t-185.5 49t-131.5 133t-48 185t48 185t131.5 133t185.5 49t185.5 -49zM562 73q71 42 112.5 115t41.5 162t-41.5 162t-112.5 115t-157 42t-157 -42t-112.5 -115t-41.5 -162t41.5 -162t112.5 -115
t157 -42t157 42zM402 329v-169q0 -6 -6 -6h-80q-6 0 -6 6v380q0 6 6 6h121q49 0 77 -27.5t28 -81.5t-27.5 -81t-77.5 -27h-35zM441.5 401.5q8.5 10.5 8.5 35.5q0 26 -8.5 36.5t-24.5 10.5h-15v-93h15q16 0 24.5 10.5z" />
    <glyph glyph-name="uni2120" unicode="&#x2120;" horiz-adv-x="595" 
d="M55.5 365q-29.5 21 -29.5 57q0 5 6 6l65 14q6 2 6 -5q0 -19 9 -28t24 -9q33 0 33 41q0 30 -59 65q-34 20 -54.5 45t-20.5 63q0 46 29 69t73 23t74 -19t30 -56q0 -7 -5 -8l-62 -14q-2 -1 -4.5 0t-2.5 4q0 17 -9 27t-21 10t-20 -7t-8 -18q0 -14 16.5 -28t52.5 -37t54 -48.5
t18 -65.5q0 -50 -32.5 -76t-80.5 -26q-52 0 -81.5 21zM292 356v338q0 6 6 6h68q7 0 8 -6l51 -197l50 196q1 7 10 7h70q6 0 6 -6v-338q0 -6 -6 -6h-70q-6 0 -6 6v143l-32 -143q-1 -6 -9 -6h-48q-8 0 -9 6l-32 143v-143q0 -6 -6 -6h-45q-6 0 -6 6zM-6 243v46q0 6 6 6h595
q6 0 6 -6v-46q0 -6 -6 -6h-595q-6 0 -6 6z" />
    <glyph glyph-name="trademark" unicode="&#x2122;" horiz-adv-x="595" 
d="M168 356q0 -6 -6 -6h-70q-6 0 -6 6v286h-71q-6 0 -6 6v46q0 6 6 6h224q6 0 6 -6v-46q0 -6 -6 -6h-71v-286zM475 693q1 7 10 7h70q6 0 6 -6v-338q0 -6 -6 -6h-70q-6 0 -6 6v143l-32 -143q-1 -6 -9 -6h-48q-8 0 -9 6l-32 143v-143q0 -6 -6 -6h-45q-6 0 -6 6v338q0 6 6 6h68
q7 0 8 -6l51 -197zM601 289v-46q0 -6 -6 -6h-595q-6 0 -6 6v46q0 6 6 6h595q6 0 6 -6z" />
    <glyph glyph-name="uni2126" unicode="&#x2126;" horiz-adv-x="738" 
d="M569 206.5q45 74.5 45 159.5q0 80 -31 141.5t-86.5 95.5t-127.5 34t-127.5 -34t-86.5 -95.5t-31 -141.5q0 -85 45 -159.5t120 -127.5q5 -3 5 -9v-64q0 -6 -6 -6h-223q-6 0 -6 6v72q0 6 6 6h108q-58 55 -94.5 128.5t-36.5 155.5q0 101 41 180.5t115 124t171 44.5
t171 -44.5t115 -124t41 -180.5q0 -82 -36.5 -155.5t-94.5 -128.5h108q6 0 6 -6v-72q0 -6 -6 -6h-223q-6 0 -6 6v64q0 6 5 9q75 53 120 127.5z" />
    <glyph glyph-name="estimated" unicode="&#x212e;" horiz-adv-x="810" 
d="M590.5 668q83.5 -49 131.5 -133t48 -185v-12q0 -6 -3.5 -9t-9.5 -3h-578v-197q43 -46 101 -72t125 -26q84 0 155 41t112 111q4 7 12 7h38q5 0 7.5 -3.5t-0.5 -8.5q-46 -89 -131.5 -142t-192.5 -53q-102 0 -185.5 49t-131.5 133t-48 185t48 185t131.5 133t185.5 49
t185.5 -49zM179 374h452v197q-43 46 -101 72t-125 26t-125 -26t-101 -72v-197z" />
    <glyph glyph-name="uni2153" unicode="&#x2153;" horiz-adv-x="610" 
d="M70 -15l-52 35q-2 2 -2 4l1 4l462 686q3 3 5 3t6 -2l52 -35q2 -2 2 -4l-1 -4l-462 -686q-3 -3 -5 -3t-6 2zM43 356v299q0 6 4 10l32 31q4 4 8 4h32q6 0 6 -6v-338q0 -6 -6 -6h-70q-6 0 -6 6zM410.5 12.5q-31.5 17.5 -36.5 59.5q0 6 4 6l67 15q6 0 6 -5q0 -35 33 -35
q30 0 30 38v16q0 39 -30 39h-28q-6 0 -6 6v46q0 6 6 6h25q17 0 25 8.5t8 30.5v16q0 22 -8 30t-22 8q-15 0 -23.5 -8t-9.5 -28q0 -6 -6 -6l-68 17q-3 2 -3 6q5 43 36 60t74 17q110 0 110 -96v-16q0 -26 -11.5 -43.5t-31.5 -24.5q43 -21 43 -68v-16q0 -54 -32 -75t-78 -21
q-42 0 -73.5 17.5z" />
    <glyph glyph-name="uni2154" unicode="&#x2154;" horiz-adv-x="681" 
d="M141 -15l-52 35q-2 2 -2 4l1 4l462 686q3 3 5 3t6 -2l52 -35q2 -2 2 -4l-1 -4l-462 -686q-3 -3 -5 -3t-6 2zM18 351.5q-2 1.5 -2 4.5q1 49 23.5 85t63.5 78q28 30 41.5 49.5t13.5 39.5q0 39 -31 39q-15 0 -24 -10.5t-9 -26.5q0 -5 -5 -5l-67 16q-5 2 -5 6q3 40 35 59
t75 19q48 0 79.5 -23.5t31.5 -73.5q0 -34 -17.5 -60t-53.5 -66q-38 -38 -55 -67h120q6 0 6 -7v-52q0 -6 -6 -6h-210q-2 0 -4 1.5zM481.5 12.5q-31.5 17.5 -36.5 59.5q0 6 4 6l67 15q6 0 6 -5q0 -35 33 -35q30 0 30 38v16q0 39 -30 39h-28q-6 0 -6 6v46q0 6 6 6h25
q17 0 25 8.5t8 30.5v16q0 22 -8 30t-22 8q-15 0 -23.5 -8t-9.5 -28q0 -6 -6 -6l-68 17q-3 2 -3 6q5 43 36 60t74 17q110 0 110 -96v-16q0 -26 -11.5 -43.5t-31.5 -24.5q43 -21 43 -68v-16q0 -54 -32 -75t-78 -21q-42 0 -73.5 17.5z" />
    <glyph glyph-name="oneeighth" unicode="&#x215b;" horiz-adv-x="610" 
d="M70 -15l-52 35q-2 2 -2 4l1 4l462 686q3 3 5 3t6 -2l52 -35q2 -2 2 -4l-1 -4l-462 -686q-3 -3 -5 -3t-6 2zM43 356v299q0 6 4 10l32 31q4 4 8 4h32q6 0 6 -6v-338q0 -6 -6 -6h-70q-6 0 -6 6zM406 16q-32 21 -32 75v23q0 61 45 79q-41 17 -41 72q0 50 31.5 70t74.5 20
q44 0 75 -20t31 -70q0 -55 -41 -72q45 -18 45 -79v-23q0 -96 -110 -96q-46 0 -78 21zM506.5 228.5q7.5 8.5 7.5 30.5t-7.5 30t-22.5 8t-22.5 -8t-7.5 -30t7.5 -30.5t22.5 -8.5t22.5 8.5zM506.5 61q7.5 8 7.5 30v32q0 23 -7.5 31t-22.5 8t-22.5 -8t-7.5 -31v-32
q0 -22 7.5 -30t22.5 -8t22.5 8z" />
    <glyph glyph-name="threeeighths" unicode="&#x215c;" horiz-adv-x="690" 
d="M153 -15l-52 35q-2 2 -2 4l1 4l462 686q3 3 5 3t6 -2l52 -35q2 -2 2 -4l-1 -4l-462 -686q-3 -3 -5 -3t-6 2zM69.5 362.5q-31.5 17.5 -36.5 59.5q0 6 4 6l67 15q6 0 6 -5q0 -35 33 -35q30 0 30 38v16q0 39 -30 39h-28q-6 0 -6 6v46q0 6 6 6h25q17 0 25 8.5t8 30.5v16
q0 22 -8 30t-22 8q-15 0 -23.5 -8t-9.5 -28q0 -6 -6 -6l-68 17q-3 2 -3 6q5 43 36 60t74 17q110 0 110 -96v-16q0 -26 -11.5 -43.5t-31.5 -24.5q43 -21 43 -68v-16q0 -54 -32 -75t-78 -21q-42 0 -73.5 17.5zM480 16q-32 21 -32 75v23q0 61 45 79q-41 17 -41 72q0 50 31.5 70
t74.5 20q44 0 75 -20t31 -70q0 -55 -41 -72q45 -18 45 -79v-23q0 -96 -110 -96q-46 0 -78 21zM580.5 228.5q7.5 8.5 7.5 30.5t-7.5 30t-22.5 8t-22.5 -8t-7.5 -30t7.5 -30.5t22.5 -8.5t22.5 8.5zM580.5 61q7.5 8 7.5 30v32q0 23 -7.5 31t-22.5 8t-22.5 -8t-7.5 -31v-32
q0 -22 7.5 -30t22.5 -8t22.5 8z" />
    <glyph glyph-name="fiveeighths" unicode="&#x215d;" horiz-adv-x="690" 
d="M153 -15l-52 35q-2 2 -2 4l1 4l462 686q3 3 5 3t6 -2l52 -35q2 -2 2 -4l-1 -4l-462 -686q-3 -3 -5 -3t-6 2zM64.5 363q-32.5 18 -37.5 60q0 5 4 6l71 15q5 0 5 -4q0 -37 32 -37q15 0 23 8.5t8 30.5v43q0 41 -31 41q-21 0 -28 -22q-1 -4 -5 -4l-72 18q-6 2 -6 6l13 170
q0 6 6 6h179q6 0 6 -6v-46q0 -6 -6 -6h-109l-4 -76q20 12 49 12q41 0 64.5 -20.5t23.5 -64.5v-51q0 -97 -111 -97q-42 0 -74.5 18zM480 16q-32 21 -32 75v23q0 61 45 79q-41 17 -41 72q0 50 31.5 70t74.5 20q44 0 75 -20t31 -70q0 -55 -41 -72q45 -18 45 -79v-23
q0 -96 -110 -96q-46 0 -78 21zM580.5 228.5q7.5 8.5 7.5 30.5t-7.5 30t-22.5 8t-22.5 -8t-7.5 -30t7.5 -30.5t22.5 -8.5t22.5 8.5zM580.5 61q7.5 8 7.5 30v32q0 23 -7.5 31t-22.5 8t-22.5 -8t-7.5 -31v-32q0 -22 7.5 -30t22.5 -8t22.5 8z" />
    <glyph glyph-name="seveneighths" unicode="&#x215e;" horiz-adv-x="660" 
d="M123 -15l-52 35q-2 2 -2 4l1 4l462 686q3 3 5 3t6 -2l52 -35q2 -2 2 -4l-1 -4l-462 -686q-3 -3 -5 -3t-6 2zM58 355l113 287h-138q-6 0 -6 6v46q0 6 6 6h215q3 0 3 -3v-48q0 -6 -3 -12l-104 -283q-2 -4 -6 -4h-76q-4 0 -4 5zM450 16q-32 21 -32 75v23q0 61 45 79
q-41 17 -41 72q0 50 31.5 70t74.5 20q44 0 75 -20t31 -70q0 -55 -41 -72q45 -18 45 -79v-23q0 -96 -110 -96q-46 0 -78 21zM550.5 228.5q7.5 8.5 7.5 30.5t-7.5 30t-22.5 8t-22.5 -8t-7.5 -30t7.5 -30.5t22.5 -8.5t22.5 8.5zM550.5 61q7.5 8 7.5 30v32q0 23 -7.5 31t-22.5 8
t-22.5 -8t-7.5 -31v-32q0 -22 7.5 -30t22.5 -8t22.5 8z" />
    <glyph glyph-name="arrowleft" unicode="&#x2190;" horiz-adv-x="520" 
d="M482 354v-68q0 -6 -6 -6h-313q20 -18 30 -39t10 -41q0 -29 -8 -57q-1 -5 -7 -5h-51q-6 0 -6 6q0 50 -30 85.5t-68 48.5q-5 3 -5 7v70q0 4 5 7q37 13 66.5 48t31.5 86q0 6 6 6h51q6 0 7 -5q8 -22 8 -57q0 -20 -10 -41t-30 -39h313q6 0 6 -6z" />
    <glyph glyph-name="arrowup" unicode="&#x2191;" horiz-adv-x="412" 
d="M388 438v-51q0 -6 -5 -7q-28 -8 -57 -8q-20 0 -41 10t-39 30v-313q0 -6 -6 -6h-68q-6 0 -6 6v313q-18 -20 -39 -30t-41 -10q-35 0 -57 8q-5 1 -5 7v51q0 6 6 6q51 2 86 31.5t48 66.5q3 5 7 5h70q4 0 7 -5q13 -38 48.5 -68t85.5 -30q6 0 6 -6z" />
    <glyph glyph-name="arrowright" unicode="&#x2192;" horiz-adv-x="520" 
d="M492 355v-70q0 -4 -5 -7q-37 -13 -66.5 -48t-31.5 -86q0 -6 -6 -6h-51q-6 0 -7 5q-8 22 -8 57q0 20 10 41t30 39h-313q-6 0 -6 6v68q0 6 6 6h313q-20 18 -30 39t-10 41q0 35 8 57q1 5 7 5h51q6 0 6 -6q2 -51 31.5 -86t66.5 -48q5 -3 5 -7z" />
    <glyph glyph-name="arrowdown" unicode="&#x2193;" horiz-adv-x="412" 
d="M388 253v-51q0 -6 -6 -6q-50 0 -85.5 -30t-48.5 -68q-3 -5 -7 -5h-70q-4 0 -7 5q-13 37 -48 66.5t-86 31.5q-6 0 -6 6v51q0 6 5 7q22 8 57 8q20 0 41 -10t39 -30v313q0 6 6 6h68q6 0 6 -6v-313q18 20 39 30t41 10q29 0 57 -8q5 -1 5 -7z" />
    <glyph glyph-name="arrowboth" unicode="&#x2194;" horiz-adv-x="600" 
d="M562 355v-70q0 -4 -5 -7q-38 -13 -68 -48.5t-30 -85.5q0 -6 -6 -6h-51q-6 0 -7 5q-8 28 -8 57q0 20 10 41t30 39h-264q20 -18 30 -39t10 -41q0 -29 -8 -57q-1 -5 -7 -5h-51q-6 0 -6 6q0 50 -30 85.5t-68 48.5q-5 3 -5 7v70q0 4 5 7q37 13 66.5 48t31.5 86q0 6 6 6h51
q6 0 7 -5q8 -22 8 -57q0 -20 -10 -41t-30 -39h264q-20 18 -30 39t-10 41q0 35 8 57q1 5 7 5h51q6 0 6 -6q2 -51 31.5 -86t66.5 -48q5 -3 5 -7z" />
    <glyph glyph-name="arrowupdn" unicode="&#x2195;" horiz-adv-x="412" 
d="M285 422q-21 10 -39 30v-264q18 20 39 30t41 10q35 0 57 -8q5 -1 5 -7v-51q0 -6 -6 -6q-51 -2 -86 -31.5t-48 -66.5q-3 -5 -7 -5h-70q-4 0 -7 5q-13 38 -48.5 68t-85.5 30q-6 0 -6 6v51q0 6 5 7q28 8 57 8q20 0 41 -10t39 -30v264q-18 -20 -39 -30t-41 -10q-29 0 -57 8
q-5 1 -5 7v51q0 6 6 6q50 0 85.5 30t48.5 68q3 5 7 5h70q4 0 7 -5q13 -37 48 -66.5t86 -31.5q6 0 6 -6v-51q0 -6 -5 -7q-22 -8 -57 -8q-20 0 -41 10z" />
    <glyph glyph-name="uni2196" unicode="&#x2196;" horiz-adv-x="457" 
d="M427 184l-49 -49q-4 -4 -8 0l-221 221v-6q0 -40 -16.5 -62.5t-58.5 -50.5q-4 -2 -8 2l-36 36q-4 4 0 8q40 40 40 97q0 33 -15 67q0 7 2 9l49 49q2 2 9 2q30 -14 64 -14q58 0 100 39q4 4 8 0l36 -36q4 -4 2 -8q-17 -34 -45.5 -54.5t-67.5 -20.5h-6l221 -221q4 -4 0 -8z
" />
    <glyph glyph-name="uni2197" unicode="&#x2197;" horiz-adv-x="457" 
d="M427 275l-36 -36q-4 -4 -8 -2q-42 28 -58.5 50.5t-16.5 62.5v6l-221 -221q-4 -4 -8 0l-49 49q-4 4 0 8l221 221h-6q-39 0 -67.5 20.5t-45.5 54.5q-2 4 2 8l36 36q4 4 8 0q42 -39 100 -39q34 0 64 14q7 0 9 -2l49 -49q2 -2 2 -9q-15 -34 -15 -67q0 -57 40 -97q4 -4 0 -8z
" />
    <glyph glyph-name="uni2198" unicode="&#x2198;" horiz-adv-x="457" 
d="M427 384q-40 -40 -40 -97q0 -33 15 -67q0 -7 -2 -9l-49 -49q-2 -2 -9 -2q-30 14 -64 14q-58 0 -100 -39q-4 -4 -8 0l-36 36q-4 4 -2 8q17 34 45.5 54.5t67.5 20.5h6l-221 221q-4 4 0 8l49 49q4 4 8 0l221 -221v6q0 40 16.5 62.5t58.5 50.5q4 2 8 -2l36 -36q4 -4 0 -8z
" />
    <glyph glyph-name="uni2199" unicode="&#x2199;" horiz-adv-x="457" 
d="M427 475l-221 -221h6q39 0 67.5 -20.5t45.5 -54.5q2 -4 -2 -8l-36 -36q-4 -4 -8 0q-42 39 -100 39q-34 0 -64 -14q-7 0 -9 2l-49 49q-2 2 -2 9q15 34 15 67q0 57 -40 97q-4 4 0 8l36 36q4 4 8 2q42 -28 58.5 -50.5t16.5 -62.5v-6l221 221q4 4 8 0l49 -49q4 -4 0 -8z" />
    <glyph glyph-name="partialdiff" unicode="&#x2202;" horiz-adv-x="480" 
d="M167 700q137 0 207 -111.5t70 -326.5q0 -126 -54 -202.5t-153 -76.5q-58 0 -102.5 26t-69.5 73t-25 108q0 113 58 164t139 51q39 0 72 -14t57 -39q-5 70 -31 133.5t-69.5 103t-98.5 39.5q-2 0 -4 2t-2 4v61q0 5 6 5zM324 100.5q32 41.5 32 119.5q-12 51 -43 80t-79 29
q-53 0 -81 -36t-28 -98q0 -59 30 -97.5t82 -38.5q55 0 87 41.5z" />
    <glyph glyph-name="uni2206" unicode="&#x2206;" horiz-adv-x="580" 
d="M565 0h-550q-5 0 -5 6l231 688q2 6 8 6h82q7 0 8 -6l231 -688q0 -6 -5 -6zM122 82h336l-168 501z" />
    <glyph glyph-name="product" unicode="&#x220f;" horiz-adv-x="540" 
d="M56 700h428q6 0 6 -6v-824q0 -6 -6 -6h-152q-6 0 -6 6v716h-112v-716q0 -6 -6 -6h-152q-6 0 -6 6v824q0 6 6 6z" />
    <glyph glyph-name="summation" unicode="&#x2211;" horiz-adv-x="456" 
d="M414 694v-102q0 -6 -6 -6h-220l211 -299q2 -3 2 -5t-2 -5l-211 -299h220q6 0 6 -6v-102q0 -6 -6 -6h-378q-6 0 -6 6v103q0 5 3 10l215 299l-215 299q-3 5 -3 10v103q0 6 6 6h378q6 0 6 -6z" />
    <glyph glyph-name="minus" unicode="&#x2212;" horiz-adv-x="428" 
d="M390 364v-68q0 -6 -6 -6h-340q-6 0 -6 6v68q0 6 6 6h340q6 0 6 -6z" />
    <glyph glyph-name="uni2215" unicode="&#x2215;" horiz-adv-x="283" 
d="M103 -72h-70q-5 0 -5 6l162 833q1 5 6 5h70q5 0 5 -6l-162 -833q-1 -5 -6 -5z" />
    <glyph glyph-name="uni2219" unicode="&#x2219;" horiz-adv-x="202" 
d="M158 267h-114q-6 0 -6 6v114q0 6 6 6h114q6 0 6 -6v-114q0 -6 -6 -6z" />
    <glyph glyph-name="radical" unicode="&#x221a;" horiz-adv-x="537" 
d="M343 0h-139q-4 0 -6 6l-58 280h-94q-6 0 -6 6v102q0 6 6 6h207q6 0 6 -6l40 -195l146 568q1 5 6 5h88q5 0 5 -6l-195 -761q-1 -5 -6 -5z" />
    <glyph glyph-name="infinity" unicode="&#x221e;" horiz-adv-x="740" 
d="M665 468q40 -55 40 -140t-40 -140t-122 -55q-119 0 -173 116q-54 -116 -173 -116q-82 0 -122 55t-40 140t40 140t122 55q119 0 173 -116q54 116 173 116q82 0 122 -55zM266.5 266q37.5 19 65.5 62q-28 43 -65.5 62t-78.5 19q-37 0 -57.5 -22t-20.5 -59t20.5 -59t57.5 -22
q41 0 78.5 19zM609.5 269q20.5 22 20.5 59t-20.5 59t-57.5 22q-40 0 -78 -19t-66 -62q28 -43 66 -62t78 -19q37 0 57.5 22z" />
    <glyph glyph-name="integral" unicode="&#x222b;" horiz-adv-x="496" 
d="M266.5 676.5q45.5 40.5 133.5 40.5q36 0 63 -10t51 -29q2 -2 2 -5l-1 -4l-55 -86q-2 -2 -4 -2t-5 3q-10 10 -18 14.5t-22 4.5q-29 0 -37 -36l-120 -635q-13 -68 -59 -96.5t-121 -28.5q-44 0 -78.5 13t-52.5 26q-3 2 -3 4t2 5l65 87q2 2 4 2q1 0 3 -2q10 -10 19 -15.5
t21 -5.5q18 0 29.5 8t15.5 29l107 593q15 85 60.5 125.5z" />
    <glyph glyph-name="approxequal" unicode="&#x2248;" horiz-adv-x="434" 
d="M392 470q6 -18 6 -33q0 -36 -28.5 -54.5t-66.5 -18.5q-20 0 -38.5 6.5t-48.5 19.5q-24 12 -40 17.5t-31 5.5q-23 0 -38 -11.5t-15 -31.5q0 -6 -6 -6h-34q-6 0 -8 6q-4 12 -4 25q0 35 31.5 57.5t66.5 22.5q22 0 40.5 -5.5t41.5 -16.5q22 -10 37.5 -15t34.5 -5
q23 0 37.5 8.5t14.5 28.5q0 6 6 6h34q6 0 8 -6zM392 304q6 -18 6 -33q0 -36 -28.5 -54.5t-66.5 -18.5q-20 0 -38.5 6.5t-48.5 19.5q-24 12 -40 17.5t-31 5.5q-23 0 -38 -11.5t-15 -31.5q0 -6 -6 -6h-34q-6 0 -8 6q-4 12 -4 25q0 35 31.5 57.5t66.5 22.5q22 0 40.5 -5.5
t41.5 -16.5q22 -10 37.5 -15t34.5 -5q23 0 37.5 8.5t14.5 28.5q0 6 6 6h34q6 0 8 -6z" />
    <glyph glyph-name="notequal" unicode="&#x2260;" horiz-adv-x="575" 
d="M305 293h226q6 0 6 -6v-68q0 -6 -6 -6h-280l-88 -130q-1 -3 -5 -3l-4 1l-57 38q-2 2 -2 5l1 4l58 85h-110q-6 0 -6 6v68q0 6 6 6h164l62 92h-226q-6 0 -6 6v68q0 6 6 6h280l88 130q2 3 5 3l4 -1l57 -38q2 -2 2 -5l-1 -4l-58 -85h110q6 0 6 -6v-68q0 -6 -6 -6h-164z" />
    <glyph glyph-name="lessequal" unicode="&#x2264;" horiz-adv-x="578" 
d="M489 550l-221 -146l221 -146q5 -2 5 -9v-129q0 -4 -3 -4l-4 1l-422 283q-2 2 -2 4t2 4l422 283l4 1q3 0 3 -4v-129q0 -6 -5 -9zM540 74v-68q0 -6 -6 -6h-490q-6 0 -6 6v68q0 6 6 6h490q6 0 6 -6z" />
    <glyph glyph-name="greaterequal" unicode="&#x2265;" horiz-adv-x="578" 
d="M87 692l4 -1l422 -283q2 -2 2 -4t-2 -4l-422 -283l-4 -1q-3 0 -3 4v129q0 7 5 9l221 146l-221 146q-5 3 -5 9v129q0 4 3 4zM540 74v-68q0 -6 -6 -6h-490q-6 0 -6 6v68q0 6 6 6h490q6 0 6 -6z" />
    <glyph glyph-name="lozenge" unicode="&#x25ca;" horiz-adv-x="464" 
d="M232 0q-2 0 -4 3l-205 342q-2 4 -2 5t2 5l205 342q2 3 4 3t4 -3l205 -342q2 -4 2 -5t-2 -5l-205 -342q-2 -3 -4 -3zM120 350l112 -190l112 190l-112 190z" />
    <glyph glyph-name="uniF8FF" unicode="&#xf8ff;" horiz-adv-x="692" 
d="M635.5 6.5q-6.5 -6.5 -15.5 -6.5l-7 1l-267 77l-267 -77l-7 -1q-9 0 -15.5 6.5t-6.5 15.5v595q0 7 4.5 13.5t11.5 8.5l270 78l10 2l10 -2l270 -78q7 -2 11.5 -8.5t4.5 -13.5v-595q0 -9 -6.5 -15.5zM94 602q4 -62 35 -114t82.5 -84.5t112.5 -37.5v303zM480.5 403.5
q51.5 32.5 82.5 84.5t35 114l-230 67v-303q61 5 112.5 37.5zM324 118v204q-73 6 -134 43.5t-97 97.5v-412zM501.5 365.5q-60.5 -37.5 -133.5 -43.5v-204l231 -67v412q-37 -60 -97.5 -97.5z" />
    <glyph glyph-name="fi" unicode="&#xfb01;" horiz-adv-x="373" 
d="M34 356v338q0 6 6 6h293q6 0 6 -6v-338q0 -6 -6 -6h-70q-6 0 -6 6v286h-141v-71h91q6 0 6 -6v-46q0 -6 -6 -6h-91v-157q0 -6 -6 -6h-70q-6 0 -6 6zM-6 243v46q0 6 6 6h373q6 0 6 -6v-46q0 -6 -6 -6h-373q-6 0 -6 6z" />
    <glyph glyph-name="fl" unicode="&#xfb02;" horiz-adv-x="476" 
d="M34 356v338q0 6 6 6h290q6 0 6 -6v-286h104q6 0 6 -6v-46q0 -6 -6 -6h-180q-6 0 -6 6v286h-138v-71h91q6 0 6 -6v-46q0 -6 -6 -6h-91v-157q0 -6 -6 -6h-70q-6 0 -6 6zM-6 243v46q0 6 6 6h476q6 0 6 -6v-46q0 -6 -6 -6h-476q-6 0 -6 6z" />
    <glyph glyph-name="i.loclTRK" horiz-adv-x="150" 
d="M34 356v338q0 6 6 6h70q6 0 6 -6v-338q0 -6 -6 -6h-70q-6 0 -6 6zM-6 243v46q0 6 6 6h150q6 0 6 -6v-46q0 -6 -6 -6h-150q-6 0 -6 6zM119 750h-88q-6 0 -6 6v88q0 6 6 6h88q6 0 6 -6v-88q0 -6 -6 -6z" />
    <glyph glyph-name="zero.tf" horiz-adv-x="560" 
d="M120.5 25q-64.5 42 -64.5 152v346q0 110 64.5 152t159.5 42t159.5 -42t64.5 -152v-346q0 -110 -64.5 -152t-159.5 -42t-159.5 42zM325 115q15 18 15 63v344q0 45 -15 63t-45 18t-45 -18t-15 -63v-344q0 -45 15 -63t45 -18t45 18z" />
    <glyph glyph-name="one.tf" horiz-adv-x="560" 
d="M198 6v612q0 5 4 9l70 69q4 4 9 4h75q6 0 6 -6v-688q0 -6 -6 -6h-152q-6 0 -6 6z" />
    <glyph glyph-name="two.tf" horiz-adv-x="560" 
d="M56 6q1 71 26 130.5t59.5 104t88.5 101.5q57 60 83.5 99t26.5 80q0 82 -60 82q-30 0 -48.5 -24t-18.5 -59q0 -5 -5 -5l-146 34q-5 2 -5 5q0 55 33 92t84 54t106 17q97 0 160.5 -46.5t63.5 -149.5q0 -49 -19.5 -92.5t-48 -78.5t-76.5 -86q-41 -43 -66 -72.5t-44 -61.5h248
q6 0 6 -6v-118q0 -6 -6 -6h-436q-6 0 -6 6z" />
    <glyph glyph-name="three.tf" horiz-adv-x="560" 
d="M130.5 19.5q-64.5 36.5 -74.5 124.5q0 6 5 7l146 33q6 0 6 -5q0 -82 66 -82q61 0 61 82v32q0 45 -16 63.5t-45 18.5h-62q-6 0 -6 5v103q0 2 2 4t4 2h58q33 0 49 18t16 64v32q0 45 -16 63.5t-45 18.5q-31 0 -48 -18.5t-18 -64.5q0 -5 -6 -5l-146 34q-5 2 -5 7
q11 90 73.5 125.5t149.5 35.5q225 0 225 -196v-32q0 -53 -23 -89t-65 -50q41 -18 64.5 -53t23.5 -86v-32q0 -111 -64.5 -153.5t-160.5 -42.5q-84 0 -148.5 36.5z" />
    <glyph glyph-name="four.tf" horiz-adv-x="560" 
d="M307 6v128h-273q-6 0 -6 6v78q0 7 3 11l276 466q3 5 9 5h138q6 0 6 -6v-446h66q6 0 6 -6v-102q0 -6 -6 -6h-66v-128q0 -6 -6 -6h-141q-6 0 -6 6zM307 248v222l-132 -222h132z" />
    <glyph glyph-name="five.tf" horiz-adv-x="560" 
d="M56 144q0 6 5 7l147 33q5 0 5 -4q1 -83 66 -83q30 0 45.5 18.5t15.5 63.5v87q0 45 -15.5 63.5t-45.5 18.5q-23 0 -37 -11t-20 -37q-1 -4 -5 -4l-157 36q-5 1 -5 7l25 355q0 6 7 6h375q6 0 6 -6v-102q0 -6 -6 -6h-228l-8 -156q41 24 99 24q83 0 131 -41.5t48 -129.5v-104
q0 -105 -61 -150.5t-164 -45.5q-203 0 -223 161z" />
    <glyph glyph-name="six.tf" horiz-adv-x="560" 
d="M118 28q-63 45 -63 151v342q0 111 64.5 153.5t160.5 42.5q88 0 149.5 -37.5t73.5 -123.5q0 -5 -5 -7l-146 -34q-6 0 -6 5q-2 47 -18.5 65t-47.5 18q-29 0 -45 -18.5t-16 -63.5v-118q45 29 107 29q83 0 131 -41.5t48 -129.5v-82q0 -196 -225 -196q-99 0 -162 45z
M325.5 115.5q15.5 18.5 15.5 63.5v65q0 45 -15.5 63.5t-45.5 18.5t-45.5 -18.5t-15.5 -63.5v-65q0 -45 15.5 -63.5t45.5 -18.5t45.5 18.5z" />
    <glyph glyph-name="seven.tf" horiz-adv-x="560" 
d="M118 3l1 4l227 579h-284q-6 0 -6 6v102q0 6 6 6h435q6 0 6 -6v-103q0 -5 -3 -13l-213 -573q-2 -5 -8 -5h-156q-5 0 -5 3z" />
    <glyph glyph-name="eight.tf" horiz-adv-x="560" 
d="M119.5 25.5q-64.5 42.5 -64.5 153.5v47q0 66 24.5 104t69.5 56q-84 34 -84 148q0 102 63 142.5t152 40.5t152 -40.5t63 -142.5q0 -114 -84 -148q45 -18 69.5 -56t24.5 -104v-47q0 -111 -64.5 -153.5t-160.5 -42.5t-160.5 42.5zM325.5 458q15.5 18 15.5 63t-15.5 63.5
t-45.5 18.5t-45.5 -18.5t-15.5 -63.5t15.5 -63t45.5 -18t45.5 18zM325.5 115.5q15.5 18.5 15.5 63.5v65q0 45 -15.5 63.5t-45.5 18.5t-45.5 -18.5t-15.5 -63.5v-65q0 -45 15.5 -63.5t45.5 -18.5t45.5 18.5z" />
    <glyph glyph-name="nine.tf" horiz-adv-x="560" 
d="M130.5 20.5q-61.5 37.5 -73.5 123.5q0 5 5 7l146 34q6 0 6 -5q2 -47 18.5 -65t47.5 -18q29 0 45 18.5t16 63.5v118q-45 -29 -107 -29q-83 0 -131 41.5t-48 129.5v82q0 196 225 196q99 0 162 -45t63 -151v-342q0 -111 -64.5 -153.5t-160.5 -42.5q-88 0 -149.5 37.5z
M325.5 392.5q15.5 18.5 15.5 63.5v65q0 45 -15.5 63.5t-45.5 18.5t-45.5 -18.5t-15.5 -63.5v-65q0 -45 15.5 -63.5t45.5 -18.5t45.5 18.5z" />
    <glyph glyph-name="period.ss01" horiz-adv-x="155" 
d="M98 350h-50q-6 0 -6 6v50q0 6 6 6h50q6 0 6 -6v-50q0 -6 -6 -6zM161 289v-46q0 -6 -6 -6h-155q-6 0 -6 6v46q0 6 6 6h155q6 0 6 -6z" />
    <glyph glyph-name="comma.ss01" horiz-adv-x="155" 
d="M96 329.5q-8 -11.5 -24 -15.5q-6 0 -8 2l-11 13l-2 4q0 2 4 4q6 2 8.5 4.5t3.5 8.5h-19q-6 0 -6 6v50q0 6 6 6h50q6 0 6 -6v-49q0 -16 -8 -27.5zM161 289v-46q0 -6 -6 -6h-155q-6 0 -6 6v46q0 6 6 6h155q6 0 6 -6z" />
    <glyph glyph-name="colon.ss01" horiz-adv-x="155" 
d="M98 506h-50q-6 0 -6 6v50q0 6 6 6h50q6 0 6 -6v-50q0 -6 -6 -6zM98 350h-50q-6 0 -6 6v50q0 6 6 6h50q6 0 6 -6v-50q0 -6 -6 -6zM161 289v-46q0 -6 -6 -6h-155q-6 0 -6 6v46q0 6 6 6h155q6 0 6 -6z" />
    <glyph glyph-name="semicolon.ss01" horiz-adv-x="155" 
d="M98 506h-50q-6 0 -6 6v50q0 6 6 6h50q6 0 6 -6v-50q0 -6 -6 -6zM96 329.5q-8 -11.5 -24 -15.5q-6 0 -8 2l-11 13l-2 4q0 2 4 4q6 2 8.5 4.5t3.5 8.5h-19q-6 0 -6 6v50q0 6 6 6h50q6 0 6 -6v-49q0 -16 -8 -27.5zM161 289v-46q0 -6 -6 -6h-155q-6 0 -6 6v46q0 6 6 6h155
q6 0 6 -6z" />
    <glyph glyph-name="exclam.ss01" horiz-adv-x="171" 
d="M52 700h68q6 0 6 -6l-9 -244q0 -6 -6 -6h-51q-6 0 -6 6l-8 244q0 6 6 6zM60 412h51q6 0 6 -6v-50q0 -6 -6 -6h-51q-6 0 -6 6v50q0 6 6 6zM177 289v-46q0 -6 -6 -6h-171q-6 0 -6 6v46q0 6 6 6h171q6 0 6 -6z" />
    <glyph glyph-name="question.ss01" horiz-adv-x="257" 
d="M56 686.5q31 18.5 73 18.5q48 0 80 -24t32 -73q0 -30 -13.5 -49.5t-39.5 -42.5q-20 -17 -30 -30.5t-10 -31.5v-6q0 -6 -6 -6h-50q-6 0 -6 6v9q0 36 11 55t31 37q16 15 23.5 27t7.5 32q0 41 -30 41q-13 0 -22 -9.5t-10 -28.5q0 -5 -6 -5l-66 15q-6 2 -6 8q6 39 37 57.5z
M142 350h-50q-6 0 -6 6v50q0 6 6 6h50q6 0 6 -6v-50q0 -6 -6 -6zM263 289v-46q0 -6 -6 -6h-257q-6 0 -6 6v46q0 6 6 6h257q6 0 6 -6z" />
    <glyph glyph-name="hyphen.ss01" horiz-adv-x="205" 
d="M42 545h123q6 0 6 -6v-28q0 -6 -6 -6h-123q-6 0 -6 6v28q0 6 6 6zM211 289v-46q0 -6 -6 -6h-205q-6 0 -6 6v46q0 6 6 6h205q6 0 6 -6z" />
    <glyph glyph-name="dollar.ss01" horiz-adv-x="259" 
d="M158 613q-1 16 -9.5 25t-20.5 9t-20 -7t-8 -20q0 -12 11.5 -22t36.5 -27q43 -27 67.5 -54t24.5 -71t-25.5 -69.5t-65.5 -31.5v-33q0 -3 -2 -3h-33q-4 0 -4 3v33q-42 4 -65 24t-27 52q0 5 5 7l67 16q4 0 4 -6q1 -19 9.5 -27t23.5 -8q33 0 33 38q0 20 -14 34t-43 34
q-37 25 -56.5 46.5t-19.5 57.5q0 41 23 63.5t60 26.5v35q0 3 4 3h33q2 0 2 -3v-34q71 -10 81 -75q0 -6 -6 -8l-60 -14q-6 0 -6 6zM265 289v-46q0 -6 -6 -6h-259q-6 0 -6 6v46q0 6 6 6h259q6 0 6 -6z" />
    <glyph glyph-name="sterling.ss01" horiz-adv-x="306" 
d="M289 426q1 -2 1 -5q-5 -42 -36 -59t-73 -17q-14 0 -36 6q-24 6 -39 6q-12 0 -28 -4q-3 0 -11 -1.5t-16 -1.5h-16q-6 0 -6 6v50q0 6 6 6q29 1 47.5 19.5t18.5 58.5v9h-66q-6 0 -6 6v46q0 6 6 6h41q-16 29 -16 52q0 49 31 72.5t80 23.5q44 0 73.5 -20t35.5 -55q0 -7 -5 -8
l-65 -15q-7 0 -7 6q-1 17 -9.5 25.5t-22.5 8.5q-31 0 -31 -38q0 -18 16 -52h83q6 0 6 -6v-46q0 -6 -6 -6h-67q0 -33 -11.5 -58.5t-34.5 -36.5q14 3 22 3q9 0 17.5 -2t15.5 -2q30 0 33 36q0 5 4 5l6 -1l60 -14q4 -1 5 -3zM312 289v-46q0 -6 -6 -6h-306q-6 0 -6 6v46q0 6 6 6
h306q6 0 6 -6z" />
    <glyph glyph-name="yen.ss01" horiz-adv-x="284" 
d="M281 573v-28q0 -6 -6 -6h-75l-17 -43h48q6 0 6 -6v-28q0 -6 -6 -6h-48v-100q0 -6 -6 -6h-70q-6 0 -6 6v100h-49q-6 0 -6 6v28q0 6 6 6h49l-18 43h-74q-6 0 -6 6v28q0 6 6 6h57l-49 114q0 3 1 5t5 2h70q4 0 6 -1t3 -4l50 -129l50 129q1 3 3 4t6 1h47q4 0 5 -2t1 -5
l-47 -114h58q6 0 6 -6zM290 289v-46q0 -6 -6 -6h-284q-6 0 -6 6v46q0 6 6 6h284q6 0 6 -6z" />
    <glyph glyph-name="plus.ss01" horiz-adv-x="243" 
d="M142 597v-62h62q6 0 6 -6v-28q0 -6 -6 -6h-62v-62q0 -6 -6 -6h-29q-6 0 -6 6v62h-62q-6 0 -6 6v28q0 6 6 6h62v62q0 6 6 6h29q6 0 6 -6zM249 289v-46q0 -6 -6 -6h-243q-6 0 -6 6v46q0 6 6 6h243q6 0 6 -6z" />
    <glyph glyph-name="divide.ss01" horiz-adv-x="299" 
d="M175 537h-50q-6 0 -6 6v50q0 6 6 6h50q6 0 6 -6v-50q0 -6 -6 -6zM266 489v-29q0 -6 -6 -6h-221q-6 0 -6 6v29q0 6 6 6h221q6 0 6 -6zM175 350h-50q-6 0 -6 6v50q0 6 6 6h50q6 0 6 -6v-50q0 -6 -6 -6zM305 289v-46q0 -6 -6 -6h-299q-6 0 -6 6v46q0 6 6 6h299q6 0 6 -6z
" />
    <glyph glyph-name="equal.ss01" horiz-adv-x="222" 
d="M189 574v-29q0 -6 -6 -6h-144q-6 0 -6 6v29q0 6 6 6h144q6 0 6 -6zM189 494v-29q0 -6 -6 -6h-144q-6 0 -6 6v29q0 6 6 6h144q6 0 6 -6zM228 289v-46q0 -6 -6 -6h-222q-6 0 -6 6v46q0 6 6 6h222q6 0 6 -6z" />
    <glyph glyph-name="notequal.ss01" horiz-adv-x="316" 
d="M166 497h111q6 0 6 -6v-29q0 -6 -6 -6h-138l-42 -61q-2 -3 -5 -3l-4 1l-23 16q-3 2 -3 5l2 4l27 38h-52q-6 0 -6 6v29q0 6 6 6h79l32 45h-111q-6 0 -6 6v29q0 6 6 6h138l42 61q2 3 5 3l4 -1l23 -16q3 -2 3 -5l-2 -4l-27 -38h52q6 0 6 -6v-29q0 -6 -6 -6h-79zM322 289v-46
q0 -6 -6 -6h-316q-6 0 -6 6v46q0 6 6 6h316q6 0 6 -6z" />
    <glyph glyph-name="greater.ss01" horiz-adv-x="259" 
d="M31 672l4 -1l205 -137q2 -2 2 -4t-2 -4l-205 -137l-4 -1q-4 0 -4 5v56q0 7 5 10l105 71l-105 71q-5 3 -5 10v56q0 5 4 5zM265 289v-46q0 -6 -6 -6h-259q-6 0 -6 6v46q0 6 6 6h259q6 0 6 -6z" />
    <glyph glyph-name="less.ss01" horiz-adv-x="259" 
d="M227 601l-105 -71l105 -71q5 -3 5 -10v-56q0 -5 -4 -5l-4 1l-205 137q-2 2 -2 4t2 4l205 137l4 1q4 0 4 -5v-56q0 -7 -5 -10zM265 289v-46q0 -6 -6 -6h-259q-6 0 -6 6v46q0 6 6 6h259q6 0 6 -6z" />
    <glyph glyph-name="percent.ss01" horiz-adv-x="364" 
d="M51 693q15 12 39 12t39 -12t15 -34v-82q0 -22 -15 -34t-39 -12t-39 12t-15 34v82q0 22 15 34zM54 366l2 4l224 331q3 4 5 4t6 -3l18 -13q3 -2 3 -5l-2 -4l-224 -331q-3 -4 -5 -4q-1 0 -6 3l-18 13q-3 2 -3 5zM79.5 562q3.5 -4 10.5 -4t10.5 4t3.5 15v82q0 11 -3.5 15
t-10.5 4t-10.5 -4t-3.5 -15v-82q0 -11 3.5 -15zM237 507q15 12 39 12t39 -12t15 -34v-82q0 -22 -15 -34t-39 -12t-39 12t-15 34v82q0 22 15 34zM265.5 376q3.5 -4 10.5 -4t10.5 4t3.5 15v82q0 11 -3.5 15t-10.5 4t-10.5 -4t-3.5 -15v-82q0 -11 3.5 -15zM370 289v-46
q0 -6 -6 -6h-364q-6 0 -6 6v46q0 6 6 6h364q6 0 6 -6z" />
    <glyph glyph-name="ampersand.ss01" horiz-adv-x="354" 
d="M336 355q0 -5 -5 -5h-82q-6 0 -12 6l-9 11q-14 -11 -35.5 -18t-45.5 -7q-50 0 -82 23.5t-32 68.5q0 51 58 92q-15 23 -23 42t-8 40q0 50 29.5 73.5t71.5 23.5q43 0 70 -23t27 -69q0 -57 -65 -103l35 -39q6 14 6 38q0 6 6 6h56q6 0 6 -6q0 -31 -6.5 -50.5t-20.5 -37.5
l59 -62q2 -2 2 -4zM179 587q8 12 8 30q0 16 -7 23t-19 7q-25 0 -25 -34q0 -28 18 -49q17 11 25 23zM186 412l-52 58q-21 -14 -21 -39q0 -16 10.5 -25.5t24.5 -9.5q22 0 38 16zM360 289v-46q0 -6 -6 -6h-354q-6 0 -6 6v46q0 6 6 6h354q6 0 6 -6z" />
    <glyph glyph-name="caroncomb.alt" 
d="M-116 558l-12 30q-1 2 0 5t4 4q14 6 20.5 12t7.5 17h-32q-6 0 -6 6v62q0 6 6 6h71q6 0 6 -6v-63q0 -28 -16 -49t-38 -27q-8 -2 -11 3z" />
    <glyph glyph-name="grave.001" horiz-adv-x="228" 
d="M139 695l50 -150l1 -4q0 -4 -4 -4h-61q-6 0 -9 5l-80 150l-1 4q0 4 5 4h92q5 0 7 -5z" />
    <glyph glyph-name="uni0308.cap" 
d="M-201 794h-94q-6 0 -6 6v94q0 6 6 6h94q6 0 6 -6v-94q0 -6 -6 -6zM-31 794h-94q-6 0 -6 6v94q0 6 6 6h94q6 0 6 -6v-94q0 -6 -6 -6z" />
    <glyph glyph-name="uni0307.cap" 
d="M-33 774h-114q-6 0 -6 6v114q0 6 6 6h114q6 0 6 -6v-114q0 -6 -6 -6z" />
    <glyph glyph-name="gravecomb.cap" 
d="M-109 742l-80 150l-1 4q0 4 5 4h92q5 0 7 -5l50 -150l1 -4q0 -4 -4 -4h-61q-7 0 -9 5z" />
    <glyph glyph-name="acutecomb.cap" 
d="M-35 896l-1 -4l-80 -150q-3 -5 -9 -5h-61q-4 0 -4 4l1 4l50 150q2 5 7 5h92q5 0 5 -4z" />
    <glyph glyph-name="uni030B.cap" 
d="M-194 896l-1 -4l-80 -150q-3 -5 -9 -5h-61q-4 0 -4 4l1 4l50 150q2 5 7 5h92q5 0 5 -4zM-35 896l-1 -4l-80 -150q-3 -5 -9 -5h-61q-4 0 -4 4l1 4l50 150q2 5 7 5h92q5 0 5 -4z" />
    <glyph glyph-name="caroncomb.alt.cap" 
d="M-56.5 552.5q-15.5 -24.5 -44.5 -33.5l-6 -1q-3 0 -5 2l-14 35l-2 5q0 4 4 5q13 5 19.5 11t7.5 18h-44q-6 0 -6 6v94q0 6 6 6h94q6 0 6 -6v-86q0 -31 -15.5 -55.5z" />
    <glyph glyph-name="uni0302.cap" 
d="M-279 803q44 0 62 23t18 49q0 5 5 5h70q5 0 5 -5q0 -26 18 -49t62 -23q5 0 5 -5v-23q0 -5 -5 -7q-19 -7 -39 -7q-21 0 -39.5 8.5t-37.5 27.5q-2 2 -4 2t-4 -2q-19 -19 -37.5 -27.5t-39.5 -8.5q-20 0 -39 7q-5 2 -5 7v23q0 5 5 5z" />
    <glyph glyph-name="uni030C.cap" 
d="M-199 766q0 26 -18 49t-62 23q-5 0 -5 5v23q0 5 5 7q19 7 39 7q21 0 39.5 -8.5t37.5 -27.5q2 -2 4 -2t4 2q19 19 37.5 27.5t39.5 8.5q20 0 39 -7q5 -2 5 -7v-23q0 -5 -5 -5q-44 0 -62 -23t-18 -49q0 -5 -5 -5h-70q-5 0 -5 5z" />
    <glyph glyph-name="uni0306.cap" 
d="M-52 873h18q5 0 5 -5q-13 -48 -51 -79.5t-90 -31.5t-90 31.5t-51 79.5q0 5 5 5h18q6 0 10 -4q50 -50 108 -50q32 0 60 13t48 37q4 4 10 4z" />
    <glyph glyph-name="uni030A.cap" 
d="M-189.5 763.5q-28.5 28.5 -28.5 70.5t28.5 70.5t70.5 28.5t70.5 -28.5t28.5 -70.5t-28.5 -70.5t-70.5 -28.5t-70.5 28.5zM-70 785q19 19 19 49t-19 49t-49 19t-49 -19t-19 -49t19 -49t49 -19t49 19z" />
    <glyph glyph-name="tildecomb.cap" 
d="M-136.5 764q-15.5 8 -32.5 22q-13 11 -22 16t-20 5q-13 0 -21 -11t-8 -32q0 -6 -6 -6h-34q-6 0 -8 6q-8 26 -8 43q0 30 17 47.5t44 17.5q18 0 30 -5.5t32 -17.5q16 -11 28 -16.5t28 -5.5q34 0 34 37q0 6 6 6h34q3 0 4.5 -1.5t2.5 -4.5q8 -21 8 -42q0 -31 -19 -48.5
t-51 -17.5q-23 0 -38.5 8z" />
    <glyph glyph-name="uni0304.cap" 
d="M-36 784h-214q-6 0 -6 6v64q0 6 6 6h214q6 0 6 -6v-64q0 -6 -6 -6z" />
    <glyph glyph-name="uni0326.cap" 
d="M-125 -247l-24 36q-3 4 -3 6t5 4q22 8 26 27h-39q-6 0 -6 6v104q0 6 6 6h104q6 0 6 -6v-97q0 -53 -68 -88q-3 -2 -7 2z" />
    <glyph glyph-name="uni0327.cap" 
d="M-56.5 -73q38.5 -22 38.5 -72q0 -39 -31.5 -64t-80.5 -25q-29 0 -58 6t-49 14q-5 2 -5 7v36q0 5 5 5q5 -1 28 -5.5t49 -4.5q27 0 45 11t18 32q0 43 -51 43q-24 0 -36 -6q-4 -2 -5 -2q-3 0 -5 2l-26 21q-2 2 -2 4q0 3 2 5l79 101q2 2 3 2l4 -1l26 -20q3 -2 3 -4t-2 -4
l-46 -59q58 0 96.5 -22z" />
    <glyph glyph-name="uni0328.cap" 
d="M-89.5 -79.5q-32.5 -32.5 -32.5 -58.5q0 -35 37 -35q13 0 27 4.5t17 4.5q6 0 6 -5v-38q0 -5 -6 -8q-36 -19 -72 -19q-34 0 -57.5 20t-23.5 54q0 49 35 83.5t83 52.5q6 2 11 2h42q3 0 3 -2t-2 -3q-35 -20 -67.5 -52.5z" />
    <glyph glyph-name="uni0335.cap" 
d="M-334 390h320q6 0 6 -6v-68q0 -6 -6 -6h-320q-6 0 -6 6v68q0 6 6 6z" />
    </font>
</defs>
</svg>
